<svg width="17" height="17" viewBox="0 0 17 17" fill="none" xmlns="http://www.w3.org/2000/svg">
<g clip-path="url(#clip0_1_717)">
<path d="M0 8.18079C0 9.7988 0.479795 11.3805 1.37871 12.7258C2.27763 14.0711 3.55529 15.1197 5.05014 15.7389C6.54498 16.358 8.18987 16.5201 9.77678 16.2044C11.3637 15.8887 12.8214 15.1096 13.9655 13.9655C15.1096 12.8214 15.8887 11.3637 16.2044 9.77678C16.5201 8.18987 16.358 6.54498 15.7389 5.05014C15.1197 3.55529 14.0711 2.27763 12.7258 1.37871C11.3805 0.479795 9.7988 0 8.18079 0C6.01183 0.0023459 3.93238 0.865002 2.39869 2.39869C0.865002 3.93238 0.0023459 6.01183 0 8.18079ZM14.9981 8.18079C14.9981 9.52913 14.5983 10.8472 13.8492 11.9683C13.1001 13.0894 12.0354 13.9632 10.7897 14.4792C9.54397 14.9952 8.17323 15.1302 6.8508 14.8671C5.52837 14.6041 4.31363 13.9548 3.36021 13.0014C2.40679 12.0479 1.75751 10.8332 1.49446 9.51079C1.23141 8.18835 1.36642 6.81762 1.8824 5.57191C2.39839 4.32621 3.27218 3.26149 4.39329 2.51239C5.51439 1.76329 6.83245 1.36347 8.18079 1.36347C9.98825 1.36545 11.7211 2.08434 12.9992 3.36241C14.2772 4.64047 14.9961 6.37333 14.9981 8.18079ZM8.01513 5.2882L8.9791 4.32423L11.8717 7.21682C12.1273 7.47251 12.2709 7.81925 12.2709 8.18079C12.2709 8.54233 12.1273 8.88907 11.8717 9.14476L8.9791 12.0374L8.01513 11.0734L10.226 8.86252H4.0904V7.49906H10.226L8.01513 5.2882Z" fill="white"/>
</g>
<defs>
<clipPath id="clip0_1_717">
<rect width="16.3616" height="16.3616" fill="white"/>
</clipPath>
</defs>
</svg>
