<svg width="662" height="402" viewBox="0 0 662 402" fill="none" xmlns="http://www.w3.org/2000/svg">
<rect x="98.5281" y="0.528106" width="178.068" height="41.068" rx="7.92159" fill="#F8FBFB"/>
<rect x="98.5281" y="0.528106" width="178.068" height="41.068" rx="7.92159" stroke="#DBE1E5" stroke-width="1.05621"/>
<path d="M108.799 27.562L113.311 15.4958H115.271L119.766 27.562H118.043L113.97 16.2056H114.494L110.37 27.562H108.799ZM111.232 24.4018V23.0837H117.569V24.4018H111.232ZM123.679 27.562C123.026 27.562 122.485 27.3818 122.057 27.0212C121.64 26.6494 121.432 26.103 121.432 25.382V16.5267H122.97V25.1961C122.97 25.5679 123.077 25.8495 123.291 26.0411C123.505 26.2326 123.786 26.3284 124.136 26.3284H125.099V27.562H123.679ZM119.742 20.0925V18.8757H121.702V20.0925H119.742ZM122.699 20.0925V18.8757H125.099V20.0925H122.699ZM129.687 27.562C129.033 27.562 128.492 27.3818 128.064 27.0212C127.647 26.6494 127.439 26.103 127.439 25.382V16.5267H128.977V25.1961C128.977 25.5679 129.084 25.8495 129.298 26.0411C129.512 26.2326 129.794 26.3284 130.143 26.3284H131.106V27.562H129.687ZM125.749 20.0925V18.8757H127.709V20.0925H125.749ZM128.706 20.0925V18.8757H131.106V20.0925H128.706ZM136.369 27.7817C135.524 27.7817 134.786 27.5902 134.155 27.2071C133.535 26.8128 133.056 26.272 132.718 25.5848C132.38 24.8975 132.211 24.1089 132.211 23.2189C132.211 22.6781 132.273 22.1767 132.397 21.7148C132.521 21.2529 132.701 20.8361 132.938 20.4643C133.175 20.0812 133.462 19.7545 133.8 19.4841C134.138 19.2137 134.521 19.0109 134.949 18.8757C135.388 18.7293 135.862 18.656 136.369 18.656C136.909 18.656 137.422 18.7405 137.906 18.9095C138.391 19.0785 138.813 19.3545 139.174 19.7376C139.546 20.1094 139.827 20.6107 140.019 21.2416C140.21 21.8725 140.278 22.6556 140.222 23.5907H133.31V22.4753H138.718C138.695 22.0359 138.622 21.6529 138.498 21.3261C138.385 20.9994 138.228 20.7347 138.025 20.5319C137.833 20.3178 137.597 20.1601 137.315 20.0587C137.045 19.9573 136.729 19.9066 136.369 19.9066C135.986 19.9066 135.648 19.9629 135.355 20.0756C135.062 20.177 134.814 20.3291 134.611 20.5319C134.42 20.7347 134.262 20.9712 134.138 21.2416C134.014 21.512 133.924 21.8162 133.868 22.1542C133.811 22.4922 133.783 22.8471 133.783 23.2189C133.783 23.8385 133.862 24.4018 134.02 24.9088C134.189 25.4045 134.459 25.7988 134.831 26.0918C135.214 26.3847 135.726 26.5311 136.369 26.5311C136.966 26.5311 137.456 26.4072 137.839 26.1594C138.233 25.9002 138.492 25.596 138.616 25.2468H140.171C140.092 25.6862 139.889 26.0974 139.563 26.4805C139.236 26.8635 138.802 27.179 138.261 27.4268C137.721 27.6634 137.09 27.7817 136.369 27.7817ZM142.158 27.562V18.8757H143.696V20.853L143.544 20.684C143.724 20.222 143.961 19.8446 144.254 19.5517C144.558 19.2475 144.913 19.0222 145.318 18.8757C145.735 18.7293 146.18 18.656 146.654 18.656C147.127 18.656 147.555 18.7293 147.938 18.8757C148.332 19.0222 148.67 19.2419 148.952 19.5348C149.233 19.8277 149.448 20.1939 149.594 20.6333C149.752 21.0726 149.831 21.5796 149.831 22.1542V27.562H148.293V22.2556C148.293 21.7599 148.203 21.343 148.022 21.005C147.842 20.6558 147.594 20.3967 147.279 20.2277C146.963 20.0474 146.592 19.9573 146.163 19.9573C145.724 19.9573 145.313 20.0699 144.93 20.2953C144.558 20.5206 144.259 20.8304 144.034 21.2247C143.809 21.6078 143.696 22.0584 143.696 22.5767V27.562H142.158ZM155.42 27.7817C154.699 27.7817 154.057 27.5902 153.494 27.2071C152.93 26.8241 152.485 26.2889 152.158 25.6017C151.843 24.9032 151.685 24.0976 151.685 23.1851C151.685 22.6443 151.742 22.1429 151.854 21.681C151.978 21.2078 152.153 20.7854 152.378 20.4136C152.604 20.0418 152.868 19.7263 153.172 19.4672C153.477 19.2081 153.82 19.0109 154.203 18.8757C154.586 18.7293 154.992 18.656 155.42 18.656C155.882 18.656 156.31 18.7236 156.704 18.8588C157.099 18.994 157.454 19.2024 157.769 19.4841C158.085 19.7658 158.338 20.1206 158.53 20.5488L158.361 20.7347V15.4958H159.898V27.562H158.361V25.6693L158.53 25.8552C158.338 26.2833 158.085 26.6438 157.769 26.9367C157.454 27.2184 157.099 27.4268 156.704 27.562C156.31 27.7085 155.882 27.7817 155.42 27.7817ZM155.843 26.5142C156.169 26.5142 156.468 26.4636 156.738 26.3622C157.009 26.2495 157.245 26.0974 157.448 25.9059C157.662 25.7031 157.842 25.4665 157.989 25.1961C158.135 24.9257 158.248 24.6215 158.327 24.2835C158.406 23.9455 158.445 23.585 158.445 23.202C158.445 22.5598 158.338 21.9965 158.124 21.512C157.921 21.0163 157.623 20.6276 157.228 20.346C156.845 20.0643 156.383 19.9235 155.843 19.9235C155.516 19.9235 155.217 19.9742 154.947 20.0756C154.688 20.177 154.451 20.3234 154.237 20.515C154.034 20.7065 153.86 20.9374 153.713 21.2078C153.567 21.4782 153.454 21.7824 153.375 22.1204C153.308 22.4471 153.274 22.802 153.274 23.1851C153.274 23.8272 153.375 24.4018 153.578 24.9088C153.781 25.4045 154.074 25.7988 154.457 26.0918C154.84 26.3734 155.302 26.5142 155.843 26.5142ZM164.759 27.7817C163.88 27.7817 163.182 27.5451 162.663 27.0719C162.145 26.5987 161.886 25.9791 161.886 25.213C161.886 24.7285 161.999 24.3117 162.224 23.9624C162.449 23.6019 162.782 23.3034 163.221 23.0668C163.672 22.8302 164.218 22.6668 164.86 22.5767L166.821 22.2894C167.204 22.2331 167.446 22.126 167.547 21.9683C167.66 21.8106 167.716 21.6247 167.716 21.4106V21.3937C167.716 21.1008 167.649 20.8417 167.513 20.6164C167.378 20.391 167.17 20.2164 166.888 20.0925C166.618 19.9573 166.269 19.8897 165.84 19.8897C165.198 19.8897 164.708 20.0023 164.37 20.2277C164.032 20.4417 163.818 20.7572 163.728 21.174H162.19C162.246 20.6671 162.432 20.2277 162.748 19.8559C163.063 19.4728 163.48 19.1799 163.998 18.9771C164.528 18.7631 165.142 18.656 165.84 18.656C166.607 18.656 167.243 18.78 167.75 19.0278C168.257 19.2644 168.634 19.6024 168.882 20.0418C169.13 20.4812 169.254 20.9994 169.254 21.5965V27.562H167.801V25.5172L167.97 25.6186C167.756 26.1932 167.48 26.6382 167.142 26.9536C166.815 27.2578 166.449 27.4719 166.043 27.5958C165.638 27.7197 165.209 27.7817 164.759 27.7817ZM165.164 26.548C165.559 26.548 165.908 26.4805 166.212 26.3453C166.528 26.2101 166.798 26.0185 167.023 25.7707C167.249 25.5228 167.418 25.2243 167.53 24.875C167.654 24.5258 167.716 24.1427 167.716 23.7258V22.6612L168.105 22.9992C167.891 23.1118 167.688 23.1963 167.497 23.2527C167.316 23.2977 167.097 23.3428 166.837 23.3879L165.114 23.6752C164.607 23.754 164.201 23.9117 163.897 24.1483C163.604 24.3849 163.458 24.7173 163.458 25.1454C163.458 25.5735 163.61 25.9171 163.914 26.1763C164.229 26.4241 164.646 26.548 165.164 26.548ZM171.617 27.562V18.8757H173.155V20.853L173.002 20.684C173.183 20.222 173.419 19.8446 173.712 19.5517C174.016 19.2475 174.371 19.0222 174.777 18.8757C175.194 18.7293 175.639 18.656 176.112 18.656C176.585 18.656 177.013 18.7293 177.396 18.8757C177.791 19.0222 178.129 19.2419 178.41 19.5348C178.692 19.8277 178.906 20.1939 179.052 20.6333C179.21 21.0726 179.289 21.5796 179.289 22.1542V27.562H177.751V22.2556C177.751 21.7599 177.661 21.343 177.481 21.005C177.301 20.6558 177.053 20.3967 176.737 20.2277C176.422 20.0474 176.05 19.9573 175.622 19.9573C175.182 19.9573 174.771 20.0699 174.388 20.2953C174.016 20.5206 173.718 20.8304 173.493 21.2247C173.267 21.6078 173.155 22.0584 173.155 22.5767V27.562H171.617ZM185.318 27.7817C184.473 27.7817 183.735 27.5845 183.104 27.1902C182.484 26.7846 182 26.2382 181.651 25.551C181.313 24.8637 181.144 24.0864 181.144 23.2189C181.144 22.7006 181.206 22.2105 181.33 21.7486C181.454 21.2867 181.634 20.8699 181.87 20.4981C182.118 20.115 182.411 19.7883 182.749 19.5179C183.098 19.2475 183.487 19.0391 183.915 18.8926C184.355 18.7349 184.828 18.656 185.335 18.656C186.011 18.656 186.608 18.7743 187.126 19.0109C187.656 19.2362 188.089 19.563 188.427 19.9911C188.765 20.4192 188.979 20.9374 189.07 21.5458H187.498C187.419 21.1966 187.278 20.9036 187.075 20.6671C186.873 20.4192 186.619 20.2333 186.315 20.1094C186.022 19.9854 185.69 19.9235 185.318 19.9235C184.957 19.9235 184.636 19.9798 184.355 20.0925C184.073 20.2051 183.831 20.3629 183.628 20.5657C183.425 20.7572 183.256 20.9938 183.121 21.2754C182.986 21.5458 182.884 21.8444 182.817 22.1711C182.749 22.4978 182.715 22.8414 182.715 23.202C182.715 23.8103 182.806 24.368 182.986 24.875C183.177 25.3707 183.465 25.7707 183.848 26.0749C184.231 26.3678 184.721 26.5142 185.318 26.5142C185.881 26.5142 186.343 26.3903 186.704 26.1425C187.064 25.8833 187.323 25.4947 187.481 24.9764H189.053C188.951 25.5285 188.737 26.0185 188.41 26.4467C188.084 26.8635 187.661 27.1902 187.143 27.4268C186.625 27.6634 186.016 27.7817 185.318 27.7817ZM194.642 27.7817C193.797 27.7817 193.059 27.5902 192.428 27.2071C191.808 26.8128 191.33 26.272 190.992 25.5848C190.654 24.8975 190.485 24.1089 190.485 23.2189C190.485 22.6781 190.547 22.1767 190.671 21.7148C190.794 21.2529 190.975 20.8361 191.211 20.4643C191.448 20.0812 191.735 19.7545 192.073 19.4841C192.411 19.2137 192.794 19.0109 193.222 18.8757C193.662 18.7293 194.135 18.656 194.642 18.656C195.183 18.656 195.695 18.7405 196.18 18.9095C196.664 19.0785 197.087 19.3545 197.447 19.7376C197.819 20.1094 198.101 20.6107 198.292 21.2416C198.484 21.8725 198.551 22.6556 198.495 23.5907H191.583V22.4753H196.991C196.968 22.0359 196.895 21.6529 196.771 21.3261C196.659 20.9994 196.501 20.7347 196.298 20.5319C196.106 20.3178 195.87 20.1601 195.588 20.0587C195.318 19.9573 195.002 19.9066 194.642 19.9066C194.259 19.9066 193.921 19.9629 193.628 20.0756C193.335 20.177 193.087 20.3291 192.884 20.5319C192.693 20.7347 192.535 20.9712 192.411 21.2416C192.287 21.512 192.197 21.8162 192.141 22.1542C192.084 22.4922 192.056 22.8471 192.056 23.2189C192.056 23.8385 192.135 24.4018 192.293 24.9088C192.462 25.4045 192.732 25.7988 193.104 26.0918C193.487 26.3847 194 26.5311 194.642 26.5311C195.239 26.5311 195.729 26.4072 196.112 26.1594C196.506 25.9002 196.766 25.596 196.889 25.2468H198.444C198.365 25.6862 198.163 26.0974 197.836 26.4805C197.509 26.8635 197.075 27.179 196.535 27.4268C195.994 27.6634 195.363 27.7817 194.642 27.7817ZM205.024 27.562V15.4958H210.432C211.142 15.4958 211.767 15.6254 212.308 15.8845C212.849 16.1324 213.265 16.5042 213.558 16.9999C213.863 17.4956 214.015 18.1096 214.015 18.8419C214.015 19.394 213.913 19.8953 213.71 20.346C213.508 20.7854 213.232 21.1515 212.882 21.4444C212.544 21.7374 212.15 21.9345 211.699 22.0359L211.598 21.8162C212.004 21.9401 212.33 22.0697 212.578 22.2049C212.826 22.3401 213.023 22.5204 213.17 22.7457C213.316 22.971 213.446 23.2752 213.558 23.6583L214.708 27.562H212.984L211.97 23.9455C211.846 23.4836 211.643 23.1456 211.361 22.9316C211.08 22.7175 210.731 22.6105 210.314 22.6105H206.613V27.562H205.024ZM206.613 21.2754H210.111C210.584 21.2754 210.984 21.1797 211.311 20.9881C211.649 20.7966 211.908 20.5319 212.088 20.1939C212.268 19.8446 212.359 19.4447 212.359 18.994C212.359 18.3406 212.161 17.8167 211.767 17.4224C211.373 17.0281 210.826 16.8309 210.128 16.8309H206.613V21.2754ZM220.007 27.7817C219.162 27.7817 218.425 27.5902 217.794 27.2071C217.174 26.8128 216.695 26.272 216.357 25.5848C216.019 24.8975 215.85 24.1089 215.85 23.2189C215.85 22.6781 215.912 22.1767 216.036 21.7148C216.16 21.2529 216.34 20.8361 216.577 20.4643C216.813 20.0812 217.101 19.7545 217.439 19.4841C217.777 19.2137 218.16 19.0109 218.588 18.8757C219.027 18.7293 219.5 18.656 220.007 18.656C220.548 18.656 221.061 18.7405 221.545 18.9095C222.03 19.0785 222.452 19.3545 222.813 19.7376C223.185 20.1094 223.466 20.6107 223.658 21.2416C223.849 21.8725 223.917 22.6556 223.861 23.5907H216.949V22.4753H222.356C222.334 22.0359 222.261 21.6529 222.137 21.3261C222.024 20.9994 221.866 20.7347 221.664 20.5319C221.472 20.3178 221.235 20.1601 220.954 20.0587C220.683 19.9573 220.368 19.9066 220.007 19.9066C219.624 19.9066 219.286 19.9629 218.993 20.0756C218.701 20.177 218.453 20.3291 218.25 20.5319C218.058 20.7347 217.901 20.9712 217.777 21.2416C217.653 21.512 217.563 21.8162 217.506 22.1542C217.45 22.4922 217.422 22.8471 217.422 23.2189C217.422 23.8385 217.501 24.4018 217.658 24.9088C217.827 25.4045 218.098 25.7988 218.47 26.0918C218.853 26.3847 219.365 26.5311 220.007 26.5311C220.605 26.5311 221.095 26.4072 221.478 26.1594C221.872 25.9002 222.131 25.596 222.255 25.2468H223.81C223.731 25.6862 223.528 26.0974 223.201 26.4805C222.875 26.8635 222.441 27.179 221.9 27.4268C221.359 27.6634 220.729 27.7817 220.007 27.7817ZM225.797 30.7729V18.8757H227.335V20.7516L227.166 20.5657C227.369 20.1375 227.622 19.7827 227.926 19.501C228.242 19.2193 228.597 19.0109 228.991 18.8757C229.397 18.7293 229.825 18.656 230.275 18.656C231.008 18.656 231.656 18.8476 232.219 19.2306C232.782 19.6137 233.222 20.1488 233.537 20.8361C233.864 21.5233 234.027 22.3288 234.027 23.2527C234.027 23.7934 233.965 24.3004 233.841 24.7736C233.729 25.2355 233.56 25.6524 233.334 26.0242C233.109 26.396 232.839 26.7114 232.523 26.9705C232.219 27.2297 231.875 27.4268 231.492 27.562C231.12 27.7085 230.715 27.7817 230.275 27.7817C229.825 27.7817 229.397 27.7141 228.991 27.5789C228.597 27.4437 228.242 27.2353 227.926 26.9536C227.622 26.672 227.369 26.3171 227.166 25.889L227.335 25.7031V30.7729H225.797ZM229.853 26.5142C230.18 26.5142 230.478 26.4636 230.749 26.3622C231.019 26.2608 231.256 26.1143 231.458 25.9228C231.672 25.7312 231.853 25.5003 231.999 25.2299C232.146 24.9595 232.253 24.6609 232.32 24.3342C232.399 23.9962 232.439 23.6357 232.439 23.2527C232.439 22.5992 232.337 22.0246 232.134 21.5289C231.932 21.0332 231.633 20.6445 231.239 20.3629C230.856 20.0699 230.394 19.9235 229.853 19.9235C229.526 19.9235 229.228 19.9798 228.957 20.0925C228.687 20.1939 228.445 20.346 228.231 20.5488C228.028 20.7403 227.853 20.9712 227.707 21.2416C227.56 21.512 227.448 21.8162 227.369 22.1542C227.29 22.4922 227.25 22.8527 227.25 23.2358C227.25 23.8667 227.352 24.43 227.555 24.9257C227.769 25.4214 228.067 25.8101 228.45 26.0918C228.845 26.3734 229.312 26.5142 229.853 26.5142ZM239.614 27.7817C238.746 27.7817 237.997 27.5845 237.366 27.1902C236.747 26.7959 236.268 26.2551 235.93 25.5679C235.603 24.8806 235.44 24.0976 235.44 23.2189C235.44 22.6894 235.502 22.1936 235.626 21.7317C235.749 21.2698 235.924 20.853 236.149 20.4812C236.386 20.0981 236.673 19.7714 237.011 19.501C237.349 19.2306 237.738 19.0222 238.177 18.8757C238.617 18.7293 239.096 18.656 239.614 18.656C240.493 18.656 241.242 18.8532 241.861 19.2475C242.492 19.6418 242.971 20.1826 243.298 20.8699C243.636 21.5458 243.805 22.3288 243.805 23.2189C243.805 23.7484 243.743 24.2441 243.619 24.706C243.495 25.1679 243.315 25.5904 243.078 25.9735C242.842 26.3453 242.554 26.6663 242.216 26.9367C241.878 27.2071 241.49 27.4156 241.05 27.562C240.622 27.7085 240.143 27.7817 239.614 27.7817ZM239.614 26.5142C239.963 26.5142 240.279 26.4636 240.56 26.3622C240.842 26.2495 241.084 26.0974 241.287 25.9059C241.501 25.7143 241.676 25.4834 241.811 25.213C241.957 24.9313 242.064 24.6215 242.132 24.2835C242.199 23.9455 242.233 23.585 242.233 23.202C242.233 22.5485 242.137 21.9796 241.946 21.4951C241.754 20.9994 241.461 20.6164 241.067 20.346C240.684 20.0643 240.2 19.9235 239.614 19.9235C239.265 19.9235 238.949 19.9742 238.667 20.0756C238.386 20.177 238.138 20.3234 237.924 20.515C237.721 20.7065 237.552 20.9374 237.417 21.2078C237.282 21.4782 237.18 21.7824 237.113 22.1204C237.045 22.4471 237.011 22.8076 237.011 23.202C237.011 23.8441 237.107 24.4187 237.299 24.9257C237.49 25.4214 237.777 25.8101 238.16 26.0918C238.544 26.3734 239.028 26.5142 239.614 26.5142ZM245.733 27.562V18.8757H247.271V21.3092L247.119 21.2754C247.299 20.6445 247.519 20.1544 247.778 19.8052C248.037 19.4559 248.336 19.2137 248.674 19.0785C249.023 18.9433 249.406 18.8757 249.823 18.8757H250.364V20.3967H249.704C249.197 20.3967 248.758 20.515 248.386 20.7516C248.026 20.9769 247.75 21.3036 247.558 21.7317C247.367 22.1598 247.271 22.6725 247.271 23.2696V27.562H245.733ZM255.079 27.562C254.425 27.562 253.885 27.3818 253.457 27.0212C253.04 26.6494 252.831 26.103 252.831 25.382V16.5267H254.369V25.1961C254.369 25.5679 254.476 25.8495 254.69 26.0411C254.904 26.2326 255.186 26.3284 255.535 26.3284H256.498V27.562H255.079ZM251.141 20.0925V18.8757H253.102V20.0925H251.141ZM254.099 20.0925V18.8757H256.498V20.0925H254.099ZM261.423 27.7817C260.86 27.7817 260.353 27.7141 259.902 27.5789C259.451 27.455 259.063 27.2747 258.736 27.0381C258.409 26.8015 258.15 26.5142 257.958 26.1763C257.778 25.827 257.671 25.444 257.637 25.0271H259.175C259.243 25.3651 259.372 25.6467 259.564 25.8721C259.755 26.0974 260.009 26.2664 260.324 26.3791C260.64 26.4917 261.017 26.548 261.457 26.548C261.851 26.548 262.189 26.4973 262.471 26.396C262.764 26.2833 262.989 26.1256 263.147 25.9228C263.304 25.72 263.383 25.4778 263.383 25.1961C263.383 24.8694 263.259 24.599 263.011 24.3849C262.775 24.1596 262.437 24.0075 261.997 23.9286L260.308 23.5907C259.496 23.4217 258.888 23.14 258.482 22.7457C258.077 22.3401 257.874 21.8162 257.874 21.174C257.874 20.8135 257.953 20.4812 258.111 20.177C258.268 19.8728 258.494 19.608 258.787 19.3827C259.079 19.1461 259.429 18.9659 259.834 18.8419C260.251 18.718 260.713 18.656 261.22 18.656C261.874 18.656 262.459 18.7518 262.978 18.9433C263.496 19.1236 263.913 19.3996 264.228 19.7714C264.544 20.1319 264.73 20.5882 264.786 21.1402H263.231C263.175 20.8811 263.056 20.6614 262.876 20.4812C262.707 20.2896 262.482 20.1432 262.2 20.0418C261.919 19.9404 261.586 19.8897 261.203 19.8897C260.843 19.8897 260.522 19.9404 260.24 20.0418C259.97 20.1432 259.755 20.2896 259.598 20.4812C259.44 20.6614 259.361 20.8811 259.361 21.1402C259.361 21.4895 259.491 21.7486 259.75 21.9176C260.02 22.0866 260.33 22.2049 260.679 22.2725L262.454 22.6105C262.871 22.6894 263.265 22.8245 263.637 23.0161C264.02 23.2076 264.33 23.4724 264.566 23.8103C264.803 24.1483 264.921 24.5765 264.921 25.0947C264.921 25.5003 264.837 25.8721 264.668 26.2101C264.499 26.5368 264.256 26.8184 263.941 27.055C263.637 27.2804 263.271 27.455 262.842 27.5789C262.414 27.7141 261.941 27.7817 261.423 27.7817Z" fill="#141A2A"/>
<g filter="url(#filter0_ddddd_178_1253)">
<rect x="80" y="75" width="41.1242" height="41.1242" rx="8.4497" fill="white"/>
<rect x="80.5281" y="75.5281" width="40.068" height="40.068" rx="7.92159" stroke="#DBE1E5" stroke-width="1.05621"/>
<g clip-path="url(#clip0_178_1253)">
<path d="M106.395 86.3955H94.7287C92.4312 86.3955 90.562 88.2647 90.562 90.5622V100.562C90.562 102.86 92.4312 104.729 94.7287 104.729H106.395C108.693 104.729 110.562 102.86 110.562 100.562V90.5622C110.562 88.2647 108.693 86.3955 106.395 86.3955ZM94.7287 88.0622H106.395C107.774 88.0622 108.895 89.1838 108.895 90.5622V92.2288H92.2287V90.5622C92.2287 89.1838 93.3503 88.0622 94.7287 88.0622ZM106.395 103.062H94.7287C93.3503 103.062 92.2287 101.941 92.2287 100.562V93.8955H108.895V100.562C108.895 101.941 107.774 103.062 106.395 103.062ZM93.062 90.1455C93.062 89.4555 93.622 88.8955 94.312 88.8955C95.002 88.8955 95.562 89.4555 95.562 90.1455C95.562 90.8355 95.002 91.3955 94.312 91.3955C93.622 91.3955 93.062 90.8355 93.062 90.1455ZM96.3953 90.1455C96.3953 89.4555 96.9553 88.8955 97.6453 88.8955C98.3353 88.8955 98.8953 89.4555 98.8953 90.1455C98.8953 90.8355 98.3353 91.3955 97.6453 91.3955C96.9553 91.3955 96.3953 90.8355 96.3953 90.1455ZM98.062 98.8955V100.562C98.062 101.023 97.6887 101.396 97.2287 101.396C96.7687 101.396 96.3953 101.023 96.3953 100.562V98.8955C96.3953 98.4347 96.7687 98.0622 97.2287 98.0622C97.6887 98.0622 98.062 98.4347 98.062 98.8955ZM101.395 96.3955V100.562C101.395 101.023 101.022 101.396 100.562 101.396C100.102 101.396 99.7287 101.023 99.7287 100.562V96.3955C99.7287 95.9347 100.102 95.5622 100.562 95.5622C101.022 95.5622 101.395 95.9347 101.395 96.3955ZM104.729 98.0622V100.562C104.729 101.023 104.355 101.396 103.895 101.396C103.435 101.396 103.062 101.023 103.062 100.562V98.0622C103.062 97.6013 103.435 97.2288 103.895 97.2288C104.355 97.2288 104.729 97.6013 104.729 98.0622Z" fill="#7D7D7D"/>
</g>
</g>
<path d="M188.062 45.124C188.062 44.8479 187.838 44.624 187.562 44.624C187.286 44.624 187.062 44.8479 187.062 45.124H187.562H188.062ZM100.208 72.3533C100.404 72.5486 100.72 72.5486 100.916 72.3533L104.098 69.1714C104.293 68.9761 104.293 68.6595 104.098 68.4642C103.902 68.269 103.586 68.269 103.39 68.4642L100.562 71.2927L97.7336 68.4642C97.5383 68.269 97.2217 68.269 97.0265 68.4642C96.8312 68.6595 96.8312 68.9761 97.0265 69.1714L100.208 72.3533ZM174.124 58.5619V58.0619H114V58.5619V59.0619H174.124V58.5619ZM114 58.5619V58.0619C106.302 58.0619 100.062 64.3021 100.062 71.9998H100.562H101.062C101.062 64.8544 106.854 59.0619 114 59.0619V58.5619ZM187.562 45.124H187.062C187.062 52.2694 181.27 58.0619 174.124 58.0619V58.5619V59.0619C181.822 59.0619 188.062 52.8217 188.062 45.124H187.562Z" fill="#3BA4E8"/>
<g filter="url(#filter1_ddddd_178_1253)">
<rect x="134" y="96" width="41.1242" height="41.1242" rx="8.4497" fill="white"/>
<rect x="134.528" y="96.5281" width="40.068" height="40.068" rx="7.92159" stroke="#DBE1E5" stroke-width="1.05621"/>
<g clip-path="url(#clip1_178_1253)">
<path d="M149.562 119.062C150.023 119.062 150.395 119.435 150.395 119.895V122.395C150.395 122.855 150.023 123.229 149.562 123.229C149.101 123.229 148.729 122.855 148.729 122.395V119.895C148.729 119.435 149.101 119.062 149.562 119.062ZM152.895 115.729C152.435 115.729 152.062 116.102 152.062 116.562V122.395C152.062 122.855 152.435 123.229 152.895 123.229C153.356 123.229 153.729 122.855 153.729 122.395V116.562C153.729 116.102 153.356 115.729 152.895 115.729ZM164.562 124.756C164.562 125.904 163.195 126.562 160.812 126.562C158.43 126.562 157.062 125.904 157.062 124.756V118.645C157.062 117.91 158.604 117.395 160.812 117.395C163.02 117.395 164.562 117.91 164.562 118.645V124.756ZM160.812 119.895C160.015 119.895 159.31 119.826 158.729 119.706V121.18C158.936 121.318 159.559 121.562 160.812 121.562C162.045 121.562 162.676 121.304 162.895 121.155V119.707C162.314 119.827 161.609 119.895 160.812 119.895ZM162.895 124.568V122.953C162.344 123.12 161.662 123.229 160.812 123.229C159.945 123.229 159.27 123.123 158.729 122.961V124.568C158.975 124.701 159.657 124.895 160.812 124.895C161.967 124.895 162.649 124.701 162.895 124.568ZM155.395 114.895C154.017 114.895 152.895 113.774 152.895 112.395V108.268C152.76 108.255 152.628 108.229 152.491 108.229H148.729C147.35 108.229 146.229 109.35 146.229 110.729V122.395C146.229 123.774 147.35 124.895 148.729 124.895H154.562C155.023 124.895 155.395 125.269 155.395 125.729C155.395 126.189 155.023 126.562 154.562 126.562H148.729C146.431 126.562 144.562 124.693 144.562 122.395V110.729C144.562 108.431 146.431 106.562 148.729 106.562H152.491C154.049 106.562 155.514 107.169 156.616 108.27L159.52 111.175C160.497 112.152 161.098 113.45 161.21 114.828C161.247 115.286 160.905 115.689 160.446 115.726C159.958 115.773 159.56 115.378 159.536 114.895H155.395H155.395ZM155.395 113.229H158.992C158.81 112.914 158.602 112.614 158.341 112.354L155.438 109.45C155.175 109.187 154.875 108.98 154.562 108.799V112.395C154.562 112.855 154.935 113.229 155.395 113.229Z" fill="#7D7D7D"/>
</g>
</g>
<path d="M188.062 45.124C188.062 44.8479 187.838 44.624 187.562 44.624C187.286 44.624 187.062 44.8479 187.062 45.124H187.562H188.062ZM154.208 93.3533C154.404 93.5486 154.72 93.5486 154.916 93.3533L158.098 90.1714C158.293 89.9761 158.293 89.6595 158.098 89.4642C157.902 89.269 157.586 89.269 157.39 89.4642L154.562 92.2927L151.734 89.4642C151.538 89.269 151.222 89.269 151.026 89.4642C150.831 89.6595 150.831 89.9761 151.026 90.1714L154.208 93.3533ZM187.562 45.124H187.062V52.5619H187.562H188.062V45.124H187.562ZM154.562 85.5619H154.062V92.9998H154.562H155.062V85.5619H154.562ZM171.062 69.0619V68.5619C161.673 68.5619 154.062 76.1731 154.062 85.5619H154.562H155.062C155.062 76.7253 162.225 69.5619 171.062 69.5619V69.0619ZM187.562 52.5619H187.062C187.062 61.3985 179.899 68.5619 171.062 68.5619V69.0619V69.5619C180.451 69.5619 188.062 61.9507 188.062 52.5619H187.562Z" fill="#3BA4E8"/>
<g filter="url(#filter2_ddddd_178_1253)">
<rect x="196" y="96" width="41.1242" height="41.1242" rx="8.4497" fill="white"/>
<rect x="196.528" y="96.5281" width="40.068" height="40.068" rx="7.92159" stroke="#DBE1E5" stroke-width="1.05621"/>
<g clip-path="url(#clip2_178_1253)">
<path d="M222.395 106.562H214.895C212.598 106.562 210.729 108.431 210.729 110.729V111.562H210.312C208.245 111.562 206.562 113.245 206.562 115.312V123.645C206.562 125.253 207.87 126.561 209.478 126.562H222.395C224.693 126.562 226.562 124.693 226.562 122.395V110.729C226.562 108.431 224.693 106.562 222.395 106.562ZM210.729 123.645C210.729 124.335 210.168 124.895 209.479 124.895C208.79 124.895 208.229 124.335 208.229 123.645V115.312C208.229 114.164 209.164 113.229 210.312 113.229H210.729V123.645ZM224.895 122.395C224.895 123.774 223.774 124.895 222.395 124.895H212.114C212.294 124.516 212.395 124.093 212.395 123.645V110.729C212.395 109.35 213.517 108.229 214.895 108.229H222.395C223.774 108.229 224.895 109.35 224.895 110.729V122.395ZM223.229 112.395C223.229 112.855 222.855 113.229 222.395 113.229H219.895C219.435 113.229 219.062 112.855 219.062 112.395C219.062 111.935 219.435 111.562 219.895 111.562H222.395C222.855 111.562 223.229 111.935 223.229 112.395ZM223.229 115.729C223.229 116.189 222.855 116.562 222.395 116.562H214.895C214.435 116.562 214.062 116.189 214.062 115.729C214.062 115.269 214.435 114.895 214.895 114.895H222.395C222.855 114.895 223.229 115.269 223.229 115.729ZM223.229 119.062C223.229 119.522 222.855 119.895 222.395 119.895H214.895C214.435 119.895 214.062 119.522 214.062 119.062C214.062 118.602 214.435 118.229 214.895 118.229H222.395C222.855 118.229 223.229 118.602 223.229 119.062ZM223.229 122.395C223.229 122.855 222.855 123.229 222.395 123.229H214.895C214.435 123.229 214.062 122.855 214.062 122.395C214.062 121.935 214.435 121.562 214.895 121.562H222.395C222.855 121.562 223.229 121.935 223.229 122.395ZM214.062 112.395V110.729C214.062 110.269 214.435 109.895 214.895 109.895H216.562C217.022 109.895 217.395 110.269 217.395 110.729V112.395C217.395 112.855 217.022 113.229 216.562 113.229H214.895C214.435 113.229 214.062 112.855 214.062 112.395Z" fill="#7D7D7D"/>
</g>
</g>
<path d="M188.062 45.124C188.062 44.8479 187.838 44.624 187.562 44.624C187.286 44.624 187.062 44.8479 187.062 45.124H187.562H188.062ZM216.208 93.3533C216.404 93.5486 216.72 93.5486 216.916 93.3533L220.098 90.1714C220.293 89.9761 220.293 89.6595 220.098 89.4642C219.902 89.269 219.586 89.269 219.39 89.4642L216.562 92.2927L213.734 89.4642C213.538 89.269 213.222 89.269 213.026 89.4642C212.831 89.6595 212.831 89.9761 213.026 90.1714L216.208 93.3533ZM187.562 45.124H187.062V54.5619H187.562H188.062V45.124H187.562ZM216.562 83.5619H216.062V92.9998H216.562H217.062V83.5619H216.562ZM202.062 69.0619V69.5619C209.794 69.5619 216.062 75.8299 216.062 83.5619H216.562H217.062C217.062 75.2776 210.346 68.5619 202.062 68.5619V69.0619ZM187.562 54.5619H187.062C187.062 62.8462 193.778 69.5619 202.062 69.5619V69.0619V68.5619C194.33 68.5619 188.062 62.2939 188.062 54.5619H187.562Z" fill="#3BA4E8"/>
<g filter="url(#filter3_ddddd_178_1253)">
<rect x="250" y="75" width="41.1242" height="41.1242" rx="8.4497" fill="white"/>
<rect x="250.528" y="75.5281" width="40.068" height="40.068" rx="7.92159" stroke="#DBE1E5" stroke-width="1.05621"/>
<g clip-path="url(#clip3_178_1253)">
<path d="M274.729 85.562H269.729C267.431 85.562 265.562 87.4312 265.562 89.7287V98.062C265.562 100.36 267.431 102.229 269.729 102.229H274.729C277.026 102.229 278.895 100.36 278.895 98.062V89.7287C278.895 87.4312 277.026 85.562 274.729 85.562ZM277.229 98.062C277.229 99.4403 276.107 100.562 274.729 100.562H269.729C268.35 100.562 267.229 99.4403 267.229 98.062V89.7287C267.229 88.3503 268.35 87.2287 269.729 87.2287H274.729C276.107 87.2287 277.229 88.3503 277.229 89.7287V98.062ZM274.729 104.729C274.729 105.19 274.355 105.562 273.895 105.562H266.395C264.098 105.562 262.229 103.693 262.229 101.395V91.3953C262.229 90.9345 262.602 90.562 263.062 90.562C263.522 90.562 263.895 90.9345 263.895 91.3953V101.395C263.895 102.774 265.017 103.895 266.395 103.895H273.895C274.355 103.895 274.729 104.268 274.729 104.729ZM270.562 97.2287V98.062C270.562 98.5228 270.189 98.8953 269.729 98.8953C269.269 98.8953 268.895 98.5228 268.895 98.062V97.2287C268.895 96.7678 269.269 96.3953 269.729 96.3953C270.189 96.3953 270.562 96.7678 270.562 97.2287ZM275.562 96.3953V98.062C275.562 98.5228 275.189 98.8953 274.729 98.8953C274.269 98.8953 273.895 98.5228 273.895 98.062V96.3953C273.895 95.9345 274.269 95.562 274.729 95.562C275.189 95.562 275.562 95.9345 275.562 96.3953ZM273.062 95.562V98.062C273.062 98.5228 272.689 98.8953 272.229 98.8953C271.769 98.8953 271.395 98.5228 271.395 98.062V95.562C271.395 95.1012 271.769 94.7287 272.229 94.7287C272.689 94.7287 273.062 95.1012 273.062 95.562ZM275.562 89.7287V91.6478C275.562 92.1645 274.937 92.4237 274.572 92.0578L274.075 91.5612L272.818 92.8187C272.655 92.9812 272.442 93.0628 272.229 93.0628C272.015 93.0628 271.802 92.9812 271.64 92.8187L270.979 92.1578L270.318 92.8187C269.992 93.1445 269.465 93.1445 269.14 92.8187C268.814 92.4928 268.814 91.9662 269.14 91.6403L270.39 90.3903C270.715 90.0645 271.242 90.0645 271.568 90.3903L272.229 91.0512L272.897 90.3828L272.4 89.8862C272.035 89.5212 272.294 88.8962 272.81 88.8962H274.73C275.19 88.8962 275.563 89.2695 275.563 89.7295L275.562 89.7287Z" fill="#7D7D7D"/>
</g>
</g>
<path d="M188.062 45.124C188.062 44.8479 187.838 44.624 187.562 44.624C187.286 44.624 187.062 44.8479 187.062 45.124H187.562H188.062ZM270.208 72.3533C270.404 72.5486 270.72 72.5486 270.916 72.3533L274.098 69.1714C274.293 68.9761 274.293 68.6595 274.098 68.4642C273.902 68.269 273.586 68.269 273.39 68.4642L270.562 71.2927L267.734 68.4642C267.538 68.269 267.222 68.269 267.026 68.4642C266.831 68.6595 266.831 68.9761 267.026 69.1714L270.208 72.3533ZM201 58.5619V59.0619H257.124V58.5619V58.0619H201V58.5619ZM257.124 58.5619V59.0619C264.27 59.0619 270.062 64.8544 270.062 71.9998H270.562H271.062C271.062 64.3021 264.822 58.0619 257.124 58.0619V58.5619ZM187.562 45.124H187.062C187.062 52.8217 193.302 59.0619 201 59.0619V58.5619V58.0619C193.854 58.0619 188.062 52.2694 188.062 45.124H187.562Z" fill="#3BA4E8"/>
<rect x="384.528" y="86.5281" width="139.068" height="41.068" rx="7.92159" fill="#F8FBFB"/>
<rect x="384.528" y="86.5281" width="139.068" height="41.068" rx="7.92159" stroke="#DBE1E5" stroke-width="1.05621"/>
<path d="M395.982 113.562V101.496H401.204C401.756 101.496 402.263 101.586 402.725 101.766C403.186 101.935 403.581 102.183 403.908 102.51C404.245 102.825 404.505 103.208 404.685 103.659C404.876 104.11 404.972 104.611 404.972 105.163C404.972 105.715 404.876 106.216 404.685 106.667C404.505 107.106 404.245 107.489 403.908 107.816C403.581 108.132 403.186 108.374 402.725 108.543C402.263 108.712 401.756 108.796 401.204 108.796H397.57V113.562H395.982ZM397.57 107.478H400.899C401.418 107.478 401.851 107.382 402.201 107.191C402.561 106.999 402.837 106.729 403.029 106.38C403.22 106.031 403.316 105.625 403.316 105.163C403.316 104.453 403.102 103.89 402.674 103.473C402.257 103.045 401.666 102.831 400.899 102.831H397.57V107.478ZM408.824 113.782C407.945 113.782 407.247 113.545 406.729 113.072C406.21 112.599 405.951 111.979 405.951 111.213C405.951 110.729 406.064 110.312 406.289 109.962C406.514 109.602 406.847 109.303 407.286 109.067C407.737 108.83 408.283 108.667 408.925 108.577L410.886 108.289C411.269 108.233 411.511 108.126 411.612 107.968C411.725 107.811 411.781 107.625 411.781 107.411V107.394C411.781 107.101 411.714 106.842 411.579 106.616C411.443 106.391 411.235 106.216 410.953 106.092C410.683 105.957 410.334 105.89 409.906 105.89C409.263 105.89 408.773 106.002 408.435 106.228C408.097 106.442 407.883 106.757 407.793 107.174H406.255C406.312 106.667 406.498 106.228 406.813 105.856C407.128 105.473 407.545 105.18 408.064 104.977C408.593 104.763 409.207 104.656 409.906 104.656C410.672 104.656 411.308 104.78 411.815 105.028C412.322 105.264 412.7 105.602 412.947 106.042C413.195 106.481 413.319 106.999 413.319 107.597V113.562H411.866V111.517L412.035 111.619C411.821 112.193 411.545 112.638 411.207 112.954C410.88 113.258 410.514 113.472 410.108 113.596C409.703 113.72 409.275 113.782 408.824 113.782ZM409.23 112.548C409.624 112.548 409.973 112.48 410.277 112.345C410.593 112.21 410.863 112.019 411.089 111.771C411.314 111.523 411.483 111.224 411.596 110.875C411.719 110.526 411.781 110.143 411.781 109.726V108.661L412.17 108.999C411.956 109.112 411.753 109.196 411.562 109.253C411.381 109.298 411.162 109.343 410.903 109.388L409.179 109.675C408.672 109.754 408.266 109.912 407.962 110.148C407.669 110.385 407.523 110.717 407.523 111.145C407.523 111.574 407.675 111.917 407.979 112.176C408.295 112.424 408.711 112.548 409.23 112.548ZM414.862 116.773V115.539H415.893C416.321 115.539 416.67 115.443 416.94 115.252C417.222 115.072 417.442 114.773 417.599 114.356L418.208 112.802L418.225 114.153L414.405 104.876H416.062L419.019 112.362L418.411 112.345L421.165 104.876H422.669L418.782 114.931C418.546 115.562 418.202 116.024 417.752 116.317C417.312 116.621 416.721 116.773 415.977 116.773H414.862ZM424.165 113.562V104.876H425.702V107.309L425.55 107.275C425.731 106.645 425.95 106.154 426.209 105.805C426.469 105.456 426.767 105.214 427.105 105.079C427.454 104.943 427.837 104.876 428.254 104.876H428.795V106.397H428.136C427.629 106.397 427.19 106.515 426.818 106.752C426.457 106.977 426.181 107.304 425.99 107.732C425.798 108.16 425.702 108.672 425.702 109.27V113.562H424.165ZM433.855 113.782C432.988 113.782 432.239 113.585 431.608 113.19C430.988 112.796 430.509 112.255 430.171 111.568C429.845 110.881 429.681 110.098 429.681 109.219C429.681 108.689 429.743 108.194 429.867 107.732C429.991 107.27 430.166 106.853 430.391 106.481C430.628 106.098 430.915 105.771 431.253 105.501C431.591 105.231 431.98 105.022 432.419 104.876C432.858 104.729 433.337 104.656 433.855 104.656C434.734 104.656 435.483 104.853 436.103 105.248C436.734 105.642 437.213 106.183 437.54 106.87C437.878 107.546 438.047 108.329 438.047 109.219C438.047 109.748 437.985 110.244 437.861 110.706C437.737 111.168 437.556 111.59 437.32 111.973C437.083 112.345 436.796 112.666 436.458 112.937C436.12 113.207 435.731 113.416 435.292 113.562C434.864 113.708 434.385 113.782 433.855 113.782ZM433.855 112.514C434.205 112.514 434.52 112.464 434.802 112.362C435.083 112.249 435.326 112.097 435.529 111.906C435.743 111.714 435.917 111.483 436.052 111.213C436.199 110.931 436.306 110.622 436.373 110.284C436.441 109.946 436.475 109.585 436.475 109.202C436.475 108.549 436.379 107.98 436.188 107.495C435.996 106.999 435.703 106.616 435.309 106.346C434.926 106.064 434.441 105.923 433.855 105.923C433.506 105.923 433.191 105.974 432.909 106.076C432.627 106.177 432.38 106.323 432.166 106.515C431.963 106.706 431.794 106.937 431.659 107.208C431.523 107.478 431.422 107.782 431.354 108.12C431.287 108.447 431.253 108.808 431.253 109.202C431.253 109.844 431.349 110.419 431.54 110.926C431.732 111.421 432.019 111.81 432.402 112.092C432.785 112.373 433.27 112.514 433.855 112.514ZM439.975 113.562V101.496H441.513V113.562H439.975ZM443.952 113.562V101.496H445.49V113.562H443.952ZM452.522 113.562V101.496H457.93C458.64 101.496 459.265 101.625 459.806 101.885C460.346 102.132 460.763 102.504 461.056 103C461.36 103.496 461.513 104.11 461.513 104.842C461.513 105.394 461.411 105.895 461.208 106.346C461.006 106.785 460.73 107.152 460.38 107.444C460.042 107.737 459.648 107.935 459.197 108.036L459.096 107.816C459.502 107.94 459.828 108.07 460.076 108.205C460.324 108.34 460.521 108.52 460.668 108.746C460.814 108.971 460.944 109.275 461.056 109.658L462.205 113.562H460.482L459.468 109.946C459.344 109.484 459.141 109.146 458.859 108.932C458.578 108.718 458.228 108.61 457.812 108.61H454.111V113.562H452.522ZM454.111 107.275H457.609C458.082 107.275 458.482 107.18 458.809 106.988C459.147 106.797 459.406 106.532 459.586 106.194C459.766 105.845 459.856 105.445 459.856 104.994C459.856 104.341 459.659 103.817 459.265 103.422C458.871 103.028 458.324 102.831 457.626 102.831H454.111V107.275ZM467.505 113.782C466.66 113.782 465.922 113.59 465.292 113.207C464.672 112.813 464.193 112.272 463.855 111.585C463.517 110.898 463.348 110.109 463.348 109.219C463.348 108.678 463.41 108.177 463.534 107.715C463.658 107.253 463.838 106.836 464.075 106.464C464.311 106.081 464.599 105.754 464.937 105.484C465.275 105.214 465.658 105.011 466.086 104.876C466.525 104.729 466.998 104.656 467.505 104.656C468.046 104.656 468.559 104.741 469.043 104.91C469.528 105.079 469.95 105.355 470.311 105.738C470.682 106.109 470.964 106.611 471.156 107.242C471.347 107.873 471.415 108.656 471.358 109.591H464.447V108.475H469.854C469.832 108.036 469.759 107.653 469.635 107.326C469.522 106.999 469.364 106.735 469.161 106.532C468.97 106.318 468.733 106.16 468.452 106.059C468.181 105.957 467.866 105.907 467.505 105.907C467.122 105.907 466.784 105.963 466.491 106.076C466.198 106.177 465.951 106.329 465.748 106.532C465.556 106.735 465.399 106.971 465.275 107.242C465.151 107.512 465.061 107.816 465.004 108.154C464.948 108.492 464.92 108.847 464.92 109.219C464.92 109.839 464.999 110.402 465.156 110.909C465.325 111.405 465.596 111.799 465.968 112.092C466.351 112.385 466.863 112.531 467.505 112.531C468.102 112.531 468.593 112.407 468.976 112.159C469.37 111.9 469.629 111.596 469.753 111.247H471.308C471.229 111.686 471.026 112.097 470.699 112.48C470.373 112.864 469.939 113.179 469.398 113.427C468.857 113.663 468.226 113.782 467.505 113.782ZM473.295 116.773V104.876H474.833V106.752L474.664 106.566C474.867 106.138 475.12 105.783 475.424 105.501C475.74 105.219 476.095 105.011 476.489 104.876C476.895 104.729 477.323 104.656 477.773 104.656C478.506 104.656 479.153 104.848 479.717 105.231C480.28 105.614 480.719 106.149 481.035 106.836C481.362 107.523 481.525 108.329 481.525 109.253C481.525 109.793 481.463 110.3 481.339 110.774C481.226 111.236 481.057 111.652 480.832 112.024C480.607 112.396 480.336 112.711 480.021 112.971C479.717 113.23 479.373 113.427 478.99 113.562C478.618 113.708 478.213 113.782 477.773 113.782C477.323 113.782 476.895 113.714 476.489 113.579C476.095 113.444 475.74 113.235 475.424 112.954C475.12 112.672 474.867 112.317 474.664 111.889L474.833 111.703V116.773H473.295ZM477.351 112.514C477.678 112.514 477.976 112.464 478.246 112.362C478.517 112.261 478.753 112.114 478.956 111.923C479.17 111.731 479.351 111.5 479.497 111.23C479.644 110.96 479.751 110.661 479.818 110.334C479.897 109.996 479.936 109.636 479.936 109.253C479.936 108.599 479.835 108.025 479.632 107.529C479.429 107.033 479.131 106.645 478.737 106.363C478.354 106.07 477.892 105.923 477.351 105.923C477.024 105.923 476.726 105.98 476.455 106.092C476.185 106.194 475.943 106.346 475.728 106.549C475.526 106.74 475.351 106.971 475.205 107.242C475.058 107.512 474.945 107.816 474.867 108.154C474.788 108.492 474.748 108.853 474.748 109.236C474.748 109.867 474.85 110.43 475.053 110.926C475.267 111.421 475.565 111.81 475.948 112.092C476.342 112.373 476.81 112.514 477.351 112.514ZM487.112 113.782C486.244 113.782 485.495 113.585 484.864 113.19C484.244 112.796 483.766 112.255 483.428 111.568C483.101 110.881 482.938 110.098 482.938 109.219C482.938 108.689 482.999 108.194 483.123 107.732C483.247 107.27 483.422 106.853 483.647 106.481C483.884 106.098 484.171 105.771 484.509 105.501C484.847 105.231 485.236 105.022 485.675 104.876C486.115 104.729 486.593 104.656 487.112 104.656C487.99 104.656 488.74 104.853 489.359 105.248C489.99 105.642 490.469 106.183 490.796 106.87C491.134 107.546 491.303 108.329 491.303 109.219C491.303 109.748 491.241 110.244 491.117 110.706C490.993 111.168 490.813 111.59 490.576 111.973C490.339 112.345 490.052 112.666 489.714 112.937C489.376 113.207 488.988 113.416 488.548 113.562C488.12 113.708 487.641 113.782 487.112 113.782ZM487.112 112.514C487.461 112.514 487.776 112.464 488.058 112.362C488.34 112.249 488.582 112.097 488.785 111.906C488.999 111.714 489.173 111.483 489.309 111.213C489.455 110.931 489.562 110.622 489.63 110.284C489.697 109.946 489.731 109.585 489.731 109.202C489.731 108.549 489.635 107.98 489.444 107.495C489.252 106.999 488.959 106.616 488.565 106.346C488.182 106.064 487.698 105.923 487.112 105.923C486.762 105.923 486.447 105.974 486.165 106.076C485.884 106.177 485.636 106.323 485.422 106.515C485.219 106.706 485.05 106.937 484.915 107.208C484.78 107.478 484.678 107.782 484.611 108.12C484.543 108.447 484.509 108.808 484.509 109.202C484.509 109.844 484.605 110.419 484.796 110.926C484.988 111.421 485.275 111.81 485.658 112.092C486.041 112.373 486.526 112.514 487.112 112.514ZM493.231 113.562V104.876H494.769V107.309L494.617 107.275C494.797 106.645 495.017 106.154 495.276 105.805C495.535 105.456 495.833 105.214 496.171 105.079C496.521 104.943 496.904 104.876 497.321 104.876H497.861V106.397H497.202C496.695 106.397 496.256 106.515 495.884 106.752C495.524 106.977 495.248 107.304 495.056 107.732C494.865 108.16 494.769 108.672 494.769 109.27V113.562H493.231ZM502.577 113.562C501.923 113.562 501.383 113.382 500.954 113.021C500.538 112.649 500.329 112.103 500.329 111.382V102.527H501.867V111.196C501.867 111.568 501.974 111.85 502.188 112.041C502.402 112.233 502.684 112.328 503.033 112.328H503.996V113.562H502.577ZM498.639 106.092V104.876H500.6V106.092H498.639ZM501.597 106.092V104.876H503.996V106.092H501.597ZM508.921 113.782C508.357 113.782 507.85 113.714 507.4 113.579C506.949 113.455 506.56 113.275 506.234 113.038C505.907 112.802 505.648 112.514 505.456 112.176C505.276 111.827 505.169 111.444 505.135 111.027H506.673C506.741 111.365 506.87 111.647 507.062 111.872C507.253 112.097 507.507 112.266 507.822 112.379C508.138 112.492 508.515 112.548 508.955 112.548C509.349 112.548 509.687 112.497 509.969 112.396C510.261 112.283 510.487 112.126 510.644 111.923C510.802 111.72 510.881 111.478 510.881 111.196C510.881 110.869 510.757 110.599 510.509 110.385C510.273 110.16 509.935 110.008 509.495 109.929L507.805 109.591C506.994 109.422 506.386 109.14 505.98 108.746C505.575 108.34 505.372 107.816 505.372 107.174C505.372 106.814 505.451 106.481 505.608 106.177C505.766 105.873 505.992 105.608 506.284 105.383C506.577 105.146 506.927 104.966 507.332 104.842C507.749 104.718 508.211 104.656 508.718 104.656C509.371 104.656 509.957 104.752 510.475 104.943C510.994 105.124 511.411 105.4 511.726 105.771C512.042 106.132 512.227 106.588 512.284 107.14H510.729C510.673 106.881 510.554 106.661 510.374 106.481C510.205 106.29 509.98 106.143 509.698 106.042C509.416 105.94 509.084 105.89 508.701 105.89C508.341 105.89 508.019 105.94 507.738 106.042C507.467 106.143 507.253 106.29 507.096 106.481C506.938 106.661 506.859 106.881 506.859 107.14C506.859 107.489 506.989 107.749 507.248 107.918C507.518 108.087 507.828 108.205 508.177 108.273L509.952 108.61C510.368 108.689 510.763 108.825 511.135 109.016C511.518 109.208 511.827 109.472 512.064 109.81C512.301 110.148 512.419 110.576 512.419 111.095C512.419 111.5 512.334 111.872 512.165 112.21C511.996 112.537 511.754 112.818 511.439 113.055C511.135 113.28 510.768 113.455 510.34 113.579C509.912 113.714 509.439 113.782 508.921 113.782Z" fill="#141A2A"/>
<g filter="url(#filter4_ddddd_178_1253)">
<rect x="328" y="161" width="41.1242" height="41.1242" rx="8.4497" fill="white"/>
<rect x="328.528" y="161.528" width="40.068" height="40.068" rx="7.92159" stroke="#DBE1E5" stroke-width="1.05621"/>
<g clip-path="url(#clip4_178_1253)">
<path d="M343.562 180.729C344.022 180.729 344.395 181.101 344.395 181.562V184.062C344.395 184.523 344.022 184.895 343.562 184.895C343.102 184.895 342.729 184.523 342.729 184.062V181.562C342.729 181.101 343.102 180.729 343.562 180.729ZM346.062 178.229V184.062C346.062 184.523 346.435 184.895 346.895 184.895C347.355 184.895 347.729 184.523 347.729 184.062V178.229C347.729 177.768 347.355 177.395 346.895 177.395C346.435 177.395 346.062 177.768 346.062 178.229ZM349.395 180.729V184.062C349.395 184.523 349.768 184.895 350.229 184.895C350.69 184.895 351.062 184.523 351.062 184.062V180.729C351.062 180.268 350.69 179.895 350.229 179.895C349.768 179.895 349.395 180.268 349.395 180.729ZM353.825 177.173L356.358 177.595C356.67 177.646 356.895 177.913 356.895 178.229C356.895 178.689 356.522 179.062 356.062 179.062H354.172C353.875 179.062 353.599 178.903 353.45 178.645C353.22 178.246 352.711 178.108 352.311 178.341C351.913 178.571 351.776 179.081 352.008 179.48C352.453 180.25 353.283 180.729 354.173 180.729H354.396C354.396 181.19 354.769 181.562 355.23 181.562C355.69 181.562 356.063 181.19 356.063 180.729C357.441 180.729 358.563 179.607 358.563 178.229C358.563 177.096 357.751 176.137 356.634 175.951L354.1 175.53C353.789 175.478 353.563 175.211 353.563 174.895C353.563 174.435 353.936 174.062 354.396 174.062H356.286C356.583 174.062 356.86 174.221 357.009 174.48C357.238 174.878 357.746 175.015 358.147 174.783C358.545 174.553 358.682 174.043 358.45 173.645C358.005 172.874 357.175 172.395 356.285 172.395H356.062C356.062 171.935 355.69 171.562 355.229 171.562C354.768 171.562 354.395 171.935 354.395 172.395C353.017 172.395 351.895 173.517 351.895 174.895C351.895 176.028 352.707 176.987 353.825 177.173ZM357.729 182.395C357.268 182.395 356.895 182.768 356.895 183.229V184.062C356.895 185.44 355.774 186.562 354.395 186.562H342.729C341.35 186.562 340.229 185.44 340.229 184.062V177.395C340.229 176.017 341.35 174.895 342.729 174.895H349.395C349.856 174.895 350.229 174.523 350.229 174.062C350.229 173.601 349.856 173.229 349.395 173.229H342.729C340.431 173.229 338.562 175.098 338.562 177.395V184.062C338.562 186.36 340.431 188.229 342.729 188.229H347.729V189.895H344.395C343.935 189.895 343.562 190.268 343.562 190.729C343.562 191.19 343.935 191.562 344.395 191.562H352.729C353.19 191.562 353.562 191.19 353.562 190.729C353.562 190.268 353.19 189.895 352.729 189.895H349.395V188.229H354.395C356.693 188.229 358.562 186.36 358.562 184.062V183.229C358.562 182.768 358.19 182.395 357.729 182.395Z" fill="#7D7D7D"/>
</g>
</g>
<path d="M454.562 131.124C454.562 130.848 454.338 130.624 454.062 130.624C453.786 130.624 453.562 130.848 453.562 131.124H454.062H454.562ZM348.209 158.353C348.404 158.549 348.721 158.549 348.916 158.353L352.098 155.171C352.293 154.976 352.293 154.66 352.098 154.464C351.903 154.269 351.586 154.269 351.391 154.464L348.562 157.293L345.734 154.464C345.539 154.269 345.222 154.269 345.027 154.464C344.831 154.66 344.831 154.976 345.027 155.171L348.209 158.353ZM440.624 144.562V144.062H362V144.562V145.062H440.624V144.562ZM362 144.562V144.062C354.302 144.062 348.062 150.302 348.062 158H348.562H349.062C349.062 150.854 354.855 145.062 362 145.062V144.562ZM454.062 131.124H453.562C453.562 138.269 447.77 144.062 440.624 144.062V144.562V145.062C448.322 145.062 454.562 138.822 454.562 131.124H454.062Z" fill="#3BA4E8"/>
<g filter="url(#filter5_ddddd_178_1253)">
<rect x="384" y="182" width="41.1242" height="41.1242" rx="8.4497" fill="white"/>
<rect x="384.528" y="182.528" width="40.068" height="40.068" rx="7.92159" stroke="#DBE1E5" stroke-width="1.05621"/>
<g clip-path="url(#clip5_178_1253)">
<path d="M407.812 212.479C407.562 212.479 407.312 212.562 407.062 212.562H397.062C395.645 212.562 394.562 211.479 394.562 210.062V194.229H398.895C399.229 193.229 400.145 192.562 401.229 192.562H402.895C403.979 192.562 404.895 193.229 405.229 194.229H409.562V200.895H407.895V195.895H403.729V195.062C403.729 194.562 403.395 194.229 402.895 194.229H401.229C400.729 194.229 400.395 194.562 400.395 195.062V195.895H396.229V210.062C396.229 210.562 396.562 210.895 397.062 210.895H406.562C406.812 211.479 407.229 212.062 407.812 212.479ZM412.645 206.979L410.145 206.562C409.812 206.479 409.562 206.229 409.562 205.895C409.562 205.395 409.895 205.062 410.395 205.062H412.062C412.562 205.062 412.895 205.395 412.895 205.895H414.562C414.562 204.479 413.479 203.395 412.062 203.395V202.562H410.395V203.395C408.979 203.395 407.895 204.479 407.895 205.895C407.895 207.062 408.729 207.979 409.812 208.145L412.312 208.562C412.645 208.645 412.812 208.895 412.812 209.229C412.812 209.729 412.479 210.062 411.979 210.062H410.312C409.812 210.062 409.479 209.729 409.479 209.229H407.812C407.812 210.645 408.895 211.729 410.312 211.729V212.562H411.979V211.729C413.395 211.729 414.479 210.645 414.479 209.229C414.562 208.062 413.729 207.145 412.645 206.979ZM401.729 197.812L402.895 198.979L400.562 201.312C400.312 201.562 399.979 201.729 399.645 201.729C399.312 201.729 398.979 201.562 398.729 201.312L397.312 199.979L398.479 198.812L399.645 199.979C399.645 199.895 401.729 197.812 401.729 197.812ZM401.729 202.812L402.895 203.979L400.562 206.312C400.312 206.562 399.979 206.729 399.645 206.729C399.312 206.729 398.979 206.562 398.729 206.312L397.395 204.979L398.562 203.812L399.729 204.979C399.645 204.895 401.729 202.812 401.729 202.812Z" fill="#7D7D7D"/>
</g>
</g>
<path d="M454.562 131.124C454.562 130.848 454.338 130.624 454.062 130.624C453.786 130.624 453.562 130.848 453.562 131.124H454.062H454.562ZM404.209 179.353C404.404 179.549 404.72 179.549 404.916 179.353L408.098 176.171C408.293 175.976 408.293 175.66 408.098 175.464C407.902 175.269 407.586 175.269 407.391 175.464L404.562 178.293L401.734 175.464C401.538 175.269 401.222 175.269 401.027 175.464C400.831 175.66 400.831 175.976 401.027 176.171L404.209 179.353ZM430.124 155.062V154.562H428.5V155.062V155.562H430.124V155.062ZM428.5 155.062V154.562C415.003 154.562 404.062 165.503 404.062 179H404.562H405.062C405.062 166.055 415.556 155.562 428.5 155.562V155.062ZM454.062 131.124H453.562C453.562 144.068 443.069 154.562 430.124 154.562V155.062V155.562C443.621 155.562 454.562 144.621 454.562 131.124H454.062Z" fill="#3BA4E8"/>
<g filter="url(#filter6_ddddd_178_1253)">
<rect x="433.5" y="223" width="41.1242" height="41.1242" rx="8.4497" fill="white"/>
<rect x="434.028" y="223.528" width="40.068" height="40.068" rx="7.92159" stroke="#DBE1E5" stroke-width="1.05621"/>
<g clip-path="url(#clip6_178_1253)">
<path d="M458.229 233.562H453.229C450.931 233.562 449.062 235.431 449.062 237.729V246.062C449.062 248.36 450.931 250.229 453.229 250.229H458.229C460.526 250.229 462.395 248.36 462.395 246.062V237.729C462.395 235.431 460.526 233.562 458.229 233.562ZM460.729 246.062C460.729 247.44 459.607 248.562 458.229 248.562H453.229C451.85 248.562 450.729 247.44 450.729 246.062V237.729C450.729 236.35 451.85 235.229 453.229 235.229H458.229C459.607 235.229 460.729 236.35 460.729 237.729V246.062ZM458.229 252.729C458.229 253.19 457.855 253.562 457.395 253.562H449.895C447.598 253.562 445.729 251.693 445.729 249.395V239.395C445.729 238.935 446.102 238.562 446.562 238.562C447.022 238.562 447.395 238.935 447.395 239.395V249.395C447.395 250.774 448.517 251.895 449.895 251.895H457.395C457.855 251.895 458.229 252.268 458.229 252.729ZM454.062 245.229V246.062C454.062 246.523 453.689 246.895 453.229 246.895C452.769 246.895 452.395 246.523 452.395 246.062V245.229C452.395 244.768 452.769 244.395 453.229 244.395C453.689 244.395 454.062 244.768 454.062 245.229ZM459.062 244.395V246.062C459.062 246.523 458.689 246.895 458.229 246.895C457.769 246.895 457.395 246.523 457.395 246.062V244.395C457.395 243.935 457.769 243.562 458.229 243.562C458.689 243.562 459.062 243.935 459.062 244.395ZM456.562 243.562V246.062C456.562 246.523 456.189 246.895 455.729 246.895C455.269 246.895 454.895 246.523 454.895 246.062V243.562C454.895 243.101 455.269 242.729 455.729 242.729C456.189 242.729 456.562 243.101 456.562 243.562ZM459.062 237.729V239.648C459.062 240.165 458.437 240.424 458.072 240.058L457.575 239.561L456.318 240.819C456.155 240.981 455.942 241.063 455.729 241.063C455.515 241.063 455.302 240.981 455.14 240.819L454.479 240.158L453.818 240.819C453.492 241.145 452.965 241.145 452.64 240.819C452.314 240.493 452.314 239.966 452.64 239.64L453.89 238.39C454.215 238.065 454.742 238.065 455.068 238.39L455.729 239.051L456.397 238.383L455.9 237.886C455.535 237.521 455.794 236.896 456.31 236.896H458.23C458.69 236.896 459.063 237.27 459.063 237.73L459.062 237.729Z" fill="#7D7D7D"/>
</g>
</g>
<path d="M454.562 131.124C454.562 130.848 454.338 130.624 454.062 130.624C453.786 130.624 453.562 130.848 453.562 131.124H454.062H454.562ZM453.709 220.353C453.904 220.549 454.22 220.549 454.416 220.353L457.598 217.171C457.793 216.976 457.793 216.66 457.598 216.464C457.402 216.269 457.086 216.269 456.891 216.464L454.062 219.293L451.234 216.464C451.038 216.269 450.722 216.269 450.527 216.464C450.331 216.66 450.331 216.976 450.527 217.171L453.709 220.353ZM454.062 131.124H453.562V220H454.062H454.562V131.124H454.062Z" fill="#3BA4E8"/>
<g filter="url(#filter7_ddddd_178_1253)">
<rect x="540" y="161" width="41.1242" height="41.1242" rx="8.4497" fill="white"/>
<rect x="540.528" y="161.528" width="40.068" height="40.068" rx="7.92159" stroke="#DBE1E5" stroke-width="1.05621"/>
<g clip-path="url(#clip7_178_1253)">
<path d="M566.395 172.396H554.729C552.431 172.396 550.562 174.265 550.562 176.562V186.562C550.562 188.86 552.431 190.729 554.729 190.729H566.395C568.693 190.729 570.562 188.86 570.562 186.562V176.562C570.562 174.265 568.693 172.396 566.395 172.396ZM554.729 174.062H566.395C567.774 174.062 568.895 175.184 568.895 176.562V178.229H552.229V176.562C552.229 175.184 553.35 174.062 554.729 174.062ZM566.395 189.062H554.729C553.35 189.062 552.229 187.941 552.229 186.562V179.896H568.895V186.562C568.895 187.941 567.774 189.062 566.395 189.062ZM553.062 176.146C553.062 175.456 553.622 174.896 554.312 174.896C555.002 174.896 555.562 175.456 555.562 176.146C555.562 176.836 555.002 177.396 554.312 177.396C553.622 177.396 553.062 176.836 553.062 176.146ZM556.395 176.146C556.395 175.456 556.955 174.896 557.645 174.896C558.335 174.896 558.895 175.456 558.895 176.146C558.895 176.836 558.335 177.396 557.645 177.396C556.955 177.396 556.395 176.836 556.395 176.146ZM558.062 184.896V186.562C558.062 187.023 557.689 187.396 557.229 187.396C556.769 187.396 556.395 187.023 556.395 186.562V184.896C556.395 184.435 556.769 184.062 557.229 184.062C557.689 184.062 558.062 184.435 558.062 184.896ZM561.395 182.396V186.562C561.395 187.023 561.022 187.396 560.562 187.396C560.102 187.396 559.729 187.023 559.729 186.562V182.396C559.729 181.935 560.102 181.562 560.562 181.562C561.022 181.562 561.395 181.935 561.395 182.396ZM564.729 184.062V186.562C564.729 187.023 564.355 187.396 563.895 187.396C563.435 187.396 563.062 187.023 563.062 186.562V184.062C563.062 183.601 563.435 183.229 563.895 183.229C564.355 183.229 564.729 183.601 564.729 184.062Z" fill="#7D7D7D"/>
</g>
</g>
<path d="M454.562 131.124C454.562 130.848 454.338 130.624 454.062 130.624C453.786 130.624 453.562 130.848 453.562 131.124H454.062H454.562ZM560.209 158.353C560.404 158.549 560.721 158.549 560.916 158.353L564.098 155.171C564.293 154.976 564.293 154.66 564.098 154.464C563.903 154.269 563.586 154.269 563.391 154.464L560.562 157.293L557.734 154.464C557.539 154.269 557.222 154.269 557.027 154.464C556.831 154.66 556.831 154.976 557.027 155.171L560.209 158.353ZM467.5 144.562V145.062H547.124V144.562V144.062H467.5V144.562ZM547.124 144.562V145.062C554.27 145.062 560.062 150.854 560.062 158H560.562H561.062C561.062 150.302 554.822 144.062 547.124 144.062V144.562ZM454.062 131.124H453.562C453.562 138.822 459.802 145.062 467.5 145.062V144.562V144.062C460.355 144.062 454.562 138.269 454.562 131.124H454.062Z" fill="#3BA4E8"/>
<g filter="url(#filter8_ddddd_178_1253)">
<rect x="485.124" y="182" width="41.1242" height="41.1242" rx="8.4497" fill="white"/>
<rect x="485.652" y="182.528" width="40.068" height="40.068" rx="7.92159" stroke="#DBE1E5" stroke-width="1.05621"/>
<g clip-path="url(#clip8_178_1253)">
<path d="M500.686 205.062C501.147 205.062 501.52 205.435 501.52 205.895V208.395C501.52 208.855 501.147 209.229 500.686 209.229C500.226 209.229 499.853 208.855 499.853 208.395V205.895C499.853 205.435 500.226 205.062 500.686 205.062ZM504.02 201.729C503.559 201.729 503.186 202.102 503.186 202.562V208.395C503.186 208.855 503.559 209.229 504.02 209.229C504.481 209.229 504.853 208.855 504.853 208.395V202.562C504.853 202.102 504.481 201.729 504.02 201.729ZM515.686 210.756C515.686 211.904 514.319 212.562 511.936 212.562C509.554 212.562 508.186 211.904 508.186 210.756V204.645C508.186 203.91 509.728 203.395 511.936 203.395C514.145 203.395 515.686 203.91 515.686 204.645V210.756ZM511.936 205.895C511.14 205.895 510.435 205.826 509.853 205.706V207.18C510.061 207.318 510.683 207.562 511.936 207.562C513.17 207.562 513.801 207.304 514.02 207.155V205.707C513.438 205.827 512.733 205.895 511.936 205.895ZM514.02 210.568V208.953C513.468 209.12 512.786 209.229 511.936 209.229C511.069 209.229 510.395 209.123 509.853 208.961V210.568C510.1 210.701 510.781 210.895 511.936 210.895C513.091 210.895 513.773 210.701 514.02 210.568ZM506.52 200.895C505.141 200.895 504.02 199.774 504.02 198.395V194.268C503.885 194.255 503.752 194.229 503.616 194.229H499.853C498.475 194.229 497.353 195.35 497.353 196.729V208.395C497.353 209.774 498.475 210.895 499.853 210.895H505.686C506.147 210.895 506.52 211.269 506.52 211.729C506.52 212.189 506.147 212.562 505.686 212.562H499.853C497.556 212.562 495.686 210.693 495.686 208.395V196.729C495.686 194.431 497.556 192.562 499.853 192.562H503.616C505.173 192.562 506.638 193.169 507.741 194.27L510.644 197.175C511.621 198.152 512.222 199.45 512.334 200.828C512.371 201.286 512.03 201.689 511.571 201.726C511.082 201.773 510.684 201.378 510.661 200.895H506.519H506.52ZM506.52 199.229H510.116C509.935 198.914 509.726 198.614 509.466 198.354L506.562 195.45C506.3 195.187 506 194.98 505.686 194.799V198.395C505.686 198.855 506.06 199.229 506.52 199.229Z" fill="#7D7D7D"/>
</g>
</g>
<path d="M454.562 131.124C454.562 130.848 454.338 130.624 454.062 130.624C453.786 130.624 453.562 130.848 453.562 131.124H454.062H454.562ZM505.333 179.353C505.528 179.549 505.845 179.549 506.04 179.353L509.222 176.171C509.417 175.976 509.417 175.66 509.222 175.464C509.027 175.269 508.71 175.269 508.515 175.464L505.686 178.293L502.858 175.464C502.663 175.269 502.346 175.269 502.151 175.464C501.956 175.66 501.956 175.976 502.151 176.171L505.333 179.353ZM478 155.062V155.562H481.749V155.062V154.562H478V155.062ZM481.749 155.062V155.562C494.693 155.562 505.186 166.055 505.186 179H505.686H506.186C506.186 165.503 495.245 154.562 481.749 154.562V155.062ZM454.062 131.124H453.562C453.562 144.621 464.503 155.562 478 155.562V155.062V154.562C465.056 154.562 454.562 144.068 454.562 131.124H454.062Z" fill="#3BA4E8"/>
<defs>
<filter id="filter0_ddddd_178_1253" x="0" y="52" width="201.124" height="201.124" filterUnits="userSpaceOnUse" color-interpolation-filters="sRGB">
<feFlood flood-opacity="0" result="BackgroundImageFix"/>
<feColorMatrix in="SourceAlpha" type="matrix" values="0 0 0 0 0 0 0 0 0 0 0 0 0 0 0 0 0 0 127 0" result="hardAlpha"/>
<feOffset dy="1.5504"/>
<feGaussianBlur stdDeviation="1.856"/>
<feColorMatrix type="matrix" values="0 0 0 0 0 0 0 0 0 0 0 0 0 0 0 0 0 0 0.01384 0"/>
<feBlend mode="normal" in2="BackgroundImageFix" result="effect1_dropShadow_178_1253"/>
<feColorMatrix in="SourceAlpha" type="matrix" values="0 0 0 0 0 0 0 0 0 0 0 0 0 0 0 0 0 0 127 0" result="hardAlpha"/>
<feOffset dy="6.9312"/>
<feGaussianBlur stdDeviation="4.288"/>
<feColorMatrix type="matrix" values="0 0 0 0 0 0 0 0 0 0 0 0 0 0 0 0 0 0 0.02192 0"/>
<feBlend mode="normal" in2="effect1_dropShadow_178_1253" result="effect2_dropShadow_178_1253"/>
<feColorMatrix in="SourceAlpha" type="matrix" values="0 0 0 0 0 0 0 0 0 0 0 0 0 0 0 0 0 0 127 0" result="hardAlpha"/>
<feOffset dy="17.2368"/>
<feGaussianBlur stdDeviation="9.792"/>
<feColorMatrix type="matrix" values="0 0 0 0 0 0 0 0 0 0 0 0 0 0 0 0 0 0 0.02808 0"/>
<feBlend mode="normal" in2="effect2_dropShadow_178_1253" result="effect3_dropShadow_178_1253"/>
<feColorMatrix in="SourceAlpha" type="matrix" values="0 0 0 0 0 0 0 0 0 0 0 0 0 0 0 0 0 0 127 0" result="hardAlpha"/>
<feOffset dy="33.5616"/>
<feGaussianBlur stdDeviation="20.864"/>
<feColorMatrix type="matrix" values="0 0 0 0 0 0 0 0 0 0 0 0 0 0 0 0 0 0 0.03616 0"/>
<feBlend mode="normal" in2="effect3_dropShadow_178_1253" result="effect4_dropShadow_178_1253"/>
<feColorMatrix in="SourceAlpha" type="matrix" values="0 0 0 0 0 0 0 0 0 0 0 0 0 0 0 0 0 0 127 0" result="hardAlpha"/>
<feOffset dy="57"/>
<feGaussianBlur stdDeviation="40"/>
<feColorMatrix type="matrix" values="0 0 0 0 0 0 0 0 0 0 0 0 0 0 0 0 0 0 0.05 0"/>
<feBlend mode="normal" in2="effect4_dropShadow_178_1253" result="effect5_dropShadow_178_1253"/>
<feBlend mode="normal" in="SourceGraphic" in2="effect5_dropShadow_178_1253" result="shape"/>
</filter>
<filter id="filter1_ddddd_178_1253" x="54" y="73" width="201.124" height="201.124" filterUnits="userSpaceOnUse" color-interpolation-filters="sRGB">
<feFlood flood-opacity="0" result="BackgroundImageFix"/>
<feColorMatrix in="SourceAlpha" type="matrix" values="0 0 0 0 0 0 0 0 0 0 0 0 0 0 0 0 0 0 127 0" result="hardAlpha"/>
<feOffset dy="1.5504"/>
<feGaussianBlur stdDeviation="1.856"/>
<feColorMatrix type="matrix" values="0 0 0 0 0 0 0 0 0 0 0 0 0 0 0 0 0 0 0.01384 0"/>
<feBlend mode="normal" in2="BackgroundImageFix" result="effect1_dropShadow_178_1253"/>
<feColorMatrix in="SourceAlpha" type="matrix" values="0 0 0 0 0 0 0 0 0 0 0 0 0 0 0 0 0 0 127 0" result="hardAlpha"/>
<feOffset dy="6.9312"/>
<feGaussianBlur stdDeviation="4.288"/>
<feColorMatrix type="matrix" values="0 0 0 0 0 0 0 0 0 0 0 0 0 0 0 0 0 0 0.02192 0"/>
<feBlend mode="normal" in2="effect1_dropShadow_178_1253" result="effect2_dropShadow_178_1253"/>
<feColorMatrix in="SourceAlpha" type="matrix" values="0 0 0 0 0 0 0 0 0 0 0 0 0 0 0 0 0 0 127 0" result="hardAlpha"/>
<feOffset dy="17.2368"/>
<feGaussianBlur stdDeviation="9.792"/>
<feColorMatrix type="matrix" values="0 0 0 0 0 0 0 0 0 0 0 0 0 0 0 0 0 0 0.02808 0"/>
<feBlend mode="normal" in2="effect2_dropShadow_178_1253" result="effect3_dropShadow_178_1253"/>
<feColorMatrix in="SourceAlpha" type="matrix" values="0 0 0 0 0 0 0 0 0 0 0 0 0 0 0 0 0 0 127 0" result="hardAlpha"/>
<feOffset dy="33.5616"/>
<feGaussianBlur stdDeviation="20.864"/>
<feColorMatrix type="matrix" values="0 0 0 0 0 0 0 0 0 0 0 0 0 0 0 0 0 0 0.03616 0"/>
<feBlend mode="normal" in2="effect3_dropShadow_178_1253" result="effect4_dropShadow_178_1253"/>
<feColorMatrix in="SourceAlpha" type="matrix" values="0 0 0 0 0 0 0 0 0 0 0 0 0 0 0 0 0 0 127 0" result="hardAlpha"/>
<feOffset dy="57"/>
<feGaussianBlur stdDeviation="40"/>
<feColorMatrix type="matrix" values="0 0 0 0 0 0 0 0 0 0 0 0 0 0 0 0 0 0 0.05 0"/>
<feBlend mode="normal" in2="effect4_dropShadow_178_1253" result="effect5_dropShadow_178_1253"/>
<feBlend mode="normal" in="SourceGraphic" in2="effect5_dropShadow_178_1253" result="shape"/>
</filter>
<filter id="filter2_ddddd_178_1253" x="116" y="73" width="201.124" height="201.124" filterUnits="userSpaceOnUse" color-interpolation-filters="sRGB">
<feFlood flood-opacity="0" result="BackgroundImageFix"/>
<feColorMatrix in="SourceAlpha" type="matrix" values="0 0 0 0 0 0 0 0 0 0 0 0 0 0 0 0 0 0 127 0" result="hardAlpha"/>
<feOffset dy="1.5504"/>
<feGaussianBlur stdDeviation="1.856"/>
<feColorMatrix type="matrix" values="0 0 0 0 0 0 0 0 0 0 0 0 0 0 0 0 0 0 0.01384 0"/>
<feBlend mode="normal" in2="BackgroundImageFix" result="effect1_dropShadow_178_1253"/>
<feColorMatrix in="SourceAlpha" type="matrix" values="0 0 0 0 0 0 0 0 0 0 0 0 0 0 0 0 0 0 127 0" result="hardAlpha"/>
<feOffset dy="6.9312"/>
<feGaussianBlur stdDeviation="4.288"/>
<feColorMatrix type="matrix" values="0 0 0 0 0 0 0 0 0 0 0 0 0 0 0 0 0 0 0.02192 0"/>
<feBlend mode="normal" in2="effect1_dropShadow_178_1253" result="effect2_dropShadow_178_1253"/>
<feColorMatrix in="SourceAlpha" type="matrix" values="0 0 0 0 0 0 0 0 0 0 0 0 0 0 0 0 0 0 127 0" result="hardAlpha"/>
<feOffset dy="17.2368"/>
<feGaussianBlur stdDeviation="9.792"/>
<feColorMatrix type="matrix" values="0 0 0 0 0 0 0 0 0 0 0 0 0 0 0 0 0 0 0.02808 0"/>
<feBlend mode="normal" in2="effect2_dropShadow_178_1253" result="effect3_dropShadow_178_1253"/>
<feColorMatrix in="SourceAlpha" type="matrix" values="0 0 0 0 0 0 0 0 0 0 0 0 0 0 0 0 0 0 127 0" result="hardAlpha"/>
<feOffset dy="33.5616"/>
<feGaussianBlur stdDeviation="20.864"/>
<feColorMatrix type="matrix" values="0 0 0 0 0 0 0 0 0 0 0 0 0 0 0 0 0 0 0.03616 0"/>
<feBlend mode="normal" in2="effect3_dropShadow_178_1253" result="effect4_dropShadow_178_1253"/>
<feColorMatrix in="SourceAlpha" type="matrix" values="0 0 0 0 0 0 0 0 0 0 0 0 0 0 0 0 0 0 127 0" result="hardAlpha"/>
<feOffset dy="57"/>
<feGaussianBlur stdDeviation="40"/>
<feColorMatrix type="matrix" values="0 0 0 0 0 0 0 0 0 0 0 0 0 0 0 0 0 0 0.05 0"/>
<feBlend mode="normal" in2="effect4_dropShadow_178_1253" result="effect5_dropShadow_178_1253"/>
<feBlend mode="normal" in="SourceGraphic" in2="effect5_dropShadow_178_1253" result="shape"/>
</filter>
<filter id="filter3_ddddd_178_1253" x="170" y="52" width="201.124" height="201.124" filterUnits="userSpaceOnUse" color-interpolation-filters="sRGB">
<feFlood flood-opacity="0" result="BackgroundImageFix"/>
<feColorMatrix in="SourceAlpha" type="matrix" values="0 0 0 0 0 0 0 0 0 0 0 0 0 0 0 0 0 0 127 0" result="hardAlpha"/>
<feOffset dy="1.5504"/>
<feGaussianBlur stdDeviation="1.856"/>
<feColorMatrix type="matrix" values="0 0 0 0 0 0 0 0 0 0 0 0 0 0 0 0 0 0 0.01384 0"/>
<feBlend mode="normal" in2="BackgroundImageFix" result="effect1_dropShadow_178_1253"/>
<feColorMatrix in="SourceAlpha" type="matrix" values="0 0 0 0 0 0 0 0 0 0 0 0 0 0 0 0 0 0 127 0" result="hardAlpha"/>
<feOffset dy="6.9312"/>
<feGaussianBlur stdDeviation="4.288"/>
<feColorMatrix type="matrix" values="0 0 0 0 0 0 0 0 0 0 0 0 0 0 0 0 0 0 0.02192 0"/>
<feBlend mode="normal" in2="effect1_dropShadow_178_1253" result="effect2_dropShadow_178_1253"/>
<feColorMatrix in="SourceAlpha" type="matrix" values="0 0 0 0 0 0 0 0 0 0 0 0 0 0 0 0 0 0 127 0" result="hardAlpha"/>
<feOffset dy="17.2368"/>
<feGaussianBlur stdDeviation="9.792"/>
<feColorMatrix type="matrix" values="0 0 0 0 0 0 0 0 0 0 0 0 0 0 0 0 0 0 0.02808 0"/>
<feBlend mode="normal" in2="effect2_dropShadow_178_1253" result="effect3_dropShadow_178_1253"/>
<feColorMatrix in="SourceAlpha" type="matrix" values="0 0 0 0 0 0 0 0 0 0 0 0 0 0 0 0 0 0 127 0" result="hardAlpha"/>
<feOffset dy="33.5616"/>
<feGaussianBlur stdDeviation="20.864"/>
<feColorMatrix type="matrix" values="0 0 0 0 0 0 0 0 0 0 0 0 0 0 0 0 0 0 0.03616 0"/>
<feBlend mode="normal" in2="effect3_dropShadow_178_1253" result="effect4_dropShadow_178_1253"/>
<feColorMatrix in="SourceAlpha" type="matrix" values="0 0 0 0 0 0 0 0 0 0 0 0 0 0 0 0 0 0 127 0" result="hardAlpha"/>
<feOffset dy="57"/>
<feGaussianBlur stdDeviation="40"/>
<feColorMatrix type="matrix" values="0 0 0 0 0 0 0 0 0 0 0 0 0 0 0 0 0 0 0.05 0"/>
<feBlend mode="normal" in2="effect4_dropShadow_178_1253" result="effect5_dropShadow_178_1253"/>
<feBlend mode="normal" in="SourceGraphic" in2="effect5_dropShadow_178_1253" result="shape"/>
</filter>
<filter id="filter4_ddddd_178_1253" x="248" y="138" width="201.124" height="201.124" filterUnits="userSpaceOnUse" color-interpolation-filters="sRGB">
<feFlood flood-opacity="0" result="BackgroundImageFix"/>
<feColorMatrix in="SourceAlpha" type="matrix" values="0 0 0 0 0 0 0 0 0 0 0 0 0 0 0 0 0 0 127 0" result="hardAlpha"/>
<feOffset dy="1.5504"/>
<feGaussianBlur stdDeviation="1.856"/>
<feColorMatrix type="matrix" values="0 0 0 0 0 0 0 0 0 0 0 0 0 0 0 0 0 0 0.01384 0"/>
<feBlend mode="normal" in2="BackgroundImageFix" result="effect1_dropShadow_178_1253"/>
<feColorMatrix in="SourceAlpha" type="matrix" values="0 0 0 0 0 0 0 0 0 0 0 0 0 0 0 0 0 0 127 0" result="hardAlpha"/>
<feOffset dy="6.9312"/>
<feGaussianBlur stdDeviation="4.288"/>
<feColorMatrix type="matrix" values="0 0 0 0 0 0 0 0 0 0 0 0 0 0 0 0 0 0 0.02192 0"/>
<feBlend mode="normal" in2="effect1_dropShadow_178_1253" result="effect2_dropShadow_178_1253"/>
<feColorMatrix in="SourceAlpha" type="matrix" values="0 0 0 0 0 0 0 0 0 0 0 0 0 0 0 0 0 0 127 0" result="hardAlpha"/>
<feOffset dy="17.2368"/>
<feGaussianBlur stdDeviation="9.792"/>
<feColorMatrix type="matrix" values="0 0 0 0 0 0 0 0 0 0 0 0 0 0 0 0 0 0 0.02808 0"/>
<feBlend mode="normal" in2="effect2_dropShadow_178_1253" result="effect3_dropShadow_178_1253"/>
<feColorMatrix in="SourceAlpha" type="matrix" values="0 0 0 0 0 0 0 0 0 0 0 0 0 0 0 0 0 0 127 0" result="hardAlpha"/>
<feOffset dy="33.5616"/>
<feGaussianBlur stdDeviation="20.864"/>
<feColorMatrix type="matrix" values="0 0 0 0 0 0 0 0 0 0 0 0 0 0 0 0 0 0 0.03616 0"/>
<feBlend mode="normal" in2="effect3_dropShadow_178_1253" result="effect4_dropShadow_178_1253"/>
<feColorMatrix in="SourceAlpha" type="matrix" values="0 0 0 0 0 0 0 0 0 0 0 0 0 0 0 0 0 0 127 0" result="hardAlpha"/>
<feOffset dy="57"/>
<feGaussianBlur stdDeviation="40"/>
<feColorMatrix type="matrix" values="0 0 0 0 0 0 0 0 0 0 0 0 0 0 0 0 0 0 0.05 0"/>
<feBlend mode="normal" in2="effect4_dropShadow_178_1253" result="effect5_dropShadow_178_1253"/>
<feBlend mode="normal" in="SourceGraphic" in2="effect5_dropShadow_178_1253" result="shape"/>
</filter>
<filter id="filter5_ddddd_178_1253" x="304" y="159" width="201.124" height="201.124" filterUnits="userSpaceOnUse" color-interpolation-filters="sRGB">
<feFlood flood-opacity="0" result="BackgroundImageFix"/>
<feColorMatrix in="SourceAlpha" type="matrix" values="0 0 0 0 0 0 0 0 0 0 0 0 0 0 0 0 0 0 127 0" result="hardAlpha"/>
<feOffset dy="1.5504"/>
<feGaussianBlur stdDeviation="1.856"/>
<feColorMatrix type="matrix" values="0 0 0 0 0 0 0 0 0 0 0 0 0 0 0 0 0 0 0.01384 0"/>
<feBlend mode="normal" in2="BackgroundImageFix" result="effect1_dropShadow_178_1253"/>
<feColorMatrix in="SourceAlpha" type="matrix" values="0 0 0 0 0 0 0 0 0 0 0 0 0 0 0 0 0 0 127 0" result="hardAlpha"/>
<feOffset dy="6.9312"/>
<feGaussianBlur stdDeviation="4.288"/>
<feColorMatrix type="matrix" values="0 0 0 0 0 0 0 0 0 0 0 0 0 0 0 0 0 0 0.02192 0"/>
<feBlend mode="normal" in2="effect1_dropShadow_178_1253" result="effect2_dropShadow_178_1253"/>
<feColorMatrix in="SourceAlpha" type="matrix" values="0 0 0 0 0 0 0 0 0 0 0 0 0 0 0 0 0 0 127 0" result="hardAlpha"/>
<feOffset dy="17.2368"/>
<feGaussianBlur stdDeviation="9.792"/>
<feColorMatrix type="matrix" values="0 0 0 0 0 0 0 0 0 0 0 0 0 0 0 0 0 0 0.02808 0"/>
<feBlend mode="normal" in2="effect2_dropShadow_178_1253" result="effect3_dropShadow_178_1253"/>
<feColorMatrix in="SourceAlpha" type="matrix" values="0 0 0 0 0 0 0 0 0 0 0 0 0 0 0 0 0 0 127 0" result="hardAlpha"/>
<feOffset dy="33.5616"/>
<feGaussianBlur stdDeviation="20.864"/>
<feColorMatrix type="matrix" values="0 0 0 0 0 0 0 0 0 0 0 0 0 0 0 0 0 0 0.03616 0"/>
<feBlend mode="normal" in2="effect3_dropShadow_178_1253" result="effect4_dropShadow_178_1253"/>
<feColorMatrix in="SourceAlpha" type="matrix" values="0 0 0 0 0 0 0 0 0 0 0 0 0 0 0 0 0 0 127 0" result="hardAlpha"/>
<feOffset dy="57"/>
<feGaussianBlur stdDeviation="40"/>
<feColorMatrix type="matrix" values="0 0 0 0 0 0 0 0 0 0 0 0 0 0 0 0 0 0 0.05 0"/>
<feBlend mode="normal" in2="effect4_dropShadow_178_1253" result="effect5_dropShadow_178_1253"/>
<feBlend mode="normal" in="SourceGraphic" in2="effect5_dropShadow_178_1253" result="shape"/>
</filter>
<filter id="filter6_ddddd_178_1253" x="353.5" y="200" width="201.124" height="201.124" filterUnits="userSpaceOnUse" color-interpolation-filters="sRGB">
<feFlood flood-opacity="0" result="BackgroundImageFix"/>
<feColorMatrix in="SourceAlpha" type="matrix" values="0 0 0 0 0 0 0 0 0 0 0 0 0 0 0 0 0 0 127 0" result="hardAlpha"/>
<feOffset dy="1.5504"/>
<feGaussianBlur stdDeviation="1.856"/>
<feColorMatrix type="matrix" values="0 0 0 0 0 0 0 0 0 0 0 0 0 0 0 0 0 0 0.01384 0"/>
<feBlend mode="normal" in2="BackgroundImageFix" result="effect1_dropShadow_178_1253"/>
<feColorMatrix in="SourceAlpha" type="matrix" values="0 0 0 0 0 0 0 0 0 0 0 0 0 0 0 0 0 0 127 0" result="hardAlpha"/>
<feOffset dy="6.9312"/>
<feGaussianBlur stdDeviation="4.288"/>
<feColorMatrix type="matrix" values="0 0 0 0 0 0 0 0 0 0 0 0 0 0 0 0 0 0 0.02192 0"/>
<feBlend mode="normal" in2="effect1_dropShadow_178_1253" result="effect2_dropShadow_178_1253"/>
<feColorMatrix in="SourceAlpha" type="matrix" values="0 0 0 0 0 0 0 0 0 0 0 0 0 0 0 0 0 0 127 0" result="hardAlpha"/>
<feOffset dy="17.2368"/>
<feGaussianBlur stdDeviation="9.792"/>
<feColorMatrix type="matrix" values="0 0 0 0 0 0 0 0 0 0 0 0 0 0 0 0 0 0 0.02808 0"/>
<feBlend mode="normal" in2="effect2_dropShadow_178_1253" result="effect3_dropShadow_178_1253"/>
<feColorMatrix in="SourceAlpha" type="matrix" values="0 0 0 0 0 0 0 0 0 0 0 0 0 0 0 0 0 0 127 0" result="hardAlpha"/>
<feOffset dy="33.5616"/>
<feGaussianBlur stdDeviation="20.864"/>
<feColorMatrix type="matrix" values="0 0 0 0 0 0 0 0 0 0 0 0 0 0 0 0 0 0 0.03616 0"/>
<feBlend mode="normal" in2="effect3_dropShadow_178_1253" result="effect4_dropShadow_178_1253"/>
<feColorMatrix in="SourceAlpha" type="matrix" values="0 0 0 0 0 0 0 0 0 0 0 0 0 0 0 0 0 0 127 0" result="hardAlpha"/>
<feOffset dy="57"/>
<feGaussianBlur stdDeviation="40"/>
<feColorMatrix type="matrix" values="0 0 0 0 0 0 0 0 0 0 0 0 0 0 0 0 0 0 0.05 0"/>
<feBlend mode="normal" in2="effect4_dropShadow_178_1253" result="effect5_dropShadow_178_1253"/>
<feBlend mode="normal" in="SourceGraphic" in2="effect5_dropShadow_178_1253" result="shape"/>
</filter>
<filter id="filter7_ddddd_178_1253" x="460" y="138" width="201.124" height="201.124" filterUnits="userSpaceOnUse" color-interpolation-filters="sRGB">
<feFlood flood-opacity="0" result="BackgroundImageFix"/>
<feColorMatrix in="SourceAlpha" type="matrix" values="0 0 0 0 0 0 0 0 0 0 0 0 0 0 0 0 0 0 127 0" result="hardAlpha"/>
<feOffset dy="1.5504"/>
<feGaussianBlur stdDeviation="1.856"/>
<feColorMatrix type="matrix" values="0 0 0 0 0 0 0 0 0 0 0 0 0 0 0 0 0 0 0.01384 0"/>
<feBlend mode="normal" in2="BackgroundImageFix" result="effect1_dropShadow_178_1253"/>
<feColorMatrix in="SourceAlpha" type="matrix" values="0 0 0 0 0 0 0 0 0 0 0 0 0 0 0 0 0 0 127 0" result="hardAlpha"/>
<feOffset dy="6.9312"/>
<feGaussianBlur stdDeviation="4.288"/>
<feColorMatrix type="matrix" values="0 0 0 0 0 0 0 0 0 0 0 0 0 0 0 0 0 0 0.02192 0"/>
<feBlend mode="normal" in2="effect1_dropShadow_178_1253" result="effect2_dropShadow_178_1253"/>
<feColorMatrix in="SourceAlpha" type="matrix" values="0 0 0 0 0 0 0 0 0 0 0 0 0 0 0 0 0 0 127 0" result="hardAlpha"/>
<feOffset dy="17.2368"/>
<feGaussianBlur stdDeviation="9.792"/>
<feColorMatrix type="matrix" values="0 0 0 0 0 0 0 0 0 0 0 0 0 0 0 0 0 0 0.02808 0"/>
<feBlend mode="normal" in2="effect2_dropShadow_178_1253" result="effect3_dropShadow_178_1253"/>
<feColorMatrix in="SourceAlpha" type="matrix" values="0 0 0 0 0 0 0 0 0 0 0 0 0 0 0 0 0 0 127 0" result="hardAlpha"/>
<feOffset dy="33.5616"/>
<feGaussianBlur stdDeviation="20.864"/>
<feColorMatrix type="matrix" values="0 0 0 0 0 0 0 0 0 0 0 0 0 0 0 0 0 0 0.03616 0"/>
<feBlend mode="normal" in2="effect3_dropShadow_178_1253" result="effect4_dropShadow_178_1253"/>
<feColorMatrix in="SourceAlpha" type="matrix" values="0 0 0 0 0 0 0 0 0 0 0 0 0 0 0 0 0 0 127 0" result="hardAlpha"/>
<feOffset dy="57"/>
<feGaussianBlur stdDeviation="40"/>
<feColorMatrix type="matrix" values="0 0 0 0 0 0 0 0 0 0 0 0 0 0 0 0 0 0 0.05 0"/>
<feBlend mode="normal" in2="effect4_dropShadow_178_1253" result="effect5_dropShadow_178_1253"/>
<feBlend mode="normal" in="SourceGraphic" in2="effect5_dropShadow_178_1253" result="shape"/>
</filter>
<filter id="filter8_ddddd_178_1253" x="405.124" y="159" width="201.124" height="201.124" filterUnits="userSpaceOnUse" color-interpolation-filters="sRGB">
<feFlood flood-opacity="0" result="BackgroundImageFix"/>
<feColorMatrix in="SourceAlpha" type="matrix" values="0 0 0 0 0 0 0 0 0 0 0 0 0 0 0 0 0 0 127 0" result="hardAlpha"/>
<feOffset dy="1.5504"/>
<feGaussianBlur stdDeviation="1.856"/>
<feColorMatrix type="matrix" values="0 0 0 0 0 0 0 0 0 0 0 0 0 0 0 0 0 0 0.01384 0"/>
<feBlend mode="normal" in2="BackgroundImageFix" result="effect1_dropShadow_178_1253"/>
<feColorMatrix in="SourceAlpha" type="matrix" values="0 0 0 0 0 0 0 0 0 0 0 0 0 0 0 0 0 0 127 0" result="hardAlpha"/>
<feOffset dy="6.9312"/>
<feGaussianBlur stdDeviation="4.288"/>
<feColorMatrix type="matrix" values="0 0 0 0 0 0 0 0 0 0 0 0 0 0 0 0 0 0 0.02192 0"/>
<feBlend mode="normal" in2="effect1_dropShadow_178_1253" result="effect2_dropShadow_178_1253"/>
<feColorMatrix in="SourceAlpha" type="matrix" values="0 0 0 0 0 0 0 0 0 0 0 0 0 0 0 0 0 0 127 0" result="hardAlpha"/>
<feOffset dy="17.2368"/>
<feGaussianBlur stdDeviation="9.792"/>
<feColorMatrix type="matrix" values="0 0 0 0 0 0 0 0 0 0 0 0 0 0 0 0 0 0 0.02808 0"/>
<feBlend mode="normal" in2="effect2_dropShadow_178_1253" result="effect3_dropShadow_178_1253"/>
<feColorMatrix in="SourceAlpha" type="matrix" values="0 0 0 0 0 0 0 0 0 0 0 0 0 0 0 0 0 0 127 0" result="hardAlpha"/>
<feOffset dy="33.5616"/>
<feGaussianBlur stdDeviation="20.864"/>
<feColorMatrix type="matrix" values="0 0 0 0 0 0 0 0 0 0 0 0 0 0 0 0 0 0 0.03616 0"/>
<feBlend mode="normal" in2="effect3_dropShadow_178_1253" result="effect4_dropShadow_178_1253"/>
<feColorMatrix in="SourceAlpha" type="matrix" values="0 0 0 0 0 0 0 0 0 0 0 0 0 0 0 0 0 0 127 0" result="hardAlpha"/>
<feOffset dy="57"/>
<feGaussianBlur stdDeviation="40"/>
<feColorMatrix type="matrix" values="0 0 0 0 0 0 0 0 0 0 0 0 0 0 0 0 0 0 0.05 0"/>
<feBlend mode="normal" in2="effect4_dropShadow_178_1253" result="effect5_dropShadow_178_1253"/>
<feBlend mode="normal" in="SourceGraphic" in2="effect5_dropShadow_178_1253" result="shape"/>
</filter>
<clipPath id="clip0_178_1253">
<rect width="20" height="20" fill="white" transform="translate(90.562 85.562)"/>
</clipPath>
<clipPath id="clip1_178_1253">
<rect width="20" height="20" fill="white" transform="translate(144.562 106.562)"/>
</clipPath>
<clipPath id="clip2_178_1253">
<rect width="20" height="20" fill="white" transform="translate(206.562 106.562)"/>
</clipPath>
<clipPath id="clip3_178_1253">
<rect width="20" height="20" fill="white" transform="translate(260.562 85.562)"/>
</clipPath>
<clipPath id="clip4_178_1253">
<rect width="20" height="20" fill="white" transform="translate(338.562 171.562)"/>
</clipPath>
<clipPath id="clip5_178_1253">
<rect width="20" height="20" fill="white" transform="translate(394.562 192.562)"/>
</clipPath>
<clipPath id="clip6_178_1253">
<rect width="20" height="20" fill="white" transform="translate(444.062 233.562)"/>
</clipPath>
<clipPath id="clip7_178_1253">
<rect width="20" height="20" fill="white" transform="translate(550.562 171.562)"/>
</clipPath>
<clipPath id="clip8_178_1253">
<rect width="20" height="20" fill="white" transform="translate(495.686 192.562)"/>
</clipPath>
</defs>
</svg>
