<svg width="14" height="14" viewBox="0 0 14 14" fill="none" xmlns="http://www.w3.org/2000/svg">
<path d="M9.33267 9.04159C9.22301 9.04159 9.11159 9.01067 9.01301 8.94593L6.67969 7.41294C6.51578 7.30444 6.41661 7.12186 6.41661 6.92528V4.0833C6.41661 3.76072 6.67736 3.49997 6.99994 3.49997C7.32252 3.49997 7.58327 3.76072 7.58327 4.0833V6.61086L9.6535 7.9706C9.923 8.14793 9.99767 8.5096 9.82092 8.77851C9.70892 8.94943 9.52225 9.04159 9.33267 9.04159ZM7.41644 12.8186C7.27877 12.8286 7.13994 12.8332 6.99994 12.8332C3.78347 12.8332 1.16666 10.2164 1.16666 6.99994C1.16666 3.78347 3.78347 1.16666 6.99994 1.16666C8.83801 1.16666 10.5652 2.04865 11.6596 3.49997H9.91658C9.594 3.49997 9.33325 3.76072 9.33325 4.0833C9.33325 4.40588 9.594 4.66663 9.91658 4.66663H12.2499C12.8933 4.66663 13.4166 4.14338 13.4166 3.49997V1.16666C13.4166 0.844076 13.1558 0.583328 12.8332 0.583328C12.5106 0.583328 12.2499 0.844076 12.2499 1.16666V2.39398C10.9333 0.900076 9.02584 0 6.99994 0C3.14006 0 0 3.14006 0 6.99994C0 10.8598 3.14006 13.9999 6.99994 13.9999C7.16794 13.9999 7.33419 13.9935 7.49927 13.9818C7.82068 13.959 8.06277 13.6796 8.03943 13.3588C8.01668 13.038 7.74077 12.7901 7.41644 12.8186ZM13.4166 6.41661C13.094 6.41661 12.8332 6.67736 12.8332 6.99994C12.8332 7.26536 12.8151 7.53252 12.7796 7.79327C12.7364 8.11293 12.9604 8.40693 13.2789 8.4501C13.3057 8.4536 13.332 8.45535 13.3582 8.45535C13.6458 8.45535 13.896 8.24301 13.9357 7.95077C13.9777 7.6381 13.9993 7.31786 13.9993 6.99994C13.9993 6.67736 13.7391 6.41661 13.4166 6.41661ZM12.9131 9.56425C12.6308 9.40792 12.2756 9.51292 12.1216 9.79525C11.995 10.0262 11.8509 10.2514 11.6928 10.4649C11.5015 10.7239 11.5569 11.0891 11.8153 11.281C11.9203 11.358 12.0416 11.3947 12.1618 11.3947C12.3409 11.3947 12.5171 11.3125 12.632 11.1585C12.8204 10.9024 12.9936 10.6323 13.1453 10.3552C13.3005 10.0729 13.1966 9.71825 12.9143 9.56367L12.9131 9.56425ZM10.1534 11.9092C9.93 12.0527 9.69667 12.1816 9.45867 12.2919C9.16642 12.4278 9.03926 12.7743 9.17517 13.0666C9.27434 13.2795 9.48434 13.4043 9.70483 13.4043C9.78708 13.4043 9.8705 13.3874 9.94983 13.3501C10.2362 13.2165 10.5174 13.0625 10.7852 12.8898C11.0564 12.7154 11.1346 12.3549 10.9602 12.0836C10.7857 11.8136 10.4247 11.7354 10.154 11.9087L10.1534 11.9092Z" fill="white"/>
</svg>
