<svg width="24" height="24" viewBox="0 0 24 24" fill="none" xmlns="http://www.w3.org/2000/svg">
<g clip-path="url(#clip0_74_2877)">
<path d="M23.9 11.4371C23.5071 8.41248 21.9772 5.651 19.6214 3.7139C17.2655 1.77681 14.2604 0.80947 11.2169 1.00851C8.17341 1.20754 5.3199 2.55802 3.23637 4.78544C1.15285 7.01286 -0.00434127 9.95007 1.30188e-05 13.0001C-0.00575138 14.6326 0.325071 16.2488 0.971828 17.7477C1.61858 19.2467 2.56739 20.5962 3.75901 21.7121C4.67035 22.5558 5.87117 23.017 7.11301 23.0001H16.88C18.192 23.0031 19.4525 22.4898 20.389 21.5711C21.7237 20.2725 22.7363 18.6799 23.3459 16.9203C23.9555 15.1607 24.1453 13.283 23.9 11.4371ZM18.991 20.1371C18.4284 20.6914 17.6698 21.0015 16.88 21.0001H7.11301C6.38229 21.0151 5.67351 20.7499 5.13201 20.2591C4.13929 19.3292 3.34883 18.2047 2.80997 16.9558C2.2711 15.7068 1.99538 14.3603 2.00001 13.0001C2.001 11.5923 2.29879 10.2006 2.87395 8.91566C3.44912 7.63076 4.28873 6.48157 5.33801 5.54306C7.16116 3.89897 9.53105 2.99243 11.986 3.00006C12.3783 3.00022 12.7702 3.02226 13.16 3.06606C15.0356 3.2839 16.8112 4.02862 18.2809 5.21398C19.7507 6.39934 20.8547 7.97684 21.4648 9.76375C22.075 11.5507 22.1665 13.4739 21.7287 15.3106C21.2909 17.1474 20.3417 18.8225 18.991 20.1421V20.1371ZM7.80701 17.2851C7.99664 17.4707 8.10476 17.7241 8.10757 17.9895C8.11038 18.2548 8.00766 18.5104 7.82201 18.7001C7.63636 18.8897 7.38298 18.9978 7.11762 19.0006C6.85226 19.0034 6.59664 18.9007 6.40701 18.7151C5.27197 17.6032 4.49371 16.1786 4.17142 14.6228C3.84914 13.067 3.99743 11.4504 4.5974 9.97918C5.19737 8.50795 6.22183 7.2487 7.54021 6.36194C8.85859 5.47518 10.4112 5.00107 12 5.00006C12.3825 4.99995 12.7644 5.02702 13.143 5.08106C13.273 5.09981 13.3981 5.14399 13.511 5.21108C13.624 5.27817 13.7226 5.36686 13.8013 5.47207C13.8799 5.57729 13.9371 5.69697 13.9695 5.82429C14.0018 5.9516 14.0088 6.08405 13.99 6.21406C13.9728 6.34479 13.9296 6.47075 13.863 6.58455C13.7964 6.69834 13.7077 6.79766 13.6021 6.87667C13.4965 6.95568 13.3762 7.01278 13.2483 7.04462C13.1203 7.07646 12.9873 7.08239 12.857 7.06206C11.6055 6.8833 10.3295 7.10442 9.21111 7.69386C8.09271 8.28331 7.18908 9.21095 6.62917 10.3444C6.06926 11.4779 5.88167 12.7592 6.09319 14.0056C6.30471 15.252 6.90451 16.3998 7.80701 17.2851ZM19.919 11.8571C19.9731 12.2357 20.0001 12.6176 20 13.0001C20.0033 14.0657 19.7917 15.1211 19.378 16.1032C18.9642 17.0853 18.3568 17.9739 17.592 18.7161C17.4021 18.9017 17.1462 19.0043 16.8807 19.0013C16.6151 18.9983 16.3617 18.89 16.176 18.7001C15.9904 18.5102 15.8877 18.2543 15.8907 17.9887C15.8937 17.7232 16.0021 17.4697 16.192 17.2841C16.8677 16.6255 17.3779 15.8164 17.681 14.9229C17.9841 14.0294 18.0715 13.0768 17.936 12.1431C17.8981 11.8804 17.9661 11.6134 18.125 11.4008C18.2839 11.1882 18.5208 11.0475 18.7835 11.0096C19.0462 10.9716 19.3132 11.0396 19.5258 11.1986C19.7384 11.3575 19.8791 11.5944 19.917 11.8571H19.919ZM13.926 12.4881C14.0464 12.9208 14.02 13.3812 13.851 13.7974C13.6821 14.2136 13.3801 14.5621 12.9921 14.7886C12.6042 15.015 12.1522 15.1065 11.7067 15.049C11.2613 14.9914 10.8474 14.7879 10.5298 14.4703C10.2122 14.1527 10.0087 13.7388 9.95111 13.2933C9.89353 12.8479 9.9851 12.3959 10.2115 12.0079C10.4379 11.62 10.7865 11.318 11.2026 11.149C11.6188 10.9801 12.0793 10.9537 12.512 11.0741L16.293 7.29306C16.3853 7.19755 16.4956 7.12137 16.6176 7.06896C16.7396 7.01655 16.8708 6.98896 17.0036 6.98781C17.1364 6.98666 17.2681 7.01196 17.391 7.06224C17.5139 7.11252 17.6255 7.18677 17.7194 7.28067C17.8133 7.37456 17.8876 7.48621 17.9378 7.60911C17.9881 7.732 18.0134 7.86368 18.0123 7.99646C18.0111 8.12924 17.9835 8.26046 17.9311 8.38247C17.8787 8.50447 17.8025 8.61481 17.707 8.70706L13.926 12.4881Z" fill="#E6921C"/>
</g>
<defs>
<clipPath id="clip0_74_2877">
<rect width="24" height="24" fill="white"/>
</clipPath>
</defs>
</svg>
