<svg width="16" height="16" viewBox="0 0 16 16" fill="none" xmlns="http://www.w3.org/2000/svg">
<g clip-path="url(#clip0_74_603)">
<path d="M4.86313 11.3333C2.35363 4.83334 5.90875 1.95834 8 1.33334C10.0913 1.95834 13.6464 4.83334 11.1369 11.3333C10.7579 11.125 9.6 10.7083 8 10.7083C6.4 10.7083 5.24209 11.125 4.86313 11.3333Z" stroke="#A4A4A4" stroke-linecap="round" stroke-linejoin="round"/>
<path d="M9.33464 6.00002C9.33464 5.26364 8.7377 4.66669 8.0013 4.66669C7.2649 4.66669 6.66797 5.26364 6.66797 6.00002C6.66797 6.73642 7.2649 7.33335 8.0013 7.33335C8.7377 7.33335 9.33464 6.73642 9.33464 6.00002Z" stroke="#A4A4A4"/>
<path d="M11.668 10.3717C12.6294 10.4605 13.8065 10.7214 14.6556 11.3333C14.6556 11.3333 15.0042 8.04278 12.0013 7.33331" stroke="#A4A4A4" stroke-linecap="round" stroke-linejoin="round"/>
<path d="M4.33203 10.3717C3.37066 10.4605 2.19347 10.7214 1.34442 11.3333C1.34442 11.3333 0.995729 8.04278 3.9987 7.33331" stroke="#A4A4A4" stroke-linecap="round" stroke-linejoin="round"/>
<path d="M6.33203 12.6667C6.33203 12.6667 6.60981 14.3334 7.9987 14.6667C9.38756 14.3334 9.66536 12.6667 9.66536 12.6667" stroke="#A4A4A4" stroke-linecap="round" stroke-linejoin="round"/>
</g>
<defs>
<clipPath id="clip0_74_603">
<rect width="16" height="16" fill="white"/>
</clipPath>
</defs>
</svg>
