<svg width="25" height="25" viewBox="0 0 25 25" fill="none" xmlns="http://www.w3.org/2000/svg">
<path d="M24.9994 23.9577C24.9994 24.234 24.8897 24.4989 24.6943 24.6942C24.499 24.8896 24.2341 24.9993 23.9578 24.9993H1.04325C0.767008 24.9993 0.50208 24.8896 0.306748 24.6942C0.111415 24.4989 0.00167853 24.234 0.00167853 23.9577C0.00167853 23.6815 0.111415 23.4166 0.306748 23.2212C0.50208 23.0259 0.767008 22.9162 1.04325 22.9162H23.9578C24.2341 22.9162 24.499 23.0259 24.6943 23.2212C24.8897 23.4166 24.9994 23.6815 24.9994 23.9577ZM0.304776 8.9091C0.0803404 8.49281 -0.0236372 8.02221 0.00451205 7.55011C0.0326613 7.07801 0.191823 6.6231 0.464136 6.23643C0.909156 5.58349 1.50513 5.04754 2.20148 4.67407L10.0143 0.607778C10.7822 0.208472 11.635 0 12.5005 0C13.3661 0 14.2189 0.208472 14.9868 0.607778L22.7986 4.6772C23.4949 5.05066 24.0909 5.58661 24.5359 6.23955C24.8082 6.62623 24.9674 7.08114 24.9955 7.55324C25.0237 8.02533 24.9197 8.49594 24.6953 8.91223C24.4536 9.3693 24.0912 9.75132 23.6475 10.0167C23.2038 10.2821 22.6958 10.4206 22.1788 10.4173H21.8747V18.7499H22.9162C23.1925 18.7499 23.4574 18.8596 23.6528 19.0549C23.8481 19.2503 23.9578 19.5152 23.9578 19.7914C23.9578 20.0677 23.8481 20.3326 23.6528 20.5279C23.4574 20.7233 23.1925 20.833 22.9162 20.833H2.08482C1.80858 20.833 1.54365 20.7233 1.34832 20.5279C1.15299 20.3326 1.04325 20.0677 1.04325 19.7914C1.04325 19.5152 1.15299 19.2503 1.34832 19.0549C1.54365 18.8596 1.80858 18.7499 2.08482 18.7499H3.12639V10.4173H2.82225C2.30476 10.4205 1.79631 10.2816 1.35238 10.0156C0.908441 9.74967 0.546065 9.36691 0.304776 8.9091ZM5.20954 18.7499H8.33425V10.4173H5.20954V18.7499ZM10.4174 10.4173V18.7499H14.5837V10.4173H10.4174ZM19.7915 10.4173H16.6668V18.7499H19.7915V10.4173ZM2.15044 7.94356C2.21579 8.06405 2.31304 8.16423 2.43154 8.23312C2.55004 8.30202 2.68521 8.33697 2.82225 8.33415H22.1788C22.3159 8.33697 22.451 8.30202 22.5695 8.23312C22.688 8.16423 22.7853 8.06405 22.8506 7.94356C22.8982 7.86395 22.9213 7.77205 22.9168 7.6794C22.9124 7.58674 22.8806 7.49747 22.8256 7.42278C22.5733 7.04772 22.2342 6.73903 21.8372 6.52286L14.0254 2.45344C13.5546 2.20911 13.032 2.08157 12.5016 2.08157C11.9712 2.08157 11.4485 2.20911 10.9778 2.45344L3.16597 6.52286C2.76912 6.73973 2.43013 7.0487 2.17752 7.42382C2.12241 7.4982 2.09045 7.58717 2.08563 7.67961C2.08082 7.77205 2.10336 7.86386 2.15044 7.94356Z" fill="#0DBA2C"/>
</svg>
