<svg width="12" height="11" viewBox="0 0 12 11" fill="none" xmlns="http://www.w3.org/2000/svg">
<g clip-path="url(#clip0_74_1802)">
<path d="M8.79328 4.09676C8.78045 4.0952 8.77189 4.09416 8.75906 4.0926L8.73768 4.09C7.93616 3.96688 7.49794 3.28662 7.70111 2.53825C7.90879 1.77324 8.71847 1.23167 9.50111 1.32674C10.2837 1.4218 10.7559 2.12336 10.5494 2.88421C10.3408 3.63622 9.573 4.16999 8.79643 4.10143C8.79755 4.09727 8.79755 4.09728 8.79328 4.09676ZM9.33293 1.94622C8.90098 1.89376 8.45774 2.19209 8.34374 2.61201C8.232 3.02362 8.47101 3.39622 8.88988 3.46428C8.89529 3.46064 8.9295 3.4648 8.96686 3.47363C9.38734 3.50323 9.79839 3.20958 9.91328 2.80265C10.0273 2.38273 9.76915 1.99921 9.33293 1.94622Z" fill="#93AABE"/>
<path d="M8.31002 6.42601C8.16829 6.4088 8.02943 6.38097 7.89441 6.33901C7.75213 6.29616 7.69143 6.14636 7.75622 6.0045C7.82102 5.86264 7.98867 5.7844 8.13095 5.82724C8.55781 5.95578 9.05235 5.93186 9.4242 5.76521C9.62476 5.67636 9.75305 5.54951 9.79049 5.41162C9.82792 5.27374 9.7699 5.12792 9.63248 4.99801C9.37196 4.75455 8.91431 4.61497 8.44255 4.63801C8.28586 4.6482 8.171 4.53199 8.18491 4.38394C8.19882 4.2359 8.33438 4.10994 8.49011 4.10329C9.11033 4.07272 9.69477 4.25691 10.0541 4.59272C10.3173 4.84016 10.422 5.15965 10.3356 5.47784C10.2502 5.79249 9.98691 6.07094 9.60587 6.24378C9.21756 6.41573 8.75704 6.48031 8.31002 6.42601Z" fill="#93AABE"/>
<path d="M3.96374 3.51417C3.95946 3.51365 3.95518 3.51313 3.95518 3.51313C3.19215 3.39468 2.75393 2.71442 2.95282 1.96552C3.16051 1.20052 3.97132 0.654797 4.75395 0.749858C5.53659 0.84492 6.00878 1.54648 5.80223 2.30733C5.59793 3.05986 4.83012 3.59363 4.05355 3.52507L4.04839 3.20234L3.99367 3.5178C3.98512 3.51676 3.97229 3.5152 3.96374 3.51417ZM4.17581 2.89572C4.20147 2.89883 4.22286 2.90143 4.24739 2.9087C4.63253 2.9383 5.05641 2.64621 5.16815 2.2346C5.28215 1.81468 5.02402 1.43116 4.59207 1.3787C4.16012 1.32623 3.71688 1.62456 3.60288 2.04448C3.49227 2.45193 3.72813 2.81986 4.13619 2.8952C4.1416 2.89156 4.1587 2.89364 4.17581 2.89572Z" fill="#93AABE"/>
<path d="M3.18876 5.8039C2.74174 5.74961 2.34457 5.58085 2.07144 5.32855C1.80825 5.08112 1.70449 4.75809 1.79087 4.4399C1.87629 4.12524 2.14322 3.84724 2.51967 3.6775C3.03256 3.44763 3.67651 3.41264 4.24106 3.58712C4.38335 3.62997 4.44404 3.77977 4.37925 3.92163C4.31446 4.06349 4.14585 4.14527 4.00452 4.09889C3.57499 3.96637 3.07682 3.98986 2.70134 4.15607C2.50077 4.24492 2.37344 4.36823 2.33601 4.50611C2.29858 4.64399 2.35564 4.79336 2.49306 4.92326C2.75357 5.16672 3.20395 5.30542 3.67113 5.28547C3.82685 5.27882 3.94171 5.39503 3.92876 5.53954C3.91485 5.68758 3.77929 5.81354 3.62357 5.82019C3.47511 5.82772 3.33049 5.82112 3.18876 5.8039Z" fill="#93AABE"/>
<path d="M5.66796 6.57753C5.65513 6.57597 5.64658 6.57493 5.63375 6.57337L5.61237 6.57078C4.81084 6.44765 4.37262 5.76739 4.57579 5.01902C4.78348 4.25401 5.59316 3.71245 6.37579 3.80751C7.15843 3.90257 7.63062 4.60413 7.42407 5.36498C7.21549 6.11699 6.44769 6.65076 5.67111 6.5822C5.67224 6.57805 5.67224 6.57805 5.66796 6.57753ZM6.20761 4.427C5.77567 4.37453 5.33242 4.67286 5.21842 5.09278C5.10668 5.50439 5.34569 5.877 5.76457 5.94505C5.76997 5.94142 5.80418 5.94557 5.84155 5.9544C6.26203 5.984 6.67308 5.69035 6.78797 5.28343C6.90084 4.86766 6.64384 4.47998 6.20761 4.427Z" fill="#93AABE"/>
<path d="M4.87232 9.34498C4.38957 9.28634 3.9365 9.11833 3.62271 8.85061C3.3252 8.59944 3.20049 8.27814 3.28669 7.9606C3.37194 7.64658 3.65547 7.36758 4.07003 7.2029C4.9411 6.85677 6.11983 6.99995 6.74934 7.52834C7.04685 7.77951 7.17156 8.1008 7.08535 8.41835C7.0001 8.73236 6.71658 9.01137 6.30202 9.17605C5.86849 9.34935 5.35508 9.40362 4.87232 9.34498ZM4.28324 7.68803C4.06447 7.77443 3.92654 7.89982 3.88918 8.03742C3.85183 8.17502 3.92003 8.3218 4.07539 8.45366C4.53133 8.8407 5.45259 8.9526 6.08286 8.69749C6.30163 8.61108 6.43956 8.4857 6.47692 8.34809C6.51428 8.21049 6.44608 8.06371 6.29071 7.93186C5.8388 7.54531 4.91658 7.43694 4.28324 7.68803Z" fill="#93AABE"/>
</g>
<defs>
<clipPath id="clip0_74_1802">
<rect width="9.32567" height="9.32567" fill="white" transform="matrix(1.01808 0.123659 -0.268694 0.989735 2.50575 0)"/>
</clipPath>
</defs>
</svg>
