<svg width="25" height="24" viewBox="0 0 25 24" fill="none" xmlns="http://www.w3.org/2000/svg">
<path d="M23.4744 16.2465L20.6123 19.1096L19.1982 17.6956L20.8943 15.9994H14.0019V13.9993H20.9583L19.1982 12.2382L20.6123 10.8241L23.4744 13.6863C24.1805 14.3924 24.1805 15.5404 23.4744 16.2465ZM6.5004 10.9991C5.67235 10.9991 5.00031 11.6712 5.00031 12.4992C5.00031 13.3273 5.67235 13.9993 6.5004 13.9993C7.32845 13.9993 8.00049 13.3273 8.00049 12.4992C8.00049 11.6712 7.32845 10.9991 6.5004 10.9991ZM14.0009 17.9996H16.001V23.9999H0V4.19873C0 2.77464 1.01406 1.53757 2.41115 1.25755L8.41251 0.057475C9.30057 -0.116536 10.2056 0.108478 10.9037 0.679513C11.3317 1.03053 11.6317 1.49156 11.8117 1.99859H13.0018C14.6559 1.99859 16.002 3.34468 16.002 4.99878V11.9992H14.0019V4.99878C14.0019 4.44674 13.5538 3.99872 13.0018 3.99872H12.0017V21.9998H14.0019V17.9996H14.0009ZM10.0006 2.99965C10.0006 2.69864 9.8676 2.41662 9.63459 2.22661C9.40258 2.0366 9.09756 1.96159 8.80454 2.01859L2.80417 3.21867C2.33814 3.31267 2.00012 3.7247 2.00012 4.19873V21.9998H10.0006V2.99965Z" fill="#D21515"/>
</svg>
