<svg width="15" height="15" viewBox="0 0 15 15" fill="none" xmlns="http://www.w3.org/2000/svg">
<path d="M5.35713 0C3.29171 0 1.60714 1.68457 1.60714 3.74999C1.60714 5.04115 2.26632 6.18791 3.2645 6.86383C1.35393 7.68414 0 9.58006 0 11.7857H1.07143C1.07143 9.41265 2.98409 7.49999 5.35713 7.49999C6.09374 7.49999 6.78012 7.69251 7.3828 8.01896C6.78849 8.75557 6.42856 9.69725 6.42856 10.7143C6.42856 13.0748 8.35378 15 10.7143 15C13.0748 15 15 13.0748 15 10.7143C15 8.35378 13.0748 6.42856 10.7143 6.42856C9.77886 6.42856 8.90833 6.73618 8.20311 7.24887C7.96665 7.1003 7.70925 6.97474 7.44977 6.86383C8.44795 6.18791 9.10713 5.04115 9.10713 3.74999C9.10713 1.68457 7.42256 0 5.35713 0ZM5.35713 1.07143C6.8429 1.07143 8.0357 2.26423 8.0357 3.74999C8.0357 5.23576 6.8429 6.42856 5.35713 6.42856C3.87137 6.42856 2.67857 5.23576 2.67857 3.74999C2.67857 2.26423 3.87137 1.07143 5.35713 1.07143ZM10.7143 7.49999C12.4951 7.49999 13.9286 8.93344 13.9286 10.7143C13.9286 12.4951 12.4951 13.9286 10.7143 13.9286C8.93344 13.9286 7.49999 12.4951 7.49999 10.7143C7.49999 8.93344 8.93344 7.49999 10.7143 7.49999ZM12.4721 9.2578L10.7143 11.0156L9.49217 9.79351L8.72209 10.5636L10.3292 12.1707L10.7143 12.539L11.0993 12.1707L13.2422 10.0279L12.4721 9.2578Z" fill="#238BEB"/>
</svg>
