<svg width="12" height="13" viewBox="0 0 12 13" fill="none" xmlns="http://www.w3.org/2000/svg">
<path d="M5.90911 0C3.63087 0 1.77273 1.85814 1.77273 4.13638C1.77273 5.56057 2.49983 6.82549 3.60087 7.57105C1.49344 8.47589 0 10.5672 0 13.0001H1.18182C1.18182 11.2919 2.08435 9.80544 3.43467 8.97447C3.83169 9.94855 4.79885 10.6364 5.90911 10.6364C7.01938 10.6364 7.98654 9.94855 8.38356 8.97447C9.73388 9.80544 10.6364 11.2919 10.6364 13.0001H11.8182C11.8182 10.5672 10.3248 8.47589 8.21736 7.57105C9.3184 6.82549 10.0455 5.56057 10.0455 4.13638C10.0455 1.85814 8.18736 0 5.90911 0ZM5.90911 1.18182C7.54797 1.18182 8.86367 2.49752 8.86367 4.13638C8.86367 5.77524 7.54797 7.09094 5.90911 7.09094C4.27026 7.09094 2.95456 5.77524 2.95456 4.13638C2.95456 2.49752 4.27026 1.18182 5.90911 1.18182ZM5.90911 8.27276C6.39385 8.27276 6.8555 8.34201 7.29406 8.47589C7.08863 9.04602 6.55312 9.45458 5.90911 9.45458C5.26511 9.45458 4.7296 9.04602 4.52417 8.47589C4.96273 8.34201 5.42438 8.27276 5.90911 8.27276Z" fill="#635BD4"/>
</svg>
