<svg width="20" height="19" viewBox="0 0 20 19" fill="none" xmlns="http://www.w3.org/2000/svg">
<path d="M15.8333 0H4.16667C1.86917 0 0 1.86917 0 4.16667V14.1667C0 16.4642 1.86917 18.3333 4.16667 18.3333H15.8333C18.1308 18.3333 20 16.4642 20 14.1667V4.16667C20 1.86917 18.1308 0 15.8333 0ZM4.16667 1.66667H15.8333C17.2117 1.66667 18.3333 2.78833 18.3333 4.16667V5.83333H1.66667V4.16667C1.66667 2.78833 2.78833 1.66667 4.16667 1.66667ZM15.8333 16.6667H4.16667C2.78833 16.6667 1.66667 15.545 1.66667 14.1667V7.5H18.3333V14.1667C18.3333 15.545 17.2117 16.6667 15.8333 16.6667ZM2.5 3.75C2.5 3.06 3.06 2.5 3.75 2.5C4.44 2.5 5 3.06 5 3.75C5 4.44 4.44 5 3.75 5C3.06 5 2.5 4.44 2.5 3.75ZM5.83333 3.75C5.83333 3.06 6.39333 2.5 7.08333 2.5C7.77333 2.5 8.33333 3.06 8.33333 3.75C8.33333 4.44 7.77333 5 7.08333 5C6.39333 5 5.83333 4.44 5.83333 3.75ZM7.5 12.5V14.1667C7.5 14.6275 7.12667 15 6.66667 15C6.20667 15 5.83333 14.6275 5.83333 14.1667V12.5C5.83333 12.0392 6.20667 11.6667 6.66667 11.6667C7.12667 11.6667 7.5 12.0392 7.5 12.5ZM10.8333 10V14.1667C10.8333 14.6275 10.46 15 10 15C9.54 15 9.16667 14.6275 9.16667 14.1667V10C9.16667 9.53917 9.54 9.16667 10 9.16667C10.46 9.16667 10.8333 9.53917 10.8333 10ZM14.1667 11.6667V14.1667C14.1667 14.6275 13.7933 15 13.3333 15C12.8733 15 12.5 14.6275 12.5 14.1667V11.6667C12.5 11.2058 12.8733 10.8333 13.3333 10.8333C13.7933 10.8333 14.1667 11.2058 14.1667 11.6667Z" fill="#7D7D7D"/>
</svg>
