<svg width="14" height="14" viewBox="0 0 14 14" fill="none" xmlns="http://www.w3.org/2000/svg">
<g clip-path="url(#clip0_74_941)">
<path d="M8.16662 7.58327C8.16754 7.78828 8.11443 7.98992 8.01263 8.16787C7.91082 8.34582 7.76392 8.4938 7.58673 8.59691C7.40953 8.70002 7.20829 8.75462 7.00327 8.75519C6.79826 8.75577 6.59671 8.70232 6.41893 8.60022C6.24116 8.49811 6.09342 8.35096 5.99061 8.17359C5.8878 7.99622 5.83355 7.79488 5.83332 7.58987C5.83308 7.38486 5.88688 7.1834 5.98928 7.0058C6.09169 6.82819 6.23909 6.6807 6.41663 6.57819V3.49997H7.58329V6.57819C7.76011 6.67987 7.90708 6.82625 8.00947 7.00266C8.11185 7.17907 8.16605 7.3793 8.16662 7.58327ZM11.7016 3.23106C12.5515 4.14617 13.1159 5.28942 13.3255 6.52062C13.5352 7.75181 13.381 9.01743 12.8818 10.1623C12.3826 11.3071 11.5602 12.2814 10.5154 12.9656C9.47065 13.6498 8.24888 14.0143 6.99996 14.0143C5.75105 14.0143 4.52928 13.6498 3.48448 12.9656C2.43968 12.2814 1.61728 11.3071 1.11812 10.1623C0.618965 9.01743 0.464751 7.75181 0.674393 6.52062C0.884035 5.28942 1.44842 4.14617 2.29833 3.23106L1.72784 2.59698L1.21451 3.11031L0.389683 2.28548L2.2855 0.389663L3.11033 1.21449L2.55383 1.77099L3.16516 2.44998C4.11144 1.7381 5.23738 1.30401 6.41663 1.19641V0H7.58329V1.19641C8.76254 1.30401 9.88848 1.7381 10.8348 2.44998L11.4461 1.7704L10.9258 1.25066L11.7512 0.42583L13.6102 2.28548L12.7854 3.11031L12.2721 2.59698L11.7016 3.23106ZM12.2499 7.58327C12.2499 6.54493 11.942 5.5299 11.3651 4.66655C10.7883 3.8032 9.96834 3.1303 9.00903 2.73294C8.04973 2.33559 6.99414 2.23162 5.97574 2.43419C4.95735 2.63676 4.0219 3.13677 3.28768 3.87099C2.55346 4.60521 2.05345 5.54066 1.85088 6.55905C1.64831 7.57745 1.75228 8.63304 2.14963 9.59234C2.54699 10.5516 3.21989 11.3716 4.08324 11.9484C4.94659 12.5253 5.96162 12.8332 6.99996 12.8332C8.39186 12.8317 9.72631 12.2781 10.7105 11.2938C11.6948 10.3096 12.2484 8.97517 12.2499 7.58327Z" fill="white"/>
</g>
<defs>
<clipPath id="clip0_74_941">
<rect width="13.6347" height="13.6347" fill="white" transform="scale(1.02679)"/>
</clipPath>
</defs>
</svg>
