<svg width="15" height="15" viewBox="0 0 15 15" fill="none" xmlns="http://www.w3.org/2000/svg">
<path d="M1.875 13.125C1.875 14.1587 2.71625 15 3.75 15H8.125C9.15875 15 10 14.1587 10 13.125H10.3087C11.87 13.125 13.2019 11.9575 13.4069 10.41L13.5437 9.375H13.75C14.5619 9.375 15 8.73125 15 8.125C15 7.23812 13.1675 3.74125 12.3606 2.74312C11.06 1.00625 9.05562 0 6.875 0C6.52937 0 6.25 0.28 6.25 0.625V9.6875C6.25 11.2381 4.98812 12.5 3.4375 12.5H2.5C2.15437 12.5 1.875 12.78 1.875 13.125ZM0 7.8125V9.6875C0 10.5487 0.700625 11.25 1.5625 11.25H3.4375C4.29937 11.25 5 10.5487 5 9.6875V7.8125C5 6.95125 4.29937 6.25 3.4375 6.25H1.5625C0.700625 6.25 0 6.95125 0 7.8125ZM3.75 0H1.25C0.559375 0 0 0.559375 0 1.25V3.75C0 4.44062 0.559375 5 1.25 5H3.75C4.44062 5 5 4.44062 5 3.75V1.25C5 0.559375 4.44062 0 3.75 0ZM4.19937 2.19L3.06187 3.36687C2.56437 3.88125 1.73812 3.8775 1.24625 3.3575L0.765625 2.84937C0.53625 2.60687 0.538125 2.2275 0.769375 1.9875C1.01625 1.73062 1.42812 1.7325 1.6725 1.99125L2.15812 2.50437L3.30062 1.32187C3.545 1.06875 3.95062 1.0675 4.19625 1.31937C4.4325 1.56125 4.43375 1.94687 4.19875 2.19062L4.19937 2.19Z" fill="#70B500"/>
</svg>
