<svg width="15" height="15" viewBox="0 0 15 15" fill="none" xmlns="http://www.w3.org/2000/svg">
<path d="M5.35716 0C3.26787 0 1.60715 1.66072 1.60715 3.75001C1.60715 5.03573 2.2498 6.21472 3.26766 6.85758C1.33908 7.66115 0 9.58931 0 11.7857H1.07143C1.07143 9.4286 3.00001 7.50002 5.35716 7.50002C6.10716 7.50002 6.80401 7.71431 7.3933 8.03574C6.80401 8.78574 6.42859 9.69645 6.42859 10.7143C6.42859 13.0715 8.35717 15 10.7143 15C13.0715 15 15 13.0715 15 10.7143C15 8.35717 13.0715 6.42859 10.7143 6.42859C9.8036 6.42859 8.8933 6.75002 8.19687 7.23216C7.98258 7.07145 7.71452 6.96472 7.44666 6.85758C8.46452 6.16115 9.10717 5.03573 9.10717 3.75001C9.10717 1.66072 7.44645 0 5.35716 0ZM5.35716 1.07143C6.85716 1.07143 8.03574 2.25001 8.03574 3.75001C8.03574 5.25001 6.85716 6.42859 5.35716 6.42859C3.85715 6.42859 2.67858 5.25001 2.67858 3.75001C2.67858 2.25001 3.85715 1.07143 5.35716 1.07143ZM10.7143 7.50002C12.4822 7.50002 13.9286 8.94645 13.9286 10.7143C13.9286 12.4822 12.4822 13.9286 10.7143 13.9286C8.94645 13.9286 7.50002 12.4822 7.50002 10.7143C7.50002 8.94645 8.94645 7.50002 10.7143 7.50002ZM8.57145 10.1786V11.25H12.8572V10.1786H8.57145Z" fill="#FF8F0B"/>
</svg>
