<svg width="17" height="20" viewBox="0 0 17 20" fill="none" xmlns="http://www.w3.org/2000/svg">
<path d="M12.5 0H7.5C5.2025 0 3.33333 1.86917 3.33333 4.16667V12.5C3.33333 14.7975 5.2025 16.6667 7.5 16.6667H12.5C14.7975 16.6667 16.6667 14.7975 16.6667 12.5V4.16667C16.6667 1.86917 14.7975 0 12.5 0ZM15 12.5C15 13.8783 13.8783 15 12.5 15H7.5C6.12167 15 5 13.8783 5 12.5V4.16667C5 2.78833 6.12167 1.66667 7.5 1.66667H12.5C13.8783 1.66667 15 2.78833 15 4.16667V12.5ZM12.5 19.1667C12.5 19.6275 12.1267 20 11.6667 20H4.16667C1.86917 20 0 18.1308 0 15.8333V5.83333C0 5.3725 0.373333 5 0.833333 5C1.29333 5 1.66667 5.3725 1.66667 5.83333V15.8333C1.66667 17.2117 2.78833 18.3333 4.16667 18.3333H11.6667C12.1267 18.3333 12.5 18.7058 12.5 19.1667ZM8.33333 11.6667V12.5C8.33333 12.9608 7.96 13.3333 7.5 13.3333C7.04 13.3333 6.66667 12.9608 6.66667 12.5V11.6667C6.66667 11.2058 7.04 10.8333 7.5 10.8333C7.96 10.8333 8.33333 11.2058 8.33333 11.6667ZM13.3333 10.8333V12.5C13.3333 12.9608 12.96 13.3333 12.5 13.3333C12.04 13.3333 11.6667 12.9608 11.6667 12.5V10.8333C11.6667 10.3725 12.04 10 12.5 10C12.96 10 13.3333 10.3725 13.3333 10.8333ZM10.8333 10V12.5C10.8333 12.9608 10.46 13.3333 10 13.3333C9.54 13.3333 9.16667 12.9608 9.16667 12.5V10C9.16667 9.53917 9.54 9.16667 10 9.16667C10.46 9.16667 10.8333 9.53917 10.8333 10ZM13.3333 4.16667V6.08583C13.3333 6.6025 12.7083 6.86167 12.3433 6.49583L11.8467 5.99917L10.5892 7.25667C10.4267 7.41917 10.2133 7.50083 10 7.50083C9.78667 7.50083 9.57333 7.41917 9.41083 7.25667L8.75 6.59583L8.08917 7.25667C7.76333 7.5825 7.23667 7.5825 6.91083 7.25667C6.585 6.93083 6.585 6.40417 6.91083 6.07833L8.16083 4.82833C8.48667 4.5025 9.01333 4.5025 9.33917 4.82833L10 5.48917L10.6683 4.82083L10.1717 4.32417C9.80667 3.95917 10.065 3.33417 10.5817 3.33417H12.5008C12.9608 3.33417 13.3342 3.7075 13.3342 4.1675L13.3333 4.16667Z" fill="#7D7D7D"/>
</svg>
