<svg width="24" height="24" viewBox="0 0 24 24" fill="none" xmlns="http://www.w3.org/2000/svg">
<path d="M2 2.5C2 1.119 3.119 0 4.5 0C5.881 0 7 1.119 7 2.5C7 3.881 5.881 5 4.5 5C3.119 5 2 3.881 2 2.5ZM20.5 0H8.24C8.719 0.715 9 1.575 9 2.5C9 3.029 8.892 3.529 8.724 4H13.881C15.332 4 16.665 4.978 16.941 6.402C17.313 8.317 15.849 10 13.999 10H9.999V15H13.999V17.277C13.404 17.623 12.999 18.261 12.999 19C12.999 20.105 13.894 21 14.999 21C16.104 21 16.999 20.105 16.999 19C16.999 18.262 16.594 17.624 15.999 17.277V15H20.499C22.432 15 23.999 13.433 23.999 11.5V3.5C23.999 1.567 22.433 0 20.5 0ZM15 7C15 6.448 14.553 6 14 6H4C1.794 6 0 7.794 0 10V13C0 14.474 0.81 15.75 2 16.444V23C2 23.553 2.447 24 3 24C3.553 24 4 23.553 4 23V17H6V23C6 23.553 6.447 24 7 24C7.553 24 8 23.553 8 23V8H14C14.553 8 15 7.552 15 7Z" fill="white"/>
</svg>
