<svg width="20" height="20" viewBox="0 0 20 20" fill="none" xmlns="http://www.w3.org/2000/svg">
<path d="M13.25 19.9167C13 19.9167 12.75 20 12.5 20H2.5C1.08333 20 0 18.9167 0 17.5V1.66667H4.33333C4.66667 0.666667 5.58333 0 6.66667 0H8.33333C9.41667 0 10.3333 0.666667 10.6667 1.66667H15V8.33333H13.3333V3.33333H9.16667V2.5C9.16667 2 8.83333 1.66667 8.33333 1.66667H6.66667C6.16667 1.66667 5.83333 2 5.83333 2.5V3.33333H1.66667V17.5C1.66667 18 2 18.3333 2.5 18.3333H12C12.25 18.9167 12.6667 19.5 13.25 19.9167ZM18.0833 14.4167L15.5833 14C15.25 13.9167 15 13.6667 15 13.3333C15 12.8333 15.3333 12.5 15.8333 12.5H17.5C18 12.5 18.3333 12.8333 18.3333 13.3333H20C20 11.9167 18.9167 10.8333 17.5 10.8333V10H15.8333V10.8333C14.4167 10.8333 13.3333 11.9167 13.3333 13.3333C13.3333 14.5 14.1667 15.4167 15.25 15.5833L17.75 16C18.0833 16.0833 18.25 16.3333 18.25 16.6667C18.25 17.1667 17.9167 17.5 17.4167 17.5H15.75C15.25 17.5 14.9167 17.1667 14.9167 16.6667H13.25C13.25 18.0833 14.3333 19.1667 15.75 19.1667V20H17.4167V19.1667C18.8333 19.1667 19.9167 18.0833 19.9167 16.6667C20 15.5 19.1667 14.5833 18.0833 14.4167ZM7.16667 5.25L8.33333 6.41667L6 8.75C5.75 9 5.41667 9.16667 5.08333 9.16667C4.75 9.16667 4.41667 9 4.16667 8.75L2.75 7.41667L3.91667 6.25L5.08333 7.41667C5.08333 7.33333 7.16667 5.25 7.16667 5.25ZM7.16667 10.25L8.33333 11.4167L6 13.75C5.75 14 5.41667 14.1667 5.08333 14.1667C4.75 14.1667 4.41667 14 4.16667 13.75L2.83333 12.4167L4 11.25L5.16667 12.4167C5.08333 12.3333 7.16667 10.25 7.16667 10.25Z" fill="#7D7D7D"/>
</svg>
