<svg width="16" height="16" viewBox="0 0 16 16" fill="none" xmlns="http://www.w3.org/2000/svg">
<g clip-path="url(#clip0_74_613)">
<path d="M1.33203 13C1.33203 12.2143 1.33203 11.8214 1.62492 11.5774C1.91782 11.3333 2.38922 11.3333 3.33203 11.3333C4.27484 11.3333 4.74624 11.3333 5.03914 11.5774C5.33203 11.8214 5.33203 12.2143 5.33203 13C5.33203 13.7856 5.33203 14.1785 5.03914 14.4226C4.74624 14.6666 4.27484 14.6666 3.33203 14.6666C2.38922 14.6666 1.91782 14.6666 1.62492 14.4226C1.33203 14.1785 1.33203 13.7856 1.33203 13Z" stroke="#A4A4A4"/>
<path d="M10.668 13C10.668 12.2143 10.668 11.8214 10.9608 11.5774C11.2538 11.3333 11.7252 11.3333 12.668 11.3333C13.6108 11.3333 14.0822 11.3333 14.3751 11.5774C14.668 11.8214 14.668 12.2143 14.668 13C14.668 13.7856 14.668 14.1785 14.3751 14.4226C14.0822 14.6666 13.6108 14.6666 12.668 14.6666C11.7252 14.6666 11.2538 14.6666 10.9608 14.4226C10.668 14.1785 10.668 13.7856 10.668 13Z" stroke="#A4A4A4"/>
<path d="M12.6654 11.3334C12.6654 9.12715 12.1695 8.66669 9.79357 8.66669H6.20383C3.82789 8.66669 3.33203 9.12715 3.33203 11.3334" stroke="#A4A4A4"/>
<path d="M8 6.66665H8.375C9.42833 6.66665 9.955 6.66665 10.3333 6.41697C10.4971 6.30889 10.6377 6.16999 10.7472 6.00823C11 5.63457 11 5.1144 11 4.07405C11 3.44985 11 3.13775 10.8483 2.91355C10.7827 2.81649 10.6983 2.73315 10.6 2.66831C10.373 2.5185 10.057 2.5185 9.425 2.5185H8.42833C8.34173 2.5185 8.2984 2.5185 8.2586 2.51273C8.10967 2.49113 7.97647 2.41027 7.89053 2.28933C7.8676 2.25701 7.8484 2.21905 7.81 2.14313C7.65253 1.83215 7.50867 1.51913 7.1598 1.38991C7.007 1.33331 6.8324 1.33331 6.48328 1.33331C5.93834 1.33331 5.66587 1.33331 5.46142 1.446C5.31568 1.52633 5.19543 1.64509 5.11409 1.78903C5 1.99096 5 2.26007 5 2.79828V3.70369C5 5.10044 5 5.79881 5.43934 6.23273C5.87868 6.66664 6.58579 6.66665 8 6.66665Z" stroke="#A4A4A4"/>
</g>
<defs>
<clipPath id="clip0_74_613">
<rect width="16" height="16" fill="white"/>
</clipPath>
</defs>
</svg>
