<svg width="22" height="22" viewBox="0 0 22 22" fill="none" xmlns="http://www.w3.org/2000/svg">
<path d="M11 2.5C9.21997 2.5 7.47991 3.02784 5.99987 4.01677C4.51983 5.00571 3.36628 6.41131 2.68509 8.05585C2.0039 9.70038 1.82567 11.51 2.17294 13.2558C2.5202 15.0016 3.37737 16.6053 4.63604 17.864C5.89471 19.1226 7.49836 19.9798 9.24419 20.3271C10.99 20.6743 12.7996 20.4961 14.4442 19.8149C16.0887 19.1337 17.4943 17.9802 18.4832 16.5001C19.4722 15.0201 20 13.28 20 11.5C19.9974 9.11384 19.0484 6.82616 17.3611 5.13889C15.6738 3.45162 13.3862 2.50258 11 2.5ZM11 19C9.51664 19 8.06659 18.5601 6.83323 17.736C5.59986 16.9119 4.63856 15.7406 4.07091 14.3701C3.50325 12.9997 3.35473 11.4917 3.64411 10.0368C3.9335 8.58196 4.64781 7.24559 5.6967 6.1967C6.7456 5.1478 8.08197 4.4335 9.53683 4.14411C10.9917 3.85472 12.4997 4.00325 13.8701 4.5709C15.2406 5.13856 16.4119 6.09985 17.236 7.33322C18.0601 8.56659 18.5 10.0166 18.5 11.5C18.4978 13.4885 17.7069 15.3948 16.3009 16.8009C14.8948 18.2069 12.9885 18.9978 11 19Z" fill="black"/>
<path d="M11 7C10.801 7 10.6103 7.07902 10.4696 7.21967C10.329 7.36032 10.25 7.55109 10.25 7.75V10.9937L7.72171 12.5777C7.55263 12.6834 7.43244 12.8518 7.38757 13.0461C7.34271 13.2403 7.37684 13.4444 7.48246 13.6135C7.58808 13.7826 7.75654 13.9028 7.95078 13.9476C8.14503 13.9925 8.34913 13.9584 8.51821 13.8527L11.3982 12.0528C11.507 11.9846 11.5965 11.8896 11.6581 11.7769C11.7197 11.6643 11.7513 11.5377 11.75 11.4092V7.75C11.75 7.55109 11.6709 7.36032 11.5303 7.21967C11.3896 7.07902 11.1989 7 11 7Z" fill="black"/>
</svg>
