<svg width="24" height="24" viewBox="0 0 24 24" fill="none" xmlns="http://www.w3.org/2000/svg">
<path d="M19 1H5C2.243 1 0 3.243 0 6V18C0 20.757 2.243 23 5 23H19C21.757 23 24 20.757 24 18V6C24 3.243 21.757 1 19 1ZM5 3H19C20.654 3 22 4.346 22 6V8H2V6C2 4.346 3.346 3 5 3ZM19 21H5C3.346 21 2 19.654 2 18V10H22V18C22 19.654 20.654 21 19 21ZM3 5.5C3 4.672 3.672 4 4.5 4C5.328 4 6 4.672 6 5.5C6 6.328 5.328 7 4.5 7C3.672 7 3 6.328 3 5.5ZM7 5.5C7 4.672 7.672 4 8.5 4C9.328 4 10 4.672 10 5.5C10 6.328 9.328 7 8.5 7C7.672 7 7 6.328 7 5.5ZM9 16V18C9 18.553 8.552 19 8 19C7.448 19 7 18.553 7 18V16C7 15.447 7.448 15 8 15C8.552 15 9 15.447 9 16ZM13 13V18C13 18.553 12.552 19 12 19C11.448 19 11 18.553 11 18V13C11 12.447 11.448 12 12 12C12.552 12 13 12.447 13 13ZM17 15V18C17 18.553 16.552 19 16 19C15.448 19 15 18.553 15 18V15C15 14.447 15.448 14 16 14C16.552 14 17 14.447 17 15Z" fill="#5B5B5B"/>
</svg>
