<svg width="12" height="13" viewBox="0 0 12 13" fill="none" xmlns="http://www.w3.org/2000/svg">
<path d="M2.18182 0V0.545456H0V12.5455H12V0.545456H9.8182V0H8.72729V0.545456H3.27273V0H2.18182ZM1.09091 1.63637H2.18182V2.18182H3.27273V1.63637H8.72729V2.18182H9.8182V1.63637H10.9091V2.72728H1.09091V1.63637ZM1.09091 3.81819H10.9091V11.4546H1.09091V3.81819ZM4.36364 4.9091V6.00001H5.45456V4.9091H4.36364ZM6.54547 4.9091V6.00001H7.63638V4.9091H6.54547ZM8.72729 4.9091V6.00001H9.8182V4.9091H8.72729ZM2.18182 7.09092V8.18183H3.27273V7.09092H2.18182ZM4.36364 7.09092V8.18183H5.45456V7.09092H4.36364ZM6.54547 7.09092V8.18183H7.63638V7.09092H6.54547ZM8.72729 7.09092V8.18183H9.8182V7.09092H8.72729ZM2.18182 9.27274V10.3637H9.8182V9.27274H2.18182Z" fill="#345DC7"/>
</svg>
