<svg width="21" height="20" viewBox="0 0 21 20" fill="none" xmlns="http://www.w3.org/2000/svg">
<path d="M5 9.16667C5.46 9.16667 5.83333 9.53917 5.83333 10V12.5C5.83333 12.9608 5.46 13.3333 5 13.3333C4.54 13.3333 4.16667 12.9608 4.16667 12.5V10C4.16667 9.53917 4.54 9.16667 5 9.16667ZM7.5 6.66667V12.5C7.5 12.9608 7.87333 13.3333 8.33333 13.3333C8.79333 13.3333 9.16667 12.9608 9.16667 12.5V6.66667C9.16667 6.20583 8.79333 5.83333 8.33333 5.83333C7.87333 5.83333 7.5 6.20583 7.5 6.66667ZM10.8333 9.16667V12.5C10.8333 12.9608 11.2058 13.3333 11.6667 13.3333C12.1275 13.3333 12.5 12.9608 12.5 12.5V9.16667C12.5 8.70583 12.1275 8.33333 11.6667 8.33333C11.2058 8.33333 10.8333 8.70583 10.8333 9.16667ZM15.2625 5.61083L17.7958 6.0325C18.1075 6.08417 18.3333 6.35083 18.3333 6.66667C18.3333 7.12667 17.96 7.5 17.5 7.5H15.61C15.3133 7.5 15.0367 7.34083 14.8875 7.0825C14.6583 6.68417 14.1492 6.54583 13.7492 6.77917C13.3508 7.00917 13.2142 7.51917 13.4458 7.9175C13.8908 8.68833 14.7208 9.16667 15.6108 9.16667H15.8342C15.8342 9.6275 16.2067 10 16.6675 10C17.1283 10 17.5008 9.6275 17.5008 9.16667C18.8792 9.16667 20.0008 8.045 20.0008 6.66667C20.0008 5.53417 19.1892 4.575 18.0717 4.38917L15.5383 3.9675C15.2267 3.91583 15.0008 3.64917 15.0008 3.33333C15.0008 2.87333 15.3742 2.5 15.8342 2.5H17.7242C18.0208 2.5 18.2975 2.65917 18.4467 2.9175C18.6758 3.31583 19.1842 3.4525 19.585 3.22083C19.9833 2.99083 20.12 2.48083 19.8883 2.0825C19.4433 1.31167 18.6133 0.833333 17.7233 0.833333H17.5C17.5 0.3725 17.1275 0 16.6667 0C16.2058 0 15.8333 0.3725 15.8333 0.833333C14.455 0.833333 13.3333 1.955 13.3333 3.33333C13.3333 4.46583 14.145 5.425 15.2625 5.61083ZM19.1667 10.8333C18.7058 10.8333 18.3333 11.2058 18.3333 11.6667V12.5C18.3333 13.8783 17.2117 15 15.8333 15H4.16667C2.78833 15 1.66667 13.8783 1.66667 12.5V5.83333C1.66667 4.455 2.78833 3.33333 4.16667 3.33333H10.8333C11.2942 3.33333 11.6667 2.96083 11.6667 2.5C11.6667 2.03917 11.2942 1.66667 10.8333 1.66667H4.16667C1.86917 1.66667 0 3.53583 0 5.83333V12.5C0 14.7975 1.86917 16.6667 4.16667 16.6667H9.16667V18.3333H5.83333C5.37333 18.3333 5 18.7058 5 19.1667C5 19.6275 5.37333 20 5.83333 20H14.1667C14.6275 20 15 19.6275 15 19.1667C15 18.7058 14.6275 18.3333 14.1667 18.3333H10.8333V16.6667H15.8333C18.1308 16.6667 20 14.7975 20 12.5V11.6667C20 11.2058 19.6275 10.8333 19.1667 10.8333Z" fill="#7D7D7D"/>
</svg>
