<svg width="12" height="11" viewBox="0 0 12 11" fill="none" xmlns="http://www.w3.org/2000/svg">
<g clip-path="url(#clip0_74_1859)">
<path d="M9.1087 8.19125C8.86664 9.08286 7.92584 9.71608 7.0087 9.60468C6.09155 9.49328 5.54365 8.67924 5.78571 7.78763C6.02777 6.89601 6.96857 6.2628 7.88571 6.3742C8.80285 6.4856 9.35075 7.29964 9.1087 8.19125Z" stroke="white" stroke-width="0.699425" stroke-linecap="round" stroke-linejoin="round"/>
<path d="M7.59555 7.6266L7.37003 8.45729" stroke="white" stroke-width="0.466283" stroke-linecap="round" stroke-linejoin="round"/>
<path d="M5.41786 0.830263L5.07959 2.0763" stroke="white" stroke-width="0.699425" stroke-miterlimit="10" stroke-linecap="round" stroke-linejoin="round"/>
<path d="M8.4071 1.19382L8.06882 2.43986" stroke="white" stroke-width="0.699425" stroke-miterlimit="10" stroke-linecap="round" stroke-linejoin="round"/>
<path d="M2.49235 3.47879L9.32821 4.3091" stroke="white" stroke-width="0.699425" stroke-miterlimit="10" stroke-linecap="round" stroke-linejoin="round"/>
<path d="M9.88342 3.88931L9.0211 7.0657C8.8176 6.6945 8.44399 6.42788 7.95978 6.36907C7.06804 6.26075 6.14938 6.8964 5.90692 7.78951C5.82463 8.0926 5.83148 8.38982 5.91495 8.65043C5.96019 8.8062 6.03403 8.94876 6.13059 9.06902L3.15675 8.70781C1.74448 8.53627 1.35865 7.65451 1.68778 6.44214L2.62033 3.00711C2.94946 1.79474 3.77414 1.06002 5.18641 1.23156L8.41445 1.62365C9.82672 1.79518 10.2126 2.67694 9.88342 3.88931Z" stroke="white" stroke-width="0.699425" stroke-miterlimit="10" stroke-linecap="round" stroke-linejoin="round"/>
<path d="M5.616 5.78884L5.61984 5.7893" stroke="white" stroke-width="0.932567" stroke-linecap="round" stroke-linejoin="round"/>
<path d="M4.3328 5.6331L4.33664 5.63357" stroke="white" stroke-width="0.932567" stroke-linecap="round" stroke-linejoin="round"/>
<path d="M3.9946 6.87849L3.99844 6.87896" stroke="white" stroke-width="0.932567" stroke-linecap="round" stroke-linejoin="round"/>
</g>
<defs>
<clipPath id="clip0_74_1859">
<rect width="9.32567" height="9.32567" fill="white" transform="matrix(1.01808 0.123659 -0.268694 0.989735 2.50575 0)"/>
</clipPath>
</defs>
</svg>
