<svg width="24" height="24" viewBox="0 0 24 24" fill="none" xmlns="http://www.w3.org/2000/svg">
<path d="M2.83301 1.90039C3.08054 1.90039 3.31813 1.99879 3.49316 2.17383C3.66802 2.34877 3.76652 2.58567 3.7666 2.83301V17.833C3.7666 18.4695 4.01964 19.0802 4.46973 19.5303C4.91981 19.9804 5.53047 20.2334 6.16699 20.2334H21.167C21.4143 20.2335 21.6512 20.332 21.8262 20.5068C22.0012 20.6819 22.0996 20.9195 22.0996 21.167C22.0995 21.4144 22.0011 21.6512 21.8262 21.8262C21.6512 22.0011 21.4144 22.0995 21.167 22.0996H6.16699C5.03585 22.0983 3.95121 21.6485 3.15137 20.8486C2.35153 20.0488 1.90175 18.9642 1.90039 17.833V2.83301C1.90048 2.58559 1.99887 2.34879 2.17383 2.17383C2.34879 1.99887 2.58559 1.90048 2.83301 1.90039Z" fill="#5B5B5B" stroke="#5B5B5B" stroke-width="0.2"/>
<path d="M6.98926 10.041C7.23679 10.041 7.47438 10.1394 7.64941 10.3145C7.82427 10.4894 7.92277 10.7263 7.92285 10.9736V16.8076C7.92277 17.055 7.82427 17.2919 7.64941 17.4668C7.47438 17.6418 7.23679 17.7402 6.98926 17.7402C6.74184 17.7401 6.50504 17.6418 6.33008 17.4668C6.15512 17.2918 6.05673 17.055 6.05664 16.8076V10.9736C6.05673 10.7262 6.15512 10.4894 6.33008 10.3145C6.50504 10.1395 6.74184 10.0411 6.98926 10.041Z" fill="#5B5B5B" stroke="#5B5B5B" stroke-width="0.2"/>
<path d="M11.1768 8.38477C11.4243 8.38477 11.6619 8.48317 11.8369 8.6582C12.0118 8.83314 12.1103 9.07004 12.1104 9.31738V16.8174C12.1104 17.0649 12.0119 17.3025 11.8369 17.4775C11.6619 17.6526 11.4243 17.751 11.1768 17.751C10.9294 17.7509 10.6925 17.6524 10.5176 17.4775C10.3425 17.3025 10.2441 17.0649 10.2441 16.8174V9.31738C10.2442 9.06996 10.3426 8.83316 10.5176 8.6582C10.6925 8.48325 10.9293 8.38485 11.1768 8.38477Z" fill="#5B5B5B" stroke="#5B5B5B" stroke-width="0.2"/>
<path d="M15.333 10.8848C15.5805 10.8848 15.8181 10.9832 15.9932 11.1582C16.168 11.3331 16.2665 11.57 16.2666 11.8174V16.8174C16.2666 17.0649 16.1682 17.3025 15.9932 17.4775C15.8181 17.6526 15.5805 17.751 15.333 17.751C15.0857 17.7509 14.8488 17.6524 14.6738 17.4775C14.4988 17.3025 14.4004 17.0649 14.4004 16.8174V11.8174C14.4005 11.57 14.4989 11.3332 14.6738 11.1582C14.8488 10.9832 15.0856 10.8849 15.333 10.8848Z" fill="#5B5B5B" stroke="#5B5B5B" stroke-width="0.2"/>
<path d="M19.4893 7.54102C19.7368 7.54102 19.9744 7.63942 20.1494 7.81445C20.3243 7.98939 20.4228 8.22629 20.4229 8.47363V16.8076C20.4228 17.055 20.3243 17.2919 20.1494 17.4668C19.9744 17.6418 19.7368 17.7402 19.4893 17.7402C19.2418 17.7401 19.005 17.6418 18.8301 17.4668C18.6551 17.2918 18.5567 17.055 18.5566 16.8076V8.47363C18.5567 8.22622 18.6551 7.98941 18.8301 7.81445C19.005 7.6395 19.2418 7.5411 19.4893 7.54102Z" fill="#5B5B5B" stroke="#5B5B5B" stroke-width="0.2"/>
<path d="M21.1543 0.900391C21.3989 0.90261 21.6327 1.00086 21.8057 1.17383C21.9786 1.34685 22.077 1.58056 22.0791 1.8252C22.0812 2.06979 21.9872 2.30544 21.8174 2.48145L21.8164 2.4834L17.1611 7.1377C16.6736 7.62512 16.0117 7.89941 15.3223 7.89941C14.633 7.89929 13.9718 7.62501 13.4844 7.1377L11.6758 5.3291C11.5356 5.19586 11.3496 5.12114 11.1562 5.12109C10.9626 5.12109 10.776 5.19648 10.6357 5.33008L7.64941 8.31641C7.47442 8.49145 7.23677 8.58979 6.98926 8.58984C6.80474 8.58978 6.62412 8.53515 6.4707 8.43262C6.31729 8.33006 6.19757 8.18416 6.12695 8.01367C6.05636 7.84322 6.03828 7.65556 6.07422 7.47461C6.11022 7.29359 6.19861 7.12662 6.3291 6.99609L9.31738 4.00781H9.31836C9.80589 3.52066 10.467 3.24707 11.1562 3.24707C11.8455 3.24712 12.5066 3.52059 12.9941 4.00781L14.8047 5.81738C14.9421 5.95462 15.1281 6.0321 15.3223 6.03223C15.5166 6.03223 15.7033 5.95474 15.8408 5.81738L20.4961 1.16309L20.4971 1.16211C20.6731 0.992095 20.9096 0.898264 21.1543 0.900391Z" fill="#5B5B5B" stroke="#5B5B5B" stroke-width="0.2"/>
</svg>
