<svg width="30" height="30" viewBox="0 0 30 30" fill="none" xmlns="http://www.w3.org/2000/svg">
<rect width="30" height="30" rx="4.22919" fill="#E34848" fill-opacity="0.1"/>
<path d="M13.6603 21.0384C15.6988 21.0384 17.5053 20.0262 18.5983 18.4754L17.7805 17.8936C16.8704 19.1869 15.3666 20.0321 13.6603 20.0321C10.8749 20.0321 8.62804 17.7855 8.62804 15.0003C8.62804 12.2151 10.8749 9.96849 13.6603 9.96849C15.3666 9.96849 16.8684 10.8137 17.7805 12.107L18.5983 11.5252C17.5053 9.97439 15.6988 8.96214 13.6603 8.96214C10.3304 8.96214 7.62158 11.6707 7.62158 15.0003C7.62158 18.3299 10.3304 21.0384 13.6603 21.0384Z" fill="#E34848"/>
<path d="M20.0194 12.7471L19.296 13.4704L20.444 14.6183H14.3109V15.6246H20.444L19.296 16.7725L20.0194 17.4958L22.0324 15.4831L22.3783 15.1215L22.0324 14.7598L20.0194 12.7471Z" fill="#E34848"/>
</svg>
