<svg width="20" height="20" viewBox="0 0 20 20" fill="none" xmlns="http://www.w3.org/2000/svg">
<path d="M5 12.5C5.46083 12.5 5.83333 12.8733 5.83333 13.3333V15.8333C5.83333 16.2933 5.46083 16.6667 5 16.6667C4.53917 16.6667 4.16667 16.2933 4.16667 15.8333V13.3333C4.16667 12.8733 4.53917 12.5 5 12.5ZM8.33333 9.16667C7.8725 9.16667 7.5 9.54 7.5 10V15.8333C7.5 16.2933 7.8725 16.6667 8.33333 16.6667C8.79417 16.6667 9.16667 16.2933 9.16667 15.8333V10C9.16667 9.54 8.79417 9.16667 8.33333 9.16667ZM20 18.1942C20 19.3417 18.6325 20 16.25 20C13.8675 20 12.5 19.3417 12.5 18.1942V12.0833C12.5 11.3475 14.0417 10.8333 16.25 10.8333C18.4583 10.8333 20 11.3475 20 12.0833V18.1942ZM16.25 13.3333C15.4533 13.3333 14.7483 13.2642 14.1667 13.1442V14.6183C14.3742 14.7558 14.9967 15 16.25 15C17.4833 15 18.1142 14.7417 18.3333 14.5925V13.145C17.7517 13.265 17.0467 13.3333 16.25 13.3333ZM18.3333 18.0058V16.3908C17.7817 16.5583 17.1 16.6667 16.25 16.6667C15.3825 16.6667 14.7083 16.5608 14.1667 16.3992V18.0058C14.4133 18.1392 15.095 18.3333 16.25 18.3333C17.405 18.3333 18.0867 18.1392 18.3333 18.0058ZM10.8333 8.33333C9.455 8.33333 8.33333 7.21167 8.33333 5.83333V1.70583C8.19833 1.6925 8.06583 1.66667 7.92917 1.66667H4.16667C2.78833 1.66667 1.66667 2.78833 1.66667 4.16667V15.8333C1.66667 17.2117 2.78833 18.3333 4.16667 18.3333H10C10.4608 18.3333 10.8333 18.7067 10.8333 19.1667C10.8333 19.6267 10.4608 20 10 20H4.16667C1.86917 20 0 18.1308 0 15.8333V4.16667C0 1.86917 1.86917 0 4.16667 0H7.92917C9.48667 0 10.9517 0.606667 12.0542 1.70833L14.9575 4.61333C15.935 5.59 16.5358 6.8875 16.6475 8.26583C16.685 8.72417 16.3433 9.12667 15.8842 9.16417C15.3958 9.21083 14.9975 8.81583 14.9742 8.33333H10.8325H10.8333ZM10.8333 6.66667H14.43C14.2483 6.35167 14.04 6.05167 13.7792 5.79167L10.8758 2.8875C10.6133 2.625 10.3133 2.4175 10 2.23667V5.83333C10 6.2925 10.3733 6.66667 10.8333 6.66667Z" fill="#7D7D7D"/>
</svg>
