<svg width="22" height="22" viewBox="0 0 22 22" fill="none" xmlns="http://www.w3.org/2000/svg">
<path d="M16.8055 3.36109H16.0416V2.5972C16.0416 2.39461 15.9611 2.20031 15.8179 2.05705C15.6746 1.91379 15.4803 1.83331 15.2777 1.83331C15.0751 1.83331 14.8808 1.91379 14.7376 2.05705C14.5943 2.20031 14.5138 2.39461 14.5138 2.5972V3.36109H8.40274V2.5972C8.40274 2.39461 8.32226 2.20031 8.179 2.05705C8.03574 1.91379 7.84144 1.83331 7.63885 1.83331C7.43625 1.83331 7.24195 1.91379 7.0987 2.05705C6.95544 2.20031 6.87496 2.39461 6.87496 2.5972V3.36109H6.11107C5.09846 3.3623 4.12768 3.7651 3.41165 4.48112C2.69563 5.19714 2.29284 6.16793 2.29163 7.18053L2.29163 16.3472C2.29284 17.3598 2.69563 18.3306 3.41165 19.0466C4.12768 19.7626 5.09846 20.1654 6.11107 20.1666H16.8055C17.8181 20.1654 18.7889 19.7626 19.5049 19.0466C20.221 18.3306 20.6237 17.3598 20.625 16.3472V7.18053C20.6237 6.16793 20.221 5.19714 19.5049 4.48112C18.7889 3.7651 17.8181 3.3623 16.8055 3.36109ZM3.8194 7.18053C3.8194 6.57275 4.06085 5.98985 4.49062 5.56008C4.92039 5.13031 5.50328 4.88887 6.11107 4.88887H16.8055C17.4133 4.88887 17.9962 5.13031 18.426 5.56008C18.8557 5.98985 19.0972 6.57275 19.0972 7.18053V7.94442H3.8194V7.18053ZM16.8055 18.6389H6.11107C5.50328 18.6389 4.92039 18.3974 4.49062 17.9677C4.06085 17.5379 3.8194 16.955 3.8194 16.3472V9.4722H19.0972V16.3472C19.0972 16.955 18.8557 17.5379 18.426 17.9677C17.9962 18.3974 17.4133 18.6389 16.8055 18.6389Z" fill="black"/>
<path d="M11.4583 14.4375C12.0912 14.4375 12.6042 13.9245 12.6042 13.2916C12.6042 12.6588 12.0912 12.1458 11.4583 12.1458C10.8255 12.1458 10.3125 12.6588 10.3125 13.2916C10.3125 13.9245 10.8255 14.4375 11.4583 14.4375Z" fill="black"/>
<path d="M7.63888 14.4375C8.2717 14.4375 8.78471 13.9245 8.78471 13.2916C8.78471 12.6588 8.2717 12.1458 7.63888 12.1458C7.00605 12.1458 6.49304 12.6588 6.49304 13.2916C6.49304 13.9245 7.00605 14.4375 7.63888 14.4375Z" fill="black"/>
<path d="M15.2778 14.4375C15.9106 14.4375 16.4236 13.9245 16.4236 13.2916C16.4236 12.6588 15.9106 12.1458 15.2778 12.1458C14.645 12.1458 14.132 12.6588 14.132 13.2916C14.132 13.9245 14.645 14.4375 15.2778 14.4375Z" fill="black"/>
</svg>
