<svg width="20" height="20" viewBox="0 0 20 20" fill="none" xmlns="http://www.w3.org/2000/svg">
<path d="M14.6667 4.66667H13.9333C13.7786 3.91428 13.3692 3.23823 12.7742 2.75248C12.1791 2.26673 11.4348 2.00097 10.6667 2L9.33333 2C8.5652 2.00097 7.82088 2.26673 7.22583 2.75248C6.63079 3.23823 6.2214 3.91428 6.06667 4.66667H5.33333C4.4496 4.66773 3.60237 5.01925 2.97748 5.64415C2.35259 6.26904 2.00106 7.11627 2 8L2 14.6667C2.00106 15.5504 2.35259 16.3976 2.97748 17.0225C3.60237 17.6474 4.4496 17.9989 5.33333 18H14.6667C15.5504 17.9989 16.3976 17.6474 17.0225 17.0225C17.6474 16.3976 17.9989 15.5504 18 14.6667V8C17.9989 7.11627 17.6474 6.26904 17.0225 5.64415C16.3976 5.01925 15.5504 4.66773 14.6667 4.66667ZM9.33333 3.33333H10.6667C11.0788 3.33504 11.4804 3.46406 11.8165 3.70273C12.1525 3.94139 12.4066 4.27806 12.544 4.66667H7.456C7.59339 4.27806 7.84749 3.94139 8.18353 3.70273C8.51958 3.46406 8.92116 3.33504 9.33333 3.33333ZM5.33333 6H14.6667C15.1971 6 15.7058 6.21071 16.0809 6.58579C16.456 6.96086 16.6667 7.46957 16.6667 8V10H3.33333V8C3.33333 7.46957 3.54405 6.96086 3.91912 6.58579C4.29419 6.21071 4.8029 6 5.33333 6ZM14.6667 16.6667H5.33333C4.8029 16.6667 4.29419 16.456 3.91912 16.0809C3.54405 15.7058 3.33333 15.1971 3.33333 14.6667V11.3333H9.33333V12C9.33333 12.1768 9.40357 12.3464 9.5286 12.4714C9.65362 12.5964 9.82319 12.6667 10 12.6667C10.1768 12.6667 10.3464 12.5964 10.4714 12.4714C10.5964 12.3464 10.6667 12.1768 10.6667 12V11.3333H16.6667V14.6667C16.6667 15.1971 16.456 15.7058 16.0809 16.0809C15.7058 16.456 15.1971 16.6667 14.6667 16.6667Z" fill="black"/>
</svg>
