<svg width="24" height="25" viewBox="0 0 24 25" fill="none" xmlns="http://www.w3.org/2000/svg">
<path d="M18.454 24.111L17.85 23.805C16.715 23.239 13 21.106 13 17.535V13.999C13 13.137 13.551 12.374 14.37 12.103L18.5 10.734L22.63 12.103C23.449 12.374 24 13.137 24 13.999V17.535C24 21.565 20.236 23.393 19.083 23.857L18.454 24.111ZM15 0.586V5H19.414L15 0.586ZM11.44 20H5V18H11.015C11.005 17.848 11 17.693 11 17.536V16H5V14H11C11 12.273 12.102 10.748 13.741 10.205L18.5 8.627L20 9.124V7H13V0H3C1.343 0 0 1.343 0 3V24H14.478C13.305 23.053 12.076 21.723 11.44 20Z" fill="white"/>
</svg>
