<svg width="17" height="17" viewBox="0 0 17 17" fill="none" xmlns="http://www.w3.org/2000/svg">
<path d="M0 8.50001C0 10.1811 0.498517 11.8245 1.43251 13.2224C2.3665 14.6202 3.69402 15.7096 5.24719 16.353C6.80037 16.9963 8.50944 17.1647 10.1583 16.8367C11.8071 16.5087 13.3217 15.6992 14.5104 14.5104C15.6992 13.3217 16.5087 11.8071 16.8367 10.1583C17.1647 8.50944 16.9963 6.80037 16.353 5.24719C15.7096 3.69402 14.6202 2.3665 13.2224 1.43251C11.8245 0.498517 10.1811 0 8.50001 0C6.24641 0.00243743 4.08582 0.898754 2.49229 2.49229C0.898754 4.08582 0.00243743 6.24641 0 8.50001ZM15.5833 8.50001C15.5833 9.90096 15.1679 11.2704 14.3896 12.4353C13.6113 13.6001 12.505 14.508 11.2107 15.0442C9.91637 15.5803 8.49215 15.7206 7.11812 15.4472C5.74408 15.1739 4.48195 14.4993 3.49133 13.5087C2.50071 12.5181 1.82608 11.2559 1.55277 9.8819C1.27946 8.50786 1.41973 7.08364 1.95585 5.78933C2.49198 4.49502 3.39987 3.38875 4.56471 2.61043C5.72956 1.8321 7.09905 1.41667 8.50001 1.41667C10.378 1.41873 12.1785 2.16567 13.5064 3.49361C14.8343 4.82154 15.5813 6.62202 15.5833 8.50001ZM8.32788 5.49455L9.32946 4.49296L12.3349 7.49842C12.6005 7.76409 12.7497 8.12436 12.7497 8.50001C12.7497 8.87566 12.6005 9.23593 12.3349 9.50159L9.32946 12.5071L8.32788 11.5055L10.625 9.20834H4.25V7.79167H10.625L8.32788 5.49455Z" fill="white"/>
</svg>
