<svg width="12" height="11" viewBox="0 0 12 11" fill="none" xmlns="http://www.w3.org/2000/svg">
<g clip-path="url(#clip0_74_1829)">
<path d="M2.69014 3.83569C2.29777 3.78803 1.89374 4.05985 1.79014 4.44145C1.68654 4.82305 1.92191 5.17253 2.31427 5.22018C2.70664 5.26784 3.11067 4.99603 3.21427 4.61443C3.31948 4.23302 3.08411 3.88355 2.69014 3.83569ZM2.41702 4.84173C2.23779 4.81997 2.13057 4.66197 2.17766 4.48852C2.22475 4.31506 2.40817 4.19237 2.58739 4.21414C2.76662 4.23591 2.87546 4.3941 2.82837 4.56755C2.78128 4.74101 2.59624 4.8635 2.41702 4.84173Z" fill="#93AABE" stroke="#93AABE" stroke-width="0.186513"/>
<path d="M9.43498 6.085C9.82735 6.13266 10.2314 5.86085 10.335 5.47924C10.4386 5.09764 10.2032 4.74817 9.81084 4.70051C9.41848 4.65285 9.01444 4.92466 8.91084 5.30626C8.80726 5.68787 9.04263 6.03734 9.43498 6.085ZM9.7081 5.07896C9.88733 5.10073 9.99455 5.25872 9.94746 5.43217C9.90037 5.60563 9.71695 5.72832 9.53772 5.70655C9.35849 5.68478 9.25127 5.52679 9.29836 5.35333C9.34545 5.17988 9.52889 5.05719 9.7081 5.07896Z" fill="#93AABE" stroke="#93AABE" stroke-width="0.186513"/>
<path d="M9.67322 2.71908C9.70111 2.76053 9.74696 2.78595 9.79803 2.79216C9.8491 2.79836 9.90374 2.78514 9.95327 2.7531L10.4259 2.43487L10.7012 2.84394C10.7291 2.88539 10.7749 2.91081 10.826 2.91701C10.877 2.92322 10.9317 2.91 10.9812 2.87795C11.0791 2.81207 11.1121 2.69032 11.0552 2.60562L10.7799 2.19656L11.2526 1.87833C11.3505 1.81245 11.3835 1.6907 11.3265 1.606C11.2695 1.5213 11.1443 1.5061 11.0465 1.57198L10.5738 1.89021L10.2986 1.48114C10.2416 1.39645 10.1164 1.38124 10.0185 1.44713C9.92067 1.51301 9.88762 1.63476 9.9446 1.71946L10.2198 2.12852L9.74716 2.44675C9.64929 2.51264 9.61624 2.63438 9.67322 2.71908Z" fill="#93AABE" stroke="#93AABE" stroke-width="0.186513"/>
<path d="M9.44724 8.52853C9.39025 8.44383 9.26505 8.42863 9.16719 8.49451L8.69452 8.81274L8.41929 8.40367C8.3623 8.31897 8.23711 8.30377 8.13924 8.36965C8.04137 8.43554 8.00832 8.55729 8.06531 8.64199L8.34053 9.05105L7.86786 9.36928C7.77 9.43516 7.73694 9.55691 7.79393 9.64161C7.82182 9.68306 7.86766 9.70848 7.91873 9.71468C7.9698 9.72089 8.02444 9.70767 8.07398 9.67562L8.54665 9.3574L8.82188 9.76647C8.84976 9.80791 8.89561 9.83334 8.94668 9.83954C8.99775 9.84575 9.05239 9.83253 9.10193 9.80048C9.19979 9.73459 9.23285 9.61285 9.17586 9.52815L8.90063 9.11908L9.37331 8.80086C9.47117 8.73497 9.50422 8.61322 9.44724 8.52853Z" fill="#93AABE" stroke="#93AABE" stroke-width="0.186513"/>
<path d="M7.2591 8.68099C7.1958 8.6733 7.1277 8.69085 7.0727 8.72787C7.0177 8.76489 6.9758 8.82137 6.9591 8.88291C6.94239 8.94444 6.95192 9.00717 6.98395 9.05476C7.01598 9.10235 7.07052 9.1348 7.13381 9.14249C7.19711 9.15017 7.26521 9.13262 7.32021 9.09561C7.37521 9.05859 7.41711 9.0021 7.43381 8.94057C7.45052 8.87903 7.44098 8.8163 7.40895 8.76871C7.37692 8.72112 7.32239 8.68868 7.2591 8.68099Z" fill="#93AABE" stroke="#93AABE" stroke-width="0.186513"/>
<path d="M6.30972 8.56581C6.17917 8.54996 6.04417 8.64082 6.00972 8.76773C5.97526 8.89464 6.05388 9.01145 6.18443 9.02731C6.31497 9.04317 6.44997 8.9523 6.48443 8.82539C6.51888 8.69848 6.44026 8.58167 6.30972 8.56581Z" fill="#93AABE" stroke="#93AABE" stroke-width="0.186513"/>
<path d="M5.83499 8.50823C5.7717 8.50054 5.7036 8.51809 5.6486 8.55511C5.5936 8.59212 5.5517 8.64861 5.53499 8.71014C5.51829 8.77168 5.52782 8.83441 5.55985 8.882C5.59188 8.92959 5.64641 8.96203 5.70971 8.96972C5.773 8.97741 5.84111 8.95986 5.89611 8.92284C5.95111 8.88582 5.993 8.82934 6.00971 8.7678C6.02641 8.70627 6.01688 8.64354 5.98485 8.59595C5.95084 8.54812 5.89629 8.51567 5.83499 8.50823Z" fill="#93AABE" stroke="#93AABE" stroke-width="0.186513"/>
<path d="M6.08563 7.58532C5.95508 7.56947 5.82008 7.66033 5.78563 7.78724C5.75117 7.91415 5.82979 8.03096 5.96034 8.04682C6.09088 8.06268 6.22588 7.97181 6.26034 7.8449C6.29531 7.71607 6.21615 7.60118 6.08563 7.58532Z" fill="#93AABE" stroke="#93AABE" stroke-width="0.186513"/>
<path d="M6.83923 4.81635C6.83727 4.81611 6.83923 4.81635 6.83923 4.81635C6.83727 4.81611 6.83531 4.81587 6.83531 4.81587C6.77253 4.80825 6.70494 4.82586 6.6503 4.86292C6.59566 4.89998 6.55397 4.9565 6.53727 5.01803C6.52056 5.07956 6.52988 5.14227 6.56155 5.18982C6.59322 5.23736 6.64725 5.26975 6.71002 5.27737L6.71198 5.27761L6.71394 5.27785C6.84341 5.29357 6.97753 5.2026 7.01198 5.07569C7.04644 4.94878 6.96868 4.83207 6.83923 4.81635Z" fill="#93AABE" stroke="#93AABE" stroke-width="0.186513"/>
<path d="M7.21309 3.43151C7.08254 3.41565 6.94754 3.50651 6.91309 3.63342C6.87864 3.76034 6.95726 3.87715 7.0878 3.893C7.21835 3.90886 7.35335 3.818 7.3878 3.69108C7.42226 3.56417 7.34362 3.44736 7.21309 3.43151Z" fill="#93AABE" stroke="#93AABE" stroke-width="0.186513"/>
<path d="M7.46366 2.5086C7.33311 2.49274 7.19811 2.58361 7.16366 2.71052C7.1292 2.83743 7.20783 2.95424 7.33837 2.9701C7.46892 2.98596 7.60392 2.89509 7.63837 2.76818C7.67283 2.64127 7.59418 2.52446 7.46366 2.5086Z" fill="#93AABE" stroke="#93AABE" stroke-width="0.186513"/>
<path d="M6.5867 5.73901C6.45615 5.72316 6.32115 5.81402 6.2867 5.94093C6.25225 6.06784 6.33087 6.18465 6.46141 6.20051C6.59196 6.21637 6.72696 6.1255 6.76141 5.99859C6.79587 5.87168 6.71723 5.75487 6.5867 5.73901Z" fill="#93AABE" stroke="#93AABE" stroke-width="0.186513"/>
<path d="M6.96252 4.35441C6.83198 4.33855 6.69698 4.42942 6.66252 4.55633C6.62807 4.68324 6.70669 4.80005 6.83723 4.81591C6.96778 4.83176 7.10278 4.7409 7.13723 4.61399C7.17221 4.48515 7.09305 4.37026 6.96252 4.35441Z" fill="#93AABE" stroke="#93AABE" stroke-width="0.186513"/>
<path d="M6.33613 6.66192C6.20559 6.64606 6.07059 6.73692 6.03613 6.86384C6.00168 6.99075 6.0803 7.10756 6.21084 7.12342C6.34139 7.13927 6.47639 7.04841 6.51084 6.9215C6.5453 6.79458 6.46666 6.67777 6.33613 6.66192Z" fill="#93AABE" stroke="#93AABE" stroke-width="0.186513"/>
<path d="M7.71435 1.5857C7.65106 1.57801 7.58295 1.59556 7.52795 1.63258C7.47295 1.6696 7.43106 1.72608 7.41435 1.78762C7.39765 1.84915 7.40718 1.91188 7.43921 1.95947C7.47124 2.00706 7.52577 2.03951 7.58907 2.04719C7.65236 2.05488 7.72046 2.03733 7.77546 2.00031C7.83046 1.9633 7.87236 1.90681 7.88906 1.84528C7.90577 1.78374 7.89624 1.72101 7.86421 1.67342C7.8302 1.62559 7.77565 1.59314 7.71435 1.5857Z" fill="#93AABE" stroke="#93AABE" stroke-width="0.186513"/>
<path d="M8.18901 1.64329C8.05847 1.62743 7.92347 1.71829 7.88901 1.8452C7.85456 1.97212 7.93318 2.08893 8.06372 2.10478C8.19427 2.12064 8.32927 2.02978 8.36372 1.90286C8.39818 1.77595 8.31956 1.65914 8.18901 1.64329Z" fill="#93AABE" stroke="#93AABE" stroke-width="0.186513"/>
<path d="M9.13846 1.75846C9.07516 1.75077 9.00706 1.76832 8.95206 1.80534C8.89706 1.84236 8.85516 1.89885 8.83846 1.96038C8.82175 2.02191 8.83128 2.08465 8.86331 2.13223C8.89534 2.17982 8.94987 2.21227 9.01317 2.21996C9.07646 2.22765 9.14457 2.2101 9.19957 2.17308C9.25457 2.13606 9.29646 2.07957 9.31317 2.01804C9.32987 1.95651 9.32034 1.89377 9.28831 1.84618C9.25626 1.79859 9.20175 1.76615 9.13846 1.75846Z" fill="#93AABE" stroke="#93AABE" stroke-width="0.186513"/>
<path d="M4.93838 4.58526C4.80783 4.5694 4.67283 4.66027 4.63838 4.78718C4.60393 4.91409 4.68255 5.0309 4.81309 5.04676C4.94364 5.06261 5.07864 4.97175 5.11309 4.84484C5.14755 4.71793 5.06893 4.60112 4.93838 4.58526Z" fill="#93AABE" stroke="#93AABE" stroke-width="0.186513"/>
<path d="M5.88782 4.70094C5.75728 4.68508 5.62228 4.77594 5.58782 4.90285C5.55337 5.02977 5.63199 5.14658 5.76254 5.16243C5.89308 5.17829 6.02808 5.08743 6.06254 4.96051C6.09699 4.8336 6.02035 4.71703 5.88782 4.70094Z" fill="#93AABE" stroke="#93AABE" stroke-width="0.186513"/>
<path d="M3.98894 4.47008C3.92564 4.4624 3.85754 4.47995 3.80254 4.51696C3.74754 4.55398 3.70564 4.61047 3.68894 4.672C3.67223 4.73354 3.68176 4.79627 3.71379 4.84386C3.74582 4.89145 3.80035 4.92389 3.86365 4.93158C3.92694 4.93927 3.99505 4.92172 4.05005 4.8847C4.10505 4.84768 4.14694 4.7912 4.16365 4.72966C4.18035 4.66813 4.17082 4.6054 4.13879 4.55781C4.10676 4.51022 4.05223 4.47777 3.98894 4.47008Z" fill="#93AABE" stroke="#93AABE" stroke-width="0.186513"/>
</g>
<defs>
<clipPath id="clip0_74_1829">
<rect width="9.32567" height="9.32567" fill="white" transform="matrix(1.01808 0.123659 -0.268694 0.989735 2.50575 0)"/>
</clipPath>
</defs>
</svg>
