<svg width="12" height="11" viewBox="0 0 12 11" fill="none" xmlns="http://www.w3.org/2000/svg">
<g clip-path="url(#clip0_74_1789)">
<path d="M6.82616 3.38488L5.22713 3.19065C4.84336 3.14404 4.12779 3.05713 4.44101 1.90338C4.75423 0.74964 5.4698 0.836555 5.85356 0.883169L7.4526 1.07739C7.83636 1.12401 8.55193 1.21092 8.23871 2.36466C8.12937 2.76743 7.92549 3.51841 6.82616 3.38488ZM5.68272 1.51248C5.28696 1.46441 5.18302 1.45179 5.04065 1.97622C4.89828 2.50065 5.00221 2.51327 5.39797 2.56134L6.997 2.75556C7.4967 2.81626 7.52631 2.70718 7.63907 2.29183C7.78145 1.7674 7.67751 1.75478 7.28175 1.70671L5.68272 1.51248Z" fill="#93AABE"/>
<path d="M5.87672 9.46656L3.39361 9.16495C1.06776 8.88245 0.865596 7.84773 1.29469 6.26715L1.9121 3.99294C2.38133 2.26454 3.26484 1.60836 4.96668 1.73285C5.13428 1.74538 5.25551 1.88148 5.22057 2.04168C5.18563 2.20188 5.01821 2.31466 4.84647 2.30163C3.65467 2.21952 2.96712 2.46881 2.53287 4.06834L1.91547 6.34256C1.53474 7.74499 1.67735 8.36919 3.54796 8.5964L6.03107 8.89801C7.90168 9.12522 8.36329 8.57441 8.74403 7.17198L9.36143 4.89776C9.79567 3.29823 9.28305 2.90316 8.12418 2.69976C7.95656 2.67157 7.86117 2.51903 7.91163 2.36463C7.9621 2.21023 8.14402 2.10703 8.31164 2.13522C9.96924 2.4227 10.4514 3.24476 9.98324 4.96937L9.36583 7.24359C8.93571 8.82796 8.20257 9.74907 5.87672 9.46656Z" fill="#93AABE"/>
<path d="M8.05729 5.44112L5.84197 5.17204C5.66896 5.15103 5.55389 5.029 5.58814 4.90285C5.62238 4.77671 5.79425 4.68953 5.96726 4.71055L8.18258 4.97963C8.35559 5.00064 8.47066 5.12267 8.43641 5.24882C8.40217 5.37496 8.23452 5.46265 8.05729 5.44112Z" fill="#93AABE"/>
<path d="M3.78448 4.92209C3.70421 4.91234 3.63097 4.87673 3.58265 4.81362L3.34105 4.49805C3.24763 4.37604 3.29577 4.1987 3.44736 4.10644C3.59895 4.01418 3.80172 4.03881 3.89514 4.16083L3.96601 4.2534L4.86511 3.70621C5.01671 3.61395 5.21947 3.63858 5.3129 3.7606C5.40632 3.88262 5.35817 4.05995 5.20658 4.15221L4.03043 4.86801C3.95725 4.91255 3.86896 4.93235 3.78448 4.92209Z" fill="#93AABE"/>
<path d="M7.55609 7.28693L5.34077 7.01785C5.16776 6.99684 5.05269 6.8748 5.08694 6.74866C5.12118 6.62252 5.29305 6.53534 5.46606 6.55635L7.68138 6.82543C7.85439 6.84645 7.96946 6.96848 7.93521 7.09462C7.90097 7.22076 7.73332 7.30846 7.55609 7.28693Z" fill="#93AABE"/>
<path d="M3.15796 7.2296C3.0777 7.21985 3.00446 7.18424 2.95613 7.12113L2.71453 6.80556C2.62111 6.68354 2.66925 6.50621 2.82084 6.41395C2.97244 6.32169 3.17521 6.34632 3.26863 6.46834L3.3395 6.56091L4.2386 6.01372C4.39019 5.92146 4.59296 5.94609 4.68638 6.06811C4.7798 6.19013 4.73166 6.36746 4.58007 6.45972L3.40392 7.17552C3.33073 7.22006 3.24245 7.23986 3.15796 7.2296Z" fill="#93AABE"/>
</g>
<defs>
<clipPath id="clip0_74_1789">
<rect width="9.32567" height="9.32567" fill="white" transform="matrix(1.01808 0.123659 -0.268694 0.989735 2.50575 0)"/>
</clipPath>
</defs>
</svg>
