<svg width="15" height="15" viewBox="0 0 15 15" fill="none" xmlns="http://www.w3.org/2000/svg">
<path d="M6.38718 6.695e-05C6.24191 0.00233646 6.10349 0.0621731 6.0023 0.166434C5.90112 0.270695 5.84546 0.410854 5.84754 0.556126V0.764559C4.13058 0.913588 2.94354 1.7449 2.21781 2.56907C1.41701 3.4785 1.12211 4.41071 1.12211 4.41071C1.09609 4.49285 1.0898 4.57997 1.10375 4.66499C1.1177 4.75002 1.15149 4.83057 1.20238 4.90009C1.25327 4.96962 1.31984 5.02617 1.39668 5.06517C1.47351 5.10416 1.55846 5.12449 1.64462 5.12452H5.84754V10.2411H1.27915C0.579289 10.2411 0 10.8204 0 11.5203V12.2512C0 12.9511 0.579289 13.5304 1.27915 13.5304H1.46189V14.444C1.46086 14.5167 1.47428 14.5888 1.50137 14.6562C1.52846 14.7236 1.56867 14.785 1.61968 14.8367C1.67069 14.8885 1.73147 14.9295 1.79849 14.9576C1.86551 14.9856 1.93744 15.0001 2.01009 15.0001C2.08274 15.0001 2.15467 14.9856 2.22169 14.9576C2.28872 14.9295 2.3495 14.8885 2.4005 14.8367C2.45151 14.785 2.49173 14.7236 2.51882 14.6562C2.54591 14.5888 2.55933 14.5167 2.5583 14.444V13.5304H12.0606V14.444C12.0595 14.5167 12.0729 14.5888 12.1 14.6562C12.1271 14.7236 12.1673 14.785 12.2184 14.8367C12.2694 14.8885 12.3301 14.9295 12.3972 14.9576C12.4642 14.9856 12.5361 15.0001 12.6088 15.0001C12.6814 15.0001 12.7533 14.9856 12.8204 14.9576C12.8874 14.9295 12.9482 14.8885 12.9992 14.8367C13.0502 14.785 13.0904 14.7236 13.1175 14.6562C13.1446 14.5888 13.158 14.5167 13.157 14.444V13.5304H13.3397C14.0396 13.5304 14.6189 12.9511 14.6189 12.2512V11.5203C14.6189 10.8204 14.0396 10.2411 13.3397 10.2411H9.84203L14.2834 8.37093C14.4035 8.32266 14.5027 8.23344 14.5633 8.11905C14.624 8.00467 14.6422 7.87251 14.6148 7.74598C14.5873 7.61945 14.516 7.50672 14.4134 7.42774C14.3108 7.34877 14.1836 7.30865 14.0542 7.31449C13.9865 7.31746 13.92 7.33295 13.8579 7.36017L7.01534 10.2411H6.94396V5.12452H11.1469C11.233 5.12449 11.318 5.10416 11.3948 5.06517C11.4717 5.02617 11.5382 4.96962 11.5891 4.90009C11.64 4.83057 11.6738 4.75002 11.6877 4.66499C11.7017 4.57997 11.6954 4.49285 11.6694 4.41071C11.6694 4.41071 11.3745 3.4785 10.5737 2.56907C9.84795 1.7449 8.66092 0.913588 6.94396 0.764559V0.556126C6.94501 0.482752 6.93132 0.409913 6.9037 0.341926C6.87609 0.27394 6.8351 0.212189 6.78318 0.160334C6.73126 0.108478 6.66946 0.0675736 6.60143 0.040044C6.53341 0.0125145 6.46056 -0.00107976 6.38718 6.695e-05ZM6.39575 1.83528C8.08848 1.83528 9.10328 2.55911 9.75066 3.29431C9.98834 3.56422 10.1159 3.79842 10.2496 4.0281H6.48569C6.45316 4.02253 6.42019 4.0199 6.38718 4.02025C6.36038 4.02091 6.33366 4.02353 6.30724 4.0281H2.54188C2.67562 3.79842 2.80316 3.56422 3.04084 3.29431C3.68821 2.55911 4.70301 1.83528 6.39575 1.83528ZM1.27915 11.3375H6.30581C6.36466 11.3472 6.4247 11.3472 6.48355 11.3375H13.3397C13.4475 11.3375 13.5224 11.4124 13.5224 11.5203V12.2512C13.5224 12.359 13.4475 12.4339 13.3397 12.4339H12.6987C12.6662 12.4284 12.6332 12.4257 12.6002 12.4261C12.5734 12.4268 12.5467 12.4294 12.5203 12.4339H2.10003C2.0675 12.4284 2.03453 12.4257 2.00153 12.4261C1.97472 12.4268 1.948 12.4294 1.92158 12.4339H1.27915C1.17132 12.4339 1.09641 12.359 1.09641 12.2512V11.5203C1.09641 11.4124 1.17132 11.3375 1.27915 11.3375Z" fill="#34C75A"/>
</svg>
