<svg width="15" height="15" viewBox="0 0 15 15" fill="none" xmlns="http://www.w3.org/2000/svg">
<g clip-path="url(#clip0_74_902)">
<path d="M11.875 3.1252V4.3752H3.12498V3.1252H3.76436C3.91373 1.47833 5.22873 0.163327 6.87498 0.0145766V2.5002H8.12498V0.0145766C9.77123 0.163952 11.0862 1.47895 11.2356 3.1252H11.875ZM9.99998 10.0002H4.99998C3.27686 10.0002 1.87498 11.4021 1.87498 13.1252V15.0002H13.125V13.1252C13.125 11.4021 11.7231 10.0002 9.99998 10.0002ZM3.75123 5.71645C3.79998 7.74207 5.46248 9.3752 7.49998 9.3752C9.53748 9.3752 11.2 7.74207 11.2487 5.71645L11.25 5.6252H3.74998L3.75123 5.71645Z" fill="#F59700"/>
</g>
<defs>
<clipPath id="clip0_74_902">
<rect width="14.5714" height="14.5714" fill="white" transform="scale(1.02941)"/>
</clipPath>
</defs>
</svg>
