<svg width="24" height="24" viewBox="0 0 24 24" fill="none" xmlns="http://www.w3.org/2000/svg">
<path d="M17.5 8C19.709 8 21.5 9.791 21.5 12C21.5 14.209 19.709 16 17.5 16C15.291 16 13.5 14.209 13.5 12C13.5 9.791 15.291 8 17.5 8ZM12 8C14.209 8 16 6.209 16 4C16 1.791 14.209 0 12 0C9.791 0 8 1.791 8 4C8 6.209 9.791 8 12 8ZM6.5 16C8.709 16 10.5 14.209 10.5 12C10.5 9.791 8.709 8 6.5 8C4.291 8 2.5 9.791 2.5 12C2.5 14.209 4.291 16 6.5 16ZM19.5 17H15C13.843 17 12.798 17.451 12 18.17C11.202 17.45 10.157 17 9 17H4.5C2.019 17 0 19.019 0 21.5V24H3V21.5C3 20.717 3.605 20.08 4.37 20.013L6.76 23L9.148 20.015C9.905 20.09 10.5 20.723 10.5 21.5V24H13.5V21.5C13.5 20.717 14.105 20.08 14.87 20.013L17.26 23L19.648 20.015C20.405 20.09 21 20.723 21 21.5V24H24V21.5C24 19.019 21.981 17 19.5 17Z" fill="white"/>
</svg>
