<svg width="117" height="41" viewBox="0 0 117 41" fill="none" xmlns="http://www.w3.org/2000/svg">
<path d="M29.1714 22.3338L25.1863 22.3451C25.1863 22.3451 23.8879 22.331 23.2237 23.0042C22.5129 23.7246 21.0891 25.4977 21.0891 25.4977C21.0891 25.4977 20.3392 26.2789 20.3373 26.9074L20.3205 32.1417C20.3173 32.2718 20.3228 32.4019 20.3372 32.5313C20.4063 33.1698 20.7419 34.1992 22.3012 32.4153C24.3913 30.0236 30.1056 23.5565 30.1056 23.5565C30.1056 23.5565 31.1744 22.3585 29.1717 22.3339L29.1714 22.3338Z" fill="#191F33"/>
<path d="M29.1714 22.3338L25.1863 22.3451C25.1863 22.3451 23.8879 22.331 23.2237 23.0042C22.5129 23.7246 21.0891 25.4977 21.0891 25.4977C21.0891 25.4977 20.3392 26.2789 20.3373 26.9074L20.3205 32.1417C20.3173 32.2718 20.3228 32.4019 20.3372 32.5313C20.4063 33.1698 20.7419 34.1992 22.3012 32.4153C24.3913 30.0236 30.1056 23.5565 30.1056 23.5565C30.1056 23.5565 31.1744 22.3585 29.1717 22.3339L29.1714 22.3338Z" fill="#1B95E3" stroke="#1B95E3" stroke-width="0.353333"/>
<path d="M29.1714 19.3125L25.1862 19.301C25.1862 19.301 23.888 19.3152 23.2236 18.6421C22.5129 17.9216 21.0891 16.1485 21.0891 16.1485C21.0891 16.1485 20.3392 15.3673 20.3372 14.7389L20.3205 9.50468C20.3173 9.37445 20.3228 9.24436 20.337 9.11497C20.4062 8.47656 20.7419 7.44703 22.3012 9.2309C24.3913 11.6226 30.1055 18.0897 30.1055 18.0897C30.1055 18.0897 31.1745 19.2878 29.1717 19.3124L29.1714 19.3125Z" fill="#1B95E3"/>
<path d="M29.1714 19.3125L25.1862 19.301C25.1862 19.301 23.888 19.3152 23.2236 18.6421C22.5129 17.9216 21.0891 16.1485 21.0891 16.1485C21.0891 16.1485 20.3392 15.3673 20.3372 14.7389L20.3205 9.50468C20.3173 9.37445 20.3228 9.24436 20.337 9.11497C20.4062 8.47656 20.7419 7.44703 22.3012 9.2309C24.3913 11.6226 30.1055 18.0897 30.1055 18.0897C30.1055 18.0897 31.1745 19.2878 29.1717 19.3124L29.1714 19.3125Z" stroke="#1B95E3" stroke-width="0.353333"/>
<path d="M0.668642 23.1135L13.9189 39.0534C13.9189 39.0534 16.3331 42.2732 16.2865 38.9745C16.2401 35.6763 16.2865 30.1209 16.2865 30.1209C16.2865 30.1209 16.4276 28.9528 15.1732 27.5169C13.9189 26.0807 10.8224 22.4468 10.8224 22.4468C10.8224 22.4468 10.0033 21.3255 7.82881 21.3306C5.75758 21.3357 1.66948 21.3197 1.62524 21.3306C1.62524 21.3306 1.40127 21.3297 1.19321 21.343C0.566563 21.3833 -0.427772 21.7075 0.669076 23.1135H0.668642Z" fill="#191F33"/>
<path d="M0.668642 23.1135L13.9189 39.0534C13.9189 39.0534 16.3331 42.2732 16.2865 38.9745C16.2401 35.6763 16.2865 30.1209 16.2865 30.1209C16.2865 30.1209 16.4276 28.9528 15.1732 27.5169C13.9189 26.0807 10.8224 22.4468 10.8224 22.4468C10.8224 22.4468 10.0033 21.3255 7.82881 21.3306C5.75758 21.3357 1.66948 21.3197 1.62524 21.3306C1.62524 21.3306 1.40127 21.3297 1.19321 21.343C0.566563 21.3833 -0.427772 21.7075 0.669076 23.1135H0.668642Z" stroke="#191F33" stroke-width="0.353333"/>
<path d="M0.668638 17.5258L13.9188 1.58574C13.9188 1.58574 16.3329 -1.63387 16.2865 1.66451C16.24 4.96289 16.2865 10.5184 16.2865 10.5184C16.2865 10.5184 16.4276 11.6863 15.1732 13.1225C13.9188 14.5587 10.8223 18.1926 10.8223 18.1926C10.8223 18.1926 10.0032 19.3139 7.82874 19.3085C5.75753 19.3034 1.66947 19.3197 1.62523 19.3085C1.62523 19.3085 1.40126 19.3095 1.1932 19.2962C0.566559 19.2561 -0.427767 18.9317 0.669072 17.5258H0.668638Z" fill="#191F33"/>
<path d="M0.668638 17.5258L13.9188 1.58574C13.9188 1.58574 16.3329 -1.63387 16.2865 1.66451C16.24 4.96289 16.2865 10.5184 16.2865 10.5184C16.2865 10.5184 16.4276 11.6863 15.1732 13.1225C13.9188 14.5587 10.8223 18.1926 10.8223 18.1926C10.8223 18.1926 10.0032 19.3139 7.82874 19.3085C5.75753 19.3034 1.66947 19.3197 1.62523 19.3085C1.62523 19.3085 1.40126 19.3095 1.1932 19.2962C0.566559 19.2561 -0.427767 18.9317 0.669072 17.5258H0.668638Z" stroke="#191F33" stroke-width="0.353333"/>
<path d="M84.7732 26.0545V23.6891H79.1653V21.3077H84.1765V19.0885H79.1653V16.9338H84.4665V14.5852H76.353V26.0545H84.7732ZM71.3921 20.2872C71.3921 22.8466 69.466 23.6566 67.3866 23.6566H66.006V16.9501H67.4549C69.4667 16.9501 71.3928 17.7114 71.3928 20.2873L71.3921 20.2872ZM74.4262 20.2872C74.4262 15.9456 70.9489 14.5848 67.5229 14.5848H63.16V26.0545H67.6605C70.9836 26.0545 74.4268 24.321 74.4268 20.2873L74.4262 20.2872ZM58.1138 20.2711C58.1138 22.344 56.6822 23.8348 54.6538 23.8348C52.6254 23.8348 51.2107 22.3446 51.2107 20.2711C51.2107 18.2622 52.6083 16.7718 54.6538 16.7718C56.6991 16.7718 58.1146 18.2622 58.1146 20.2711H58.1138ZM61.2339 20.2711C61.2339 16.5936 58.4384 14.2771 54.6545 14.2771C50.8874 14.2771 48.0921 16.5936 48.0921 20.2711C48.0921 23.8998 50.8874 26.3621 54.6545 26.3621C58.4384 26.3621 61.2339 23.8998 61.2339 20.2711ZM47.6146 24.4667L45.5862 22.6524C45.0755 23.3328 44.1715 23.8189 43.0295 23.8189C41.0182 23.8189 39.6028 22.3938 39.6028 20.3035C39.6028 18.2784 41.0517 16.7881 43.0801 16.7881C44.0005 16.7881 44.972 17.1283 45.5175 17.8411L47.4954 15.9618C46.4897 14.8598 44.6653 14.2771 42.9784 14.2771C39.2965 14.2771 36.433 16.6256 36.433 20.3035C36.433 23.8998 39.2115 26.3621 42.9273 26.3621C44.9557 26.3621 46.558 25.6332 47.6146 24.4667Z" fill="#191F33"/>
<path d="M84.7732 26.0545V23.6891H79.1653V21.3077H84.1765V19.0885H79.1653V16.9338H84.4665V14.5852H76.353V26.0545H84.7732ZM71.3921 20.2872C71.3921 22.8466 69.466 23.6566 67.3866 23.6566H66.006V16.9501H67.4549C69.4667 16.9501 71.3928 17.7114 71.3928 20.2873L71.3921 20.2872ZM74.4262 20.2872C74.4262 15.9456 70.9489 14.5848 67.5229 14.5848H63.16V26.0545H67.6605C70.9836 26.0545 74.4268 24.321 74.4268 20.2873L74.4262 20.2872ZM58.1138 20.2711C58.1138 22.344 56.6822 23.8348 54.6538 23.8348C52.6254 23.8348 51.2107 22.3446 51.2107 20.2711C51.2107 18.2622 52.6083 16.7718 54.6538 16.7718C56.6991 16.7718 58.1146 18.2622 58.1146 20.2711H58.1138ZM61.2339 20.2711C61.2339 16.5936 58.4384 14.2771 54.6545 14.2771C50.8874 14.2771 48.0921 16.5936 48.0921 20.2711C48.0921 23.8998 50.8874 26.3621 54.6545 26.3621C58.4384 26.3621 61.2339 23.8998 61.2339 20.2711ZM47.6146 24.4667L45.5862 22.6524C45.0755 23.3328 44.1715 23.8189 43.0295 23.8189C41.0182 23.8189 39.6028 22.3938 39.6028 20.3035C39.6028 18.2784 41.0517 16.7881 43.0801 16.7881C44.0005 16.7881 44.972 17.1283 45.5175 17.8411L47.4954 15.9618C46.4897 14.8598 44.6653 14.2771 42.9784 14.2771C39.2965 14.2771 36.433 16.6256 36.433 20.3035C36.433 23.8998 39.2115 26.3621 42.9273 26.3621C44.9557 26.3621 46.558 25.6332 47.6146 24.4667Z" fill="#191F33" stroke="#191F33" stroke-width="0.353333"/>
<path d="M117 26.3621V23.8699H111.384V21.3607H116.402V19.0224H111.384V16.7522H116.693V14.2775H108.568V26.3621H117ZM106.639 26.3621V23.8699H101.023V21.3607H106.041V19.0224H101.023V16.7522H106.332V14.2775H98.2068V26.3621H106.639ZM96.3122 26.3621V23.8356H90.3037L96.1925 16.6158V14.2771H86.9236V16.7517H92.5398L86.7874 23.8356V26.3621H96.3122Z" fill="#1B95E3"/>
</svg>
