<svg width="24" height="20" viewBox="0 0 24 20" fill="none" xmlns="http://www.w3.org/2000/svg">
<path d="M19 0H5C2.243 0 0 2.243 0 5V15C0 17.757 2.243 20 5 20H19C21.757 20 24 17.757 24 15V5C24 2.243 21.757 0 19 0ZM10 15.038H4C3.447 15.038 3 14.59 3 14.038C3 13.486 3.447 13.038 4 13.038H10C10.553 13.038 11 13.486 11 14.038C11 14.59 10.553 15.038 10 15.038ZM10 11.038H4C3.447 11.038 3 10.59 3 10.038C3 9.486 3.447 9.038 4 9.038H10C10.553 9.038 11 9.486 11 10.038C11 10.59 10.553 11.038 10 11.038ZM10 7.038H4C3.447 7.038 3 6.59 3 6.038C3 5.486 3.447 5.038 4 5.038H10C10.553 5.038 11 5.486 11 6.038C11 6.59 10.553 7.038 10 7.038ZM18 15.038C18 15.59 17.553 16.038 17 16.038C16.447 16.038 16 15.59 16 15.038H15.732C14.665 15.038 13.669 14.464 13.134 13.539C12.857 13.061 13.021 12.45 13.498 12.173C13.977 11.896 14.588 12.06 14.864 12.538C15.043 12.846 15.375 13.038 15.731 13.038H17.999C18.551 13.038 18.999 12.589 18.999 12.038C18.999 11.66 18.728 11.34 18.355 11.278L15.314 10.771C13.972 10.548 12.999 9.398 12.999 8.038C12.999 6.384 14.345 5.038 15.999 5.038C15.999 4.486 16.446 4.038 16.999 4.038C17.552 4.038 17.999 4.486 17.999 5.038H18.267C19.334 5.038 20.33 5.612 20.865 6.537C21.142 7.015 20.978 7.626 20.501 7.903C20.02 8.179 19.409 8.015 19.135 7.538C18.956 7.23 18.624 7.038 18.268 7.038H16C15.448 7.038 15 7.486 15 8.038C15 8.416 15.271 8.736 15.644 8.798L18.685 9.305C20.027 9.528 21 10.678 21 12.038C21 13.692 19.654 15.038 18 15.038Z" fill="white"/>
</svg>
