<svg width="15" height="15" viewBox="0 0 15 15" fill="none" xmlns="http://www.w3.org/2000/svg">
<g clip-path="url(#clip0_74_893)">
<path d="M6.24996 11.8751H4.99996V10.427C4.39913 9.89167 3.92072 9.23317 3.59729 8.49633C3.27387 7.75948 3.11302 6.96159 3.12572 6.15699C3.13841 5.35238 3.32434 4.55996 3.67084 3.83369C4.01735 3.10741 4.5163 2.46433 5.13371 1.94823C4.88339 1.90188 4.62952 1.87741 4.37496 1.87511C3.27475 1.88358 2.21813 2.30628 1.41564 3.05897C0.61316 3.81166 0.123736 4.83908 0.0448987 5.93649C-0.0339383 7.0339 0.303601 8.12073 0.990255 8.9804C1.67691 9.84007 2.66226 10.4095 3.74996 10.5751V11.8751H2.49996C2.3342 11.8751 2.17523 11.941 2.05802 12.0582C1.94081 12.1754 1.87496 12.3343 1.87496 12.5001C1.87496 12.6659 1.94081 12.8248 2.05802 12.942C2.17523 13.0593 2.3342 13.1251 2.49996 13.1251H3.74996V14.3751C3.74996 14.5409 3.81581 14.6998 3.93302 14.817C4.05023 14.9343 4.2092 15.0001 4.37496 15.0001C4.54072 15.0001 4.69969 14.9343 4.8169 14.817C4.93411 14.6998 4.99996 14.5409 4.99996 14.3751V13.1251H6.24996C6.41572 13.1251 6.57469 13.0593 6.6919 12.942C6.80911 12.8248 6.87496 12.6659 6.87496 12.5001C6.87496 12.3343 6.80911 12.1754 6.6919 12.0582C6.57469 11.941 6.41572 11.8751 6.24996 11.8751Z" fill="#EB65E2"/>
<path d="M13.7859 0H11.2859C11.1201 0 10.9611 0.065848 10.8439 0.183058C10.7267 0.300268 10.6609 0.45924 10.6609 0.625C10.6609 0.79076 10.7267 0.949731 10.8439 1.06694C10.9611 1.18415 11.1201 1.25 11.2859 1.25H12.9021L11.4021 2.75C10.5134 2.0838 9.4053 1.77902 8.30088 1.89701C7.19647 2.015 6.17776 2.54701 5.44983 3.38592C4.72191 4.22484 4.33883 5.30837 4.3777 6.41839C4.41657 7.52841 4.87452 8.58249 5.65935 9.36842C6.44417 10.1544 7.4976 10.6138 8.60757 10.6542C9.71753 10.6947 10.8016 10.3131 11.6415 9.58639C12.4815 8.85965 13.0149 7.8417 13.1345 6.73745C13.254 5.6332 12.9508 4.52466 12.2859 3.635L13.7859 2.135V3.75C13.7859 3.91576 13.8517 4.07473 13.9689 4.19194C14.0861 4.30915 14.2451 4.375 14.4109 4.375C14.5766 4.375 14.7356 4.30915 14.8528 4.19194C14.97 4.07473 15.0359 3.91576 15.0359 3.75V1.25C15.0359 0.918479 14.9042 0.600537 14.6698 0.366116C14.4353 0.131696 14.1174 0 13.7859 0Z" fill="#EB65E2"/>
</g>
<defs>
<clipPath id="clip0_74_893">
<rect width="14.5714" height="14.5714" fill="white" transform="scale(1.02941)"/>
</clipPath>
</defs>
</svg>
