<svg width="30" height="30" viewBox="0 0 30 30" fill="none" xmlns="http://www.w3.org/2000/svg">
<rect width="30" height="30" rx="4.22919" fill="#097B82" fill-opacity="0.1"/>
<path d="M15.9257 8.96157C13.8874 8.96157 12.0809 9.97387 10.988 11.5248L11.8058 12.1066C12.7158 10.8132 14.2196 9.96798 15.9257 9.96798C18.7111 9.96798 20.9578 12.2147 20.9578 15C20.9578 17.7853 18.7111 20.0321 15.9257 20.0321C14.2196 20.0321 12.7178 19.1868 11.8058 17.8935L10.988 18.4753C12.0809 20.0262 13.8874 21.0385 15.9257 21.0385C19.2555 21.0385 21.9642 18.3298 21.9642 15C21.9642 11.6702 19.2555 8.96157 15.9257 8.96157Z" fill="#097B82"/>
<path d="M13.7439 12.7454L13.0205 13.4687L14.1685 14.6166H8.03566V15.6231H14.1685L13.0205 16.771L13.7439 17.4943L15.7567 15.4815L16.1027 15.1199L15.7567 14.7582L13.7439 12.7454Z" fill="#097B82"/>
</svg>
