<svg width="12" height="11" viewBox="0 0 12 11" fill="none" xmlns="http://www.w3.org/2000/svg">
<g clip-path="url(#clip0_74_1816)">
<path d="M2.61097 1.57258C3.31604 0.214288 5.43637 0.471831 5.37839 1.90872C5.34702 2.75207 4.63338 3.38318 4.06022 3.7601C3.64095 4.03468 3.11705 3.96687 2.86779 3.61526C2.5334 3.12811 2.19705 2.36946 2.61097 1.57258Z" stroke="#93AABE" stroke-width="0.699425"/>
<path d="M6.92916 7.34082C7.63238 5.98231 9.75283 6.23986 9.69708 7.67702C9.66462 8.52024 8.95396 9.15171 8.37933 9.52845C7.96196 9.80326 7.43699 9.73533 7.18961 9.38394C6.8497 8.89612 6.51632 8.13784 6.92916 7.34082Z" stroke="#93AABE" stroke-width="0.699425"/>
<path d="M6.74978 2.42224L7.83664 2.55425C8.58689 2.64538 8.66925 3.66908 7.96361 4.12342L3.91011 6.72529C3.20564 7.17535 3.28799 8.19905 4.03419 8.28969L5.12105 8.4217" stroke="#93AABE" stroke-width="0.699425" stroke-linecap="round" stroke-linejoin="round"/>
<path d="M4.07608 2.33598L4.08035 2.3365" stroke="#93AABE" stroke-width="0.932567" stroke-linecap="round" stroke-linejoin="round"/>
<path d="M8.04499 7.58546L8.04926 7.58598" stroke="#93AABE" stroke-width="0.932567" stroke-linecap="round" stroke-linejoin="round"/>
</g>
<defs>
<clipPath id="clip0_74_1816">
<rect width="9.32567" height="9.32567" fill="white" transform="matrix(1.01808 0.123659 -0.268694 0.989735 2.50575 0)"/>
</clipPath>
</defs>
</svg>
