<svg width="24" height="24" viewBox="0 0 24 24" fill="none" xmlns="http://www.w3.org/2000/svg">
<path d="M13.9997 11.9997V4.99989C13.9997 3.34592 12.6537 1.99995 10.9997 1.99995H4.99989C3.34592 1.99995 1.99995 3.34592 1.99995 4.99989V18.9996C1.99995 20.6535 3.34592 21.9995 4.99989 21.9995H10.9997C11.5527 21.9995 11.9997 22.4465 11.9997 22.9995C11.9997 23.5525 11.5527 23.9995 10.9997 23.9995H4.99989C2.24295 23.9995 0 21.7565 0 18.9996V4.99989C0 2.24295 2.24295 0 4.99989 0H10.9997C13.7567 0 15.9996 2.24295 15.9996 4.99989V11.9997C15.9996 12.5527 15.5526 12.9997 14.9997 12.9997C14.4467 12.9997 13.9997 12.5527 13.9997 11.9997ZM5.99986 12.9997H4.99989C4.4469 12.9997 3.99991 13.4467 3.99991 13.9997C3.99991 14.5527 4.4469 14.9997 4.99989 14.9997H5.99986C6.55285 14.9997 6.99984 14.5527 6.99984 13.9997C6.99984 13.4467 6.55285 12.9997 5.99986 12.9997ZM10.9997 12.9997H9.99977C9.44679 12.9997 8.99979 13.4467 8.99979 13.9997C8.99979 14.5527 9.44679 14.9997 9.99977 14.9997H10.9997C11.5527 14.9997 11.9997 14.5527 11.9997 13.9997C11.9997 13.4467 11.5527 12.9997 10.9997 12.9997ZM5.99986 16.9996H4.99989C4.4469 16.9996 3.99991 17.4466 3.99991 17.9996C3.99991 18.5526 4.4469 18.9996 4.99989 18.9996H5.99986C6.55285 18.9996 6.99984 18.5526 6.99984 17.9996C6.99984 17.4466 6.55285 16.9996 5.99986 16.9996ZM10.9997 16.9996H9.99977C9.44679 16.9996 8.99979 17.4466 8.99979 17.9996C8.99979 18.5526 9.44679 18.9996 9.99977 18.9996H10.9997C11.5527 18.9996 11.9997 18.5526 11.9997 17.9996C11.9997 17.4466 11.5527 16.9996 10.9997 16.9996ZM5.99986 4.99989H4.99989C4.4469 4.99989 3.99991 5.44688 3.99991 5.99986C3.99991 6.55285 4.4469 6.99984 4.99989 6.99984H5.99986C6.55285 6.99984 6.99984 6.55285 6.99984 5.99986C6.99984 5.44688 6.55285 4.99989 5.99986 4.99989ZM10.9997 4.99989H9.99977C9.44679 4.99989 8.99979 5.44688 8.99979 5.99986C8.99979 6.55285 9.44679 6.99984 9.99977 6.99984H10.9997C11.5527 6.99984 11.9997 6.55285 11.9997 5.99986C11.9997 5.44688 11.5527 4.99989 10.9997 4.99989ZM5.99986 8.99979H4.99989C4.4469 8.99979 3.99991 9.44679 3.99991 9.99977C3.99991 10.5528 4.4469 10.9997 4.99989 10.9997H5.99986C6.55285 10.9997 6.99984 10.5528 6.99984 9.99977C6.99984 9.44679 6.55285 8.99979 5.99986 8.99979ZM10.9997 8.99979H9.99977C9.44679 8.99979 8.99979 9.44679 8.99979 9.99977C8.99979 10.5528 9.44679 10.9997 9.99977 10.9997H10.9997C11.5527 10.9997 11.9997 10.5528 11.9997 9.99977C11.9997 9.44679 11.5527 8.99979 10.9997 8.99979ZM23.9685 22.7505C23.4085 20.5765 21.3195 18.9996 18.9996 18.9996C16.6796 18.9996 14.5907 20.5765 14.0307 22.7505C13.8927 23.2845 14.2157 23.8305 14.7507 23.9685C15.2807 24.1055 15.8306 23.7835 15.9686 23.2485C16.2986 21.9665 17.6016 20.9995 18.9996 20.9995C20.3975 20.9995 21.7005 21.9665 22.0305 23.2485C22.1465 23.6995 22.5525 23.9995 22.9985 23.9995C23.0815 23.9995 23.1655 23.9895 23.2485 23.9685C23.7835 23.8305 24.1055 23.2845 23.9685 22.7505ZM18.9996 17.9996C20.3785 17.9996 21.4995 16.8786 21.4995 15.4996C21.4995 14.1207 20.3785 12.9997 18.9996 12.9997C17.6206 12.9997 16.4996 14.1207 16.4996 15.4996C16.4996 16.8786 17.6206 17.9996 18.9996 17.9996Z" fill="#21B82B"/>
</svg>
