<svg width="12" height="11" viewBox="0 0 12 11" fill="none" xmlns="http://www.w3.org/2000/svg">
<g clip-path="url(#clip0_74_1782)">
<path d="M10.1936 4.01268L7.96555 1.51581C7.7624 1.28292 7.45881 1.13094 7.11283 1.08891C6.76685 1.04689 6.40276 1.11778 6.09016 1.28802L2.69198 3.10151C2.51146 3.19982 2.35386 3.32817 2.22967 3.47801C2.10548 3.62786 2.01755 3.79577 1.97174 3.97055L0.999562 7.55159C0.911059 7.87759 0.97437 8.20824 1.17557 8.47079C1.37676 8.73335 1.69937 8.90631 2.07241 8.95162L7.69859 9.63499C8.07163 9.6803 8.46454 9.59426 8.7909 9.39578C9.11726 9.1973 9.35033 8.90265 9.43883 8.57665L10.4121 4.99152C10.4603 4.81773 10.4657 4.64061 10.428 4.47188C10.3903 4.30314 10.3104 4.14663 10.1936 4.01268ZM6.04566 8.58774L4.17027 8.35995L4.72643 6.3113C4.75594 6.20264 4.83362 6.10442 4.94241 6.03826C5.0512 5.9721 5.18217 5.94342 5.30652 5.95852L6.24421 6.07242C6.36856 6.08752 6.47609 6.14518 6.54316 6.23269C6.61023 6.32021 6.63133 6.43043 6.60183 6.5391L6.04566 8.58774ZM8.50114 8.46275C8.47163 8.57142 8.39395 8.66964 8.28516 8.7358C8.17637 8.80196 8.0454 8.83064 7.92105 8.81554L6.98336 8.70164L7.53952 6.65299C7.62803 6.32699 7.56472 5.99634 7.36352 5.73379C7.16232 5.47123 6.83972 5.29827 6.46668 5.25296L5.52898 5.13906C5.15594 5.09375 4.76303 5.1798 4.43667 5.37828C4.11031 5.57676 3.87724 5.87141 3.78874 6.19741L3.23257 8.24606L2.29487 8.13216C2.17053 8.11706 2.06299 8.0594 1.99593 7.97188C1.92886 7.88437 1.90776 7.77415 1.93726 7.66548L2.91055 4.08035C2.92643 4.02219 2.9563 3.96642 2.99817 3.91678C3.04004 3.86713 3.09295 3.82474 3.15339 3.79242L6.55045 1.98302C6.65384 1.92773 6.77367 1.90486 6.88756 1.9187C7.00145 1.93253 7.10161 1.98212 7.16933 2.0582L9.39845 4.55096C9.43803 4.59543 9.46528 4.64756 9.47839 4.70389C9.49149 4.76021 9.49014 4.81944 9.47443 4.87762L8.50114 8.46275Z" fill="#93AABE"/>
</g>
<defs>
<clipPath id="clip0_74_1782">
<rect width="9.32567" height="9.32567" fill="white" transform="matrix(1.01808 0.123659 -0.268694 0.989735 2.50575 0)"/>
</clipPath>
</defs>
</svg>
