<svg width="16" height="16" viewBox="0 0 16 16" fill="none" xmlns="http://www.w3.org/2000/svg">
<path d="M13.571 8.90449C12.778 9.69735 11.2859 9.66655 8.99816 9.66655C7.5263 9.66655 6.33295 8.47142 6.33219 6.99955C6.33219 4.71336 6.30137 3.22045 7.09436 2.42761C7.8873 1.63477 8.23756 1.66687 11.7503 1.66687C12.0898 1.66541 12.2606 2.07595 12.0206 2.31598L10.212 4.12478C9.7529 4.5839 9.75163 5.32824 10.2108 5.7873C10.6699 6.24637 11.4143 6.24641 11.8735 5.78741L13.6826 3.97905C13.9227 3.73908 14.3333 3.90991 14.3318 4.24932C14.3318 7.76149 14.364 8.11169 13.571 8.90449Z" stroke="#A4A4A4"/>
<path d="M9.0013 9.66667L4.88691 13.7811C4.15054 14.5174 2.95663 14.5174 2.22025 13.7811C1.48387 13.0447 1.48387 11.8507 2.22025 11.1144L6.33463 7" stroke="#A4A4A4"/>
<path d="M3.67693 12.3333H3.66797" stroke="#A4A4A4"/>
</svg>
