<svg width="59" height="25" viewBox="0 0 59 25" fill="none" xmlns="http://www.w3.org/2000/svg">
<path d="M15.6362 11.6013L13.79 11.3823C13.79 11.3823 13.1907 11.3029 12.801 11.5685C12.384 11.8528 11.5083 12.5706 11.5083 12.5706C11.5083 12.5706 11.0657 12.8801 10.988 13.1628L10.3407 15.5174C10.3234 15.5758 10.31 15.6346 10.3008 15.6937C10.2548 15.9849 10.2844 16.4671 11.2242 15.7519C12.4839 14.7931 15.9192 12.204 15.9192 12.204C15.9192 12.204 16.5604 11.725 15.6363 11.6013L15.6362 11.6013Z" fill="white"/>
<path d="M15.6362 11.6013L13.79 11.3823C13.79 11.3823 13.1907 11.3029 12.801 11.5685C12.384 11.8528 11.5083 12.5706 11.5083 12.5706C11.5083 12.5706 11.0657 12.8801 10.988 13.1628L10.3407 15.5174C10.3234 15.5758 10.31 15.6346 10.3008 15.6937C10.2548 15.9849 10.2844 16.4671 11.2242 15.7519C12.4839 14.7931 15.9192 12.204 15.9192 12.204C15.9192 12.204 16.5604 11.725 15.6363 11.6013L15.6362 11.6013Z" fill="#1B95E3" stroke="#1B95E3" stroke-width="0.164753"/>
<path d="M16.0053 10.2417L14.1619 10.0125C14.1619 10.0125 13.5592 9.94587 13.3339 9.60563C13.093 9.2414 12.6505 8.36342 12.6505 8.36342C12.6505 8.36342 12.3988 7.96967 12.4746 7.6868L13.1064 5.3303C13.1208 5.27152 13.1393 5.21328 13.1616 5.15585C13.2717 4.87244 13.5529 4.428 14.0567 5.31847C14.7321 6.51232 16.5871 9.74395 16.5871 9.74395C16.5871 9.74395 16.9356 10.3433 16.0055 10.2417L16.0053 10.2417Z" fill="#1B95E3"/>
<path d="M16.0053 10.2417L14.1619 10.0125C14.1619 10.0125 13.5592 9.94587 13.3339 9.60563C13.093 9.2414 12.6505 8.36342 12.6505 8.36342C12.6505 8.36342 12.3988 7.96967 12.4746 7.6868L13.1064 5.3303C13.1208 5.27152 13.1393 5.21328 13.1616 5.15585C13.2717 4.87244 13.5529 4.428 14.0567 5.31847C14.7321 6.51232 16.5871 9.74395 16.5871 9.74395C16.5871 9.74395 16.9356 10.3433 16.0055 10.2417L16.0053 10.2417Z" stroke="#1B95E3" stroke-width="0.164753"/>
<path d="M2.34662 10.3494L6.53289 18.2678C6.53289 18.2678 7.25708 19.8525 7.63854 18.3654C8.02001 16.8785 8.72022 14.3811 8.72022 14.3811C8.72022 14.3811 8.92826 13.8633 8.52299 13.1466C8.11782 12.4297 7.12837 10.6203 7.12837 10.6203C7.12837 10.6203 6.88619 10.0696 5.87898 9.94966C4.91956 9.8355 3.02909 9.59842 3.00727 9.60085C3.00727 9.60085 2.9037 9.58786 2.80576 9.58214C2.51076 9.56502 2.01085 9.65504 2.34682 10.3495L2.34662 10.3494Z" fill="white"/>
<path d="M2.34662 10.3494L6.53289 18.2678C6.53289 18.2678 7.25708 19.8525 7.63854 18.3654C8.02001 16.8785 8.72022 14.3811 8.72022 14.3811C8.72022 14.3811 8.92826 13.8633 8.52299 13.1466C8.11782 12.4297 7.12837 10.6203 7.12837 10.6203C7.12837 10.6203 6.88619 10.0696 5.87898 9.94966C4.91956 9.8355 3.02909 9.59842 3.00727 9.60085C3.00727 9.60085 2.9037 9.58786 2.80576 9.58214C2.51076 9.56502 2.01085 9.65504 2.34682 10.3495L2.34662 10.3494Z" stroke="white" stroke-width="0.164753"/>
<path d="M3.02931 7.83501L11.1104 1.40658C11.1104 1.40658 12.6213 0.0934096 12.1969 1.57516C11.7723 3.0569 11.1151 5.55966 11.1151 5.55966C11.1151 5.55966 11.0378 6.09314 10.2816 6.66894C9.52546 7.24475 7.6481 8.70598 7.6481 8.70598C7.6481 8.70598 7.13194 9.16454 6.12602 9.03985C5.16786 8.92109 3.27345 8.69858 3.25434 8.69104C3.25434 8.69104 3.15054 8.67891 3.05584 8.66124C2.77066 8.60795 2.35001 8.40605 3.02951 7.83504L3.02931 7.83501Z" fill="white"/>
<path d="M3.02931 7.83501L11.1104 1.40658C11.1104 1.40658 12.6213 0.0934094 12.1969 1.57516C11.7723 3.0569 11.1151 5.55966 11.1151 5.55966C11.1151 5.55966 11.0378 6.09314 10.2816 6.66894C9.52546 7.24475 7.6481 8.70598 7.6481 8.70598C7.6481 8.70598 7.13194 9.16454 6.12602 9.03985C5.16786 8.92109 3.27345 8.69858 3.25434 8.69104C3.25434 8.69104 3.15054 8.67891 3.05584 8.66124C2.77066 8.60795 2.35001 8.40605 3.02951 7.83504L3.02931 7.83501Z" stroke="white" stroke-width="0.164753"/>
<path d="M40.9204 16.4019L41.2094 15.3374L38.6134 15.0221L38.9043 13.9504L41.2241 14.2322L41.4952 13.2335L39.1754 12.9517L39.4387 11.982L41.8927 12.2801L42.1796 11.2232L38.4238 10.767L37.0226 15.9284L40.9204 16.4019ZM35.4307 13.0541C35.118 14.2059 34.1274 14.4621 33.1648 14.3452L32.5257 14.2676L33.3451 11.2495L34.0158 11.3309C34.9471 11.444 35.7457 11.895 35.431 13.0542L35.4307 13.0541ZM36.8352 13.2247C37.3656 11.2709 35.9222 10.4629 34.3363 10.2703L32.3166 10.025L30.9153 15.1866L32.9987 15.4397C34.537 15.6265 36.3427 15.0401 36.8355 13.2248L36.8352 13.2247ZM29.286 12.3002C29.0327 13.2331 28.1879 13.8235 27.2489 13.7095C26.3099 13.5954 25.8371 12.8452 26.0904 11.9121C26.3359 11.0081 27.1649 10.4159 28.1118 10.5309C29.0586 10.6459 29.5318 11.3963 29.2863 12.3003L29.286 12.3002ZM30.7303 12.4757C31.1796 10.8207 30.1685 9.62104 28.4169 9.40828C26.6731 9.19647 25.0961 10.0818 24.6468 11.7368C24.2035 13.3698 25.1966 14.6351 26.9405 14.8469C28.6921 15.0596 30.287 14.1087 30.7303 12.4757ZM23.9132 13.5981L23.1959 12.6675C22.8763 12.945 22.3985 13.1129 21.8698 13.0487C20.9387 12.9356 20.4577 12.2147 20.7131 11.274C20.9605 10.3627 21.8133 9.77346 22.7522 9.88751C23.1783 9.93926 23.5864 10.147 23.7519 10.4984L24.897 9.76393C24.5661 9.21142 23.7928 8.84662 23.0119 8.75177C21.3075 8.54475 19.695 9.44063 19.2457 11.0958C18.8063 12.7142 19.7917 13.9786 21.5118 14.1875C22.4508 14.3015 23.2815 14.0636 23.9132 13.5981Z" fill="white"/>
<path d="M40.9204 16.4019L41.2094 15.3374L38.6134 15.0221L38.9043 13.9504L41.2241 14.2322L41.4952 13.2335L39.1754 12.9517L39.4387 11.982L41.8927 12.2801L42.1796 11.2232L38.4238 10.767L37.0226 15.9284L40.9204 16.4019ZM35.4307 13.0541C35.118 14.2059 34.1274 14.4621 33.1648 14.3452L32.5257 14.2676L33.3451 11.2495L34.0158 11.3309C34.9471 11.444 35.7457 11.895 35.431 13.0542L35.4307 13.0541ZM36.8352 13.2247C37.3656 11.2709 35.9222 10.4629 34.3363 10.2703L32.3166 10.025L30.9153 15.1866L32.9987 15.4397C34.537 15.6265 36.3427 15.0401 36.8355 13.2248L36.8352 13.2247ZM29.286 12.3002C29.0327 13.2331 28.1879 13.8235 27.2489 13.7095C26.3099 13.5954 25.8371 12.8452 26.0904 11.9121C26.3359 11.0081 27.1649 10.4159 28.1118 10.5309C29.0586 10.6459 29.5318 11.3963 29.2863 12.3003L29.286 12.3002ZM30.7303 12.4757C31.1796 10.8207 30.1685 9.62104 28.4169 9.40828C26.6731 9.19647 25.0961 10.0818 24.6468 11.7368C24.2035 13.3698 25.1966 14.6351 26.9405 14.8469C28.6921 15.0596 30.287 14.1087 30.7303 12.4757ZM23.9132 13.5981L23.1959 12.6675C22.8763 12.945 22.3985 13.1129 21.8698 13.0487C20.9387 12.9356 20.4577 12.2147 20.7131 11.274C20.9605 10.3627 21.8133 9.77346 22.7522 9.88751C23.1783 9.93926 23.5864 10.147 23.7519 10.4984L24.897 9.76393C24.5661 9.21142 23.7928 8.84662 23.0119 8.75177C21.3075 8.54475 19.695 9.44063 19.2457 11.0958C18.8063 12.7142 19.7917 13.9786 21.5118 14.1875C22.4508 14.3015 23.2815 14.0636 23.9132 13.5981Z" fill="white" stroke="white" stroke-width="0.164753"/>
<path d="M55.801 18.3522L56.1055 17.2307L53.5059 16.9149L53.8124 15.7857L56.1355 16.0679L56.4211 15.0156L54.0981 14.7334L54.3755 13.7117L56.8329 14.0102L57.1353 12.8966L53.3741 12.4397L51.8976 17.8781L55.801 18.3522ZM51.0048 17.7697L51.3093 16.6481L48.7096 16.3324L49.0162 15.2031L51.3392 15.4853L51.6249 14.433L49.3019 14.1509L49.5792 13.1292L52.0366 13.4277L52.3389 12.314L48.5778 11.8572L47.1014 17.2956L51.0048 17.7697ZM46.2244 17.189L46.5331 16.052L43.7517 15.7142L47.3597 12.7962L47.6455 11.7437L43.3547 11.2226L43.0524 12.3362L45.6522 12.652L42.1239 15.5165L41.8152 16.6535L46.2244 17.189Z" fill="#1B95E3"/>
</svg>
