<svg width="24" height="24" viewBox="0 0 24 24" fill="none" xmlns="http://www.w3.org/2000/svg">
<path d="M20 14C20 15.654 18.654 17 17 17C17 17.552 16.553 18 16 18C15.447 18 15 17.552 15 17H14.732C13.665 17 12.669 16.426 12.134 15.501C11.857 15.023 12.021 14.412 12.498 14.135C12.977 13.858 13.588 14.022 13.864 14.5C14.043 14.808 14.375 15 14.731 15H16.999C17.551 15 17.999 14.551 17.999 14C17.999 13.622 17.728 13.302 17.355 13.24L14.314 12.733C12.972 12.51 11.999 11.36 11.999 10C11.999 8.346 13.345 7 14.999 7C14.999 6.448 15.446 6 15.999 6C16.552 6 16.999 6.448 16.999 7H17.267C18.334 7 19.33 7.574 19.865 8.499C20.142 8.977 19.978 9.588 19.501 9.865C19.02 10.141 18.409 9.977 18.135 9.5C17.956 9.192 17.624 9 17.268 9H15C14.448 9 14 9.448 14 10C14 10.378 14.271 10.698 14.644 10.76L17.685 11.267C19.027 11.49 20 12.64 20 14ZM24 7V17C24 19.757 21.757 22 19 22H5C2.243 22 0 19.757 0 17V7C0 4.243 2.243 2 5 2H19C21.757 2 24 4.243 24 7ZM22 7C22 5.346 20.654 4 19 4H5C3.346 4 2 5.346 2 7V17C2 18.654 3.346 20 5 20H19C20.654 20 22 18.654 22 17V7ZM9 7H5C4.447 7 4 7.448 4 8C4 8.552 4.447 9 5 9H9C9.553 9 10 8.552 10 8C10 7.448 9.553 7 9 7ZM9 11H5C4.447 11 4 11.448 4 12C4 12.552 4.447 13 5 13H9C9.553 13 10 12.552 10 12C10 11.448 9.553 11 9 11ZM9 15H5C4.447 15 4 15.448 4 16C4 16.552 4.447 17 5 17H9C9.553 17 10 16.552 10 16C10 15.448 9.553 15 9 15Z" fill="#B002D3"/>
</svg>
