<svg width="14" height="14" viewBox="0 0 14 14" fill="none" xmlns="http://www.w3.org/2000/svg">
<g clip-path="url(#clip0_1_709)">
<path d="M9.0892 8.80571C8.98239 8.80571 8.87389 8.7756 8.77787 8.71254L6.50543 7.21955C6.34579 7.11388 6.24922 6.93606 6.24922 6.74461V3.97677C6.24922 3.66261 6.50316 3.40866 6.81733 3.40866C7.13149 3.40866 7.38544 3.66261 7.38544 3.97677V6.4384L9.40166 7.76266C9.66413 7.93537 9.73685 8.2876 9.56471 8.54949C9.45563 8.71595 9.27384 8.80571 9.0892 8.80571ZM7.22296 12.4842C7.08888 12.4939 6.95367 12.4984 6.81733 12.4984C3.68476 12.4984 1.13622 9.94989 1.13622 6.81733C1.13622 3.68476 3.68476 1.13622 6.81733 1.13622C8.60744 1.13622 10.2896 1.9952 11.3554 3.40866H9.65788C9.34371 3.40866 9.08977 3.66261 9.08977 3.97677C9.08977 4.29094 9.34371 4.54488 9.65788 4.54488H11.9303C12.5569 4.54488 13.0665 4.03529 13.0665 3.40866V1.13622C13.0665 0.822056 12.8126 0.56811 12.4984 0.56811C12.1843 0.56811 11.9303 0.822056 11.9303 1.13622V2.33153C10.6481 0.876594 8.79037 0 6.81733 0C3.05814 0 0 3.05814 0 6.81733C0 10.5765 3.05814 13.6347 6.81733 13.6347C6.98094 13.6347 7.14285 13.6284 7.30363 13.617C7.61666 13.5949 7.85242 13.3228 7.8297 13.0103C7.80754 12.6978 7.53883 12.4564 7.22296 12.4842ZM13.0665 6.24922C12.7524 6.24922 12.4984 6.50316 12.4984 6.81733C12.4984 7.07582 12.4808 7.33601 12.4462 7.58996C12.4041 7.90128 12.6223 8.18761 12.9325 8.22965C12.9586 8.23306 12.9842 8.23476 13.0097 8.23476C13.2898 8.23476 13.5335 8.02797 13.5722 7.74335C13.6131 7.43884 13.6341 7.12695 13.6341 6.81733C13.6341 6.50316 13.3807 6.24922 13.0665 6.24922ZM12.5763 9.31474C12.3013 9.16249 11.9553 9.26475 11.8053 9.53971C11.6821 9.76468 11.5417 9.98397 11.3878 10.1919C11.2014 10.4441 11.2554 10.7998 11.5071 10.9867C11.6093 11.0617 11.7275 11.0975 11.8445 11.0975C12.0189 11.0975 12.1905 11.0174 12.3024 10.8674C12.4859 10.618 12.6547 10.3549 12.8024 10.0851C12.9535 9.81013 12.8524 9.46472 12.5774 9.31417L12.5763 9.31474ZM9.88853 11.5985C9.67094 11.7383 9.4437 11.8639 9.21191 11.9712C8.92729 12.1036 8.80344 12.4411 8.93581 12.7257C9.03239 12.933 9.23691 13.0546 9.45165 13.0546C9.53176 13.0546 9.613 13.0381 9.69026 13.0018C9.9692 12.8717 10.243 12.7217 10.5038 12.5535C10.768 12.3837 10.8441 12.0326 10.6742 11.7684C10.5044 11.5054 10.1527 11.4292 9.8891 11.598L9.88853 11.5985Z" fill="white"/>
</g>
<defs>
<clipPath id="clip0_1_709">
<rect width="13.6347" height="13.6347" fill="white"/>
</clipPath>
</defs>
</svg>
