<svg width="14" height="14" viewBox="0 0 14 14" fill="none" xmlns="http://www.w3.org/2000/svg">
<g clip-path="url(#clip0_1_725)">
<path d="M7.95344 7.38544C7.95435 7.5851 7.90262 7.78148 7.80347 7.95478C7.70432 8.12809 7.56125 8.27222 7.38868 8.37263C7.2161 8.47305 7.02011 8.52622 6.82045 8.52679C6.62078 8.52735 6.4245 8.47529 6.25135 8.37585C6.07821 8.27641 5.93433 8.1331 5.83421 7.96036C5.73408 7.78761 5.68124 7.59153 5.68101 7.39186C5.68079 7.1922 5.73318 6.996 5.83291 6.82303C5.93264 6.65005 6.0762 6.50642 6.24911 6.40658V3.40866H7.38533V6.40658C7.55754 6.50561 7.70068 6.64817 7.80039 6.81998C7.9001 6.99178 7.95289 7.18679 7.95344 7.38544ZM11.3962 3.14676C12.2239 4.038 12.7736 5.15143 12.9778 6.35051C13.1819 7.54958 13.0317 8.78218 12.5456 9.89714C12.0595 11.0121 11.2585 11.961 10.241 12.6274C9.22345 13.2937 8.03356 13.6487 6.81722 13.6487C5.60089 13.6487 4.41099 13.2937 3.39345 12.6274C2.37592 11.961 1.57497 11.0121 1.08883 9.89714C0.602696 8.78218 0.452505 7.54958 0.656677 6.35051C0.86085 5.15143 1.41051 4.038 2.23825 3.14676L1.68264 2.52923L1.1827 3.02916L0.379395 2.22586L2.22575 0.379498L3.02906 1.18281L2.48708 1.72478L3.08246 2.38606C4.00406 1.69276 5.10062 1.26999 6.24911 1.16519V0H7.38533V1.16519C8.53382 1.26999 9.63039 1.69276 10.552 2.38606L11.1474 1.72422L10.6406 1.21803L11.4445 0.414721L13.2551 2.22586L12.4517 3.02916L11.9518 2.52923L11.3962 3.14676ZM11.9302 7.38544C11.9302 6.37418 11.6303 5.38564 11.0685 4.54481C10.5067 3.70398 9.70816 3.04864 8.77388 2.66165C7.8396 2.27466 6.81155 2.1734 5.81973 2.37069C4.8279 2.56797 3.91685 3.05494 3.20179 3.77C2.48672 4.48507 1.99976 5.39612 1.80247 6.38794C1.60519 7.37976 1.70644 8.40782 2.09343 9.34209C2.48042 10.2764 3.13577 11.0749 3.9766 11.6367C4.81742 12.1986 5.80597 12.4984 6.81722 12.4984C8.17281 12.4969 9.47245 11.9578 10.431 10.9992C11.3895 10.0407 11.9287 8.74102 11.9302 7.38544Z" fill="white"/>
</g>
<defs>
<clipPath id="clip0_1_725">
<rect width="13.6347" height="13.6347" fill="white"/>
</clipPath>
</defs>
</svg>
